<svg xmlns="http://www.w3.org/2000/svg" width="1781.438" height="446.763" viewBox="0 0 1781.438 446.763"><g transform="translate(-77.788 -181.788)"><g transform="translate(45.17 149.17)"><circle cx="221.17" cy="221.17" r="221.17" transform="translate(34.83 34.83)" fill="#f85c04" stroke="#f85c04" stroke-width="4.423"/><path d="M295.087,1,96.133,199.883h78.761L76.878,364.775,275.829,165.9H197.07Z" transform="translate(70.018 73.111)" fill="#f5f0f0" stroke="#f5f0f0" stroke-width="2.065"/></g><g transform="translate(501.556 235.207)"><g transform="translate(84.723 22.504)"><path d="M134.188,3.4V37.086A213.512,213.512,0,0,1,132,69.319a143.405,143.405,0,0,1-5.946,25.047,89.175,89.175,0,0,1-8.623,18.567A64.826,64.826,0,0,1,107.217,125.6a35.759,35.759,0,0,1-10.789,7.186,26.858,26.858,0,0,1-10.216,2.243h0l54.168,95.121h-40.11L46.2,135.032H27.549V82.279H86.212a18.369,18.369,0,0,0,8.929-4.154,28.217,28.217,0,0,0,6.988-9.014A51.887,51.887,0,0,0,106.665,55.4a94.167,94.167,0,0,0,1.594-18.318h0V3.814A31.575,31.575,0,0,0,107.707-3a9.568,9.568,0,0,0-1.389-3.448,3.255,3.255,0,0,0-1.8-1.329,10.374,10.374,0,0,0-1.757-.166H17.169V230.153H-8.781V-34.11a51.2,51.2,0,0,1,1-10.343,36.575,36.575,0,0,1,2.738-8.515A17.022,17.022,0,0,1-.894-58.659,7.85,7.85,0,0,1,4.3-60.694h98.466a19.318,19.318,0,0,1,14.671,6.4,49.177,49.177,0,0,1,9.726,16.034,96.458,96.458,0,0,1,5.394,20.769A144.821,144.821,0,0,1,134.188,3.4ZM310.82-34.11V230.153H284.891v-71.4H193.7v71.4h-25.95V84.73a296.881,296.881,0,0,1,5.394-58.61Q178.537-.672,188.12-19.946q9.563-19.232,22.64-29.99t28.525-10.758h58.479a7.731,7.731,0,0,1,5.088,2.035,17.468,17.468,0,0,1,4.189,5.691,34.7,34.7,0,0,1,2.8,8.515,52.23,52.23,0,0,1,.981,10.343ZM193.7,84.73v21.309h91.192V-7.941H239.284a36.292,36.292,0,0,0-5.026.706A29.912,29.912,0,0,0,225.37-3.7a46.854,46.854,0,0,0-10.625,8.723q-5.578,5.9-10.278,16.241Q199.787,31.6,196.743,47.1,193.7,62.631,193.7,84.73ZM493.749,37.086V61.011a211.571,211.571,0,0,1-2.207,32.233,144.734,144.734,0,0,1-5.926,25.047,89.173,89.173,0,0,1-8.623,18.567,63.047,63.047,0,0,1-10.237,12.586,37.312,37.312,0,0,1-10.768,7.1,27.332,27.332,0,0,1-10.237,2.2H387.09V106.038h58.663a18.927,18.927,0,0,0,9.031-4.154,28.017,28.017,0,0,0,6.927-9.055,52.247,52.247,0,0,0,4.5-13.666A93.59,93.59,0,0,0,467.8,61.011h0V37.086a131.646,131.646,0,0,0-2.084-18.277A60.638,60.638,0,0,0,461.363,4.6a27.242,27.242,0,0,0-6.62-9.221,13.462,13.462,0,0,0-8.99-3.323H387.294q-5.19,0-7.887,5.441-2.7,5.483-2.7,15.826h0V230.153H350.78V13.326q0-20.27,3.637-34.476t9.072-22.929q5.435-8.723,11.831-12.669,6.375-3.946,11.769-3.946h58.663a28.189,28.189,0,0,1,15.774,4.569,45.935,45.935,0,0,1,12.321,12.171,78.614,78.614,0,0,1,9.072,17.529,156.644,156.644,0,0,1,6.191,20.81,183.061,183.061,0,0,1,3.535,21.89q1.1,11.049,1.1,20.81Zm58.509-97.78V230.153h-25.95V-60.694ZM730.284,144.544h0a184.443,184.443,0,0,1-1.941,28.121,137.5,137.5,0,0,1-5.149,22.015,72.856,72.856,0,0,1-7.478,16.2,56.787,56.787,0,0,1-8.888,10.966,33.056,33.056,0,0,1-9.317,6.272,22.692,22.692,0,0,1-8.929,2.035H588.5V177.4h100.08q7.478,0,11.626-8.889,4.127-8.931,4.127-23.967h0a76.748,76.748,0,0,0-1.083-13.375,44.859,44.859,0,0,0-3.147-10.551,19.247,19.247,0,0,0-4.985-6.9,10.072,10.072,0,0,0-6.538-2.409H628.917q-6.293,0-13.568-4.569-7.294-4.569-13.526-14.7t-10.38-26.584q-4.127-16.407-4.127-40.167h0q0-23.718,4.127-40.042,4.148-16.324,10.38-26.584,6.232-10.218,13.526-14.787,7.274-4.569,13.568-4.569h88.29V-7.941h-88.29q-7.376,0-11.524,9.1-4.148,9.138-4.148,24.133h0q0,15.244,4.148,24.05t11.524,8.806h59.868a24.091,24.091,0,0,1,8.868,2.368,33.742,33.742,0,0,1,9.338,6.563,58.081,58.081,0,0,1,8.827,11.257,81.445,81.445,0,0,1,7.438,16.324,130.842,130.842,0,0,1,5.129,21.932A184.974,184.974,0,0,1,730.284,144.544ZM902.231-60.694V203.569a52.3,52.3,0,0,1-1,10.551,34.008,34.008,0,0,1-2.8,8.432,17.786,17.786,0,0,1-4.189,5.566,7.731,7.731,0,0,1-5.088,2.035H830.7A42.134,42.134,0,0,1,813.92,226.5a55.85,55.85,0,0,1-16.408-11.257A91.162,91.162,0,0,1,782.6,195.885a137.553,137.553,0,0,1-12.219-27.913,223.816,223.816,0,0,1-8.235-36.885A328.459,328.459,0,0,1,759.16,84.73h0V-60.694h25.929V84.73q0,22.306,3.044,37.716a118.388,118.388,0,0,0,7.744,25.753q4.679,10.343,10.278,16.241a46.267,46.267,0,0,0,10.625,8.723,29.683,29.683,0,0,0,8.868,3.531,36.172,36.172,0,0,0,5.047.706h45.586V-60.694ZM1085.534,3.4V37.086a213.518,213.518,0,0,1-2.186,32.233,143.4,143.4,0,0,1-5.946,25.047,89.175,89.175,0,0,1-8.623,18.567,64.82,64.82,0,0,1-10.216,12.669,35.758,35.758,0,0,1-10.789,7.186,26.857,26.857,0,0,1-10.216,2.243h0l54.168,95.121h-40.11L997.55,135.032H978.895V82.279h58.663a18.368,18.368,0,0,0,8.929-4.154,28.219,28.219,0,0,0,6.988-9.014,51.882,51.882,0,0,0,4.536-13.707,94.175,94.175,0,0,0,1.594-18.318h0V3.814A31.576,31.576,0,0,0,1059.053-3a9.567,9.567,0,0,0-1.39-3.448,3.254,3.254,0,0,0-1.8-1.329,10.373,10.373,0,0,0-1.757-.166H968.515V230.153h-25.95V-34.11a51.206,51.206,0,0,1,1-10.343,36.577,36.577,0,0,1,2.738-8.515,17.023,17.023,0,0,1,4.148-5.691,7.85,7.85,0,0,1,5.19-2.035h98.466a19.317,19.317,0,0,1,14.671,6.4,49.179,49.179,0,0,1,9.726,16.034,96.451,96.451,0,0,1,5.394,20.769A144.823,144.823,0,0,1,1085.534,3.4Zm149.7-64.093h28.933l-67.735,280.5a26.8,26.8,0,0,1-4.74,10.426q-3.146,3.988-6.947,3.988h0q-3.678,0-6.824-3.988a27.873,27.873,0,0,1-4.843-10.426h0l-67.633-280.5h29.015l50.285,209.516Z" transform="translate(8.781 60.694)" fill="#fff"/></g></g></g></svg>