<svg class="thumb" width="512" height="512" viewBox="0 0 512 512" xmlns="http://www.w3.org/2000/svg" xmlns:inkscape="http://www.inkscape.org/namespaces/inkscape" xmlns:sodipodi="http://sodipodi.sourceforge.net/DTD/sodipodi-0.dtd" xmlns:xlink="http://www.w3.org/1999/xlink" xmlns:ns1="http://www.inkscape.org/namespaces/inkscape" xmlns:sketch="http://www.bohemiancoding.com/sketch/ns" style="">
  <defs transform="matrix(0.9481385946273804, 0, 0, 0.9481385946273804, -28.44569206237793, -28.442514419555664)" />
  <path transform="matrix(4.423401355743408, 0, 0, 4.423401355743408, 34.829933166503906, 34.829933166503906)" fill="#f85c04" stroke="#f85c04" stroke-width="1" data-type="circle" data-cx="50" data-cy="50" data-r="50" d="M50,50m-50,0a50,50 0 1, 0 100,0a50,50 0 1, 0 -100,0" />
  <path transform="matrix(1.5021125078201294, 1.4175524711608887, -1.4175524711608887, 1.5021125078201294, 246.26280212402344, -4.659123420715332)" fill="#f5f0f0" stroke="#f5f0f0" stroke-width="1" data-type="polygon" d="M142.873 0.486L46.545 96.778L84.679 96.778L37.222 176.614L133.549 80.322L95.416 80.322Z" />
  <path text="R" fill="#f5f0f0" space="preserve" text-anchor="middle" offset="0.5" font-scale="contain" font-size="48" font-family="Dynalight" transform="matrix(3.2253355979919434, -1.2826368808746338, 1.2098604440689087, 3.0423309803009033, 194.64344787597656, 245.80636596679688)" font-weight="400" font-style="normal" data-fl-textpath="" d="M 14.072031249999998-27.07L 14.072031249999998-27.07Q 14.072031249999998-24.66  13.12203125-22.82Q 12.17203125-20.98  10.62203125-19.56Q 9.06203125-18.14  7.06203125-17.07Q 5.072031249999998-16.01  2.962031250000001-15.16L 2.962031250000001-15.16Q 1.7220312500000006-14.65  0.9520312499999992-14.36Q 0.17203124999999986-14.06 -0.25796874999999986-13.89Q-0.6879687499999996-13.71 -0.8479687499999997-13.62Q-0.9979687500000001-13.52 -0.9979687500000001-13.38L-0.9979687500000001-13.38Q-0.9979687500000001-13.34 -0.9479687499999994-13.15L-0.9479687499999994-13.15Q 0.24203125000000014-9.52  1.8420312499999998-5.74L 1.8420312499999998-5.74Q 2.5220312499999995-4.13  3.3420312500000016-2.33Q 4.162031249999998-0.54  5.122031249999999 1.32Q 6.08203125 3.19  7.17203125 5.06Q 8.26203125 6.94  9.482031249999999 8.7L 9.482031249999999 8.7L 6.292031250000001 9.52Q 3.6920312499999994 5.37  1.2220312500000006-0.04Q-1.2579687499999999-5.44 -3.3879687500000006-11.67L-3.3879687500000006-11.67Q-3.4779687500000005-11.93 -3.547968750000001-12.2Q-3.6179687499999993-12.47 -3.6179687499999993-12.73L-3.6179687499999993-12.73Q-3.6179687499999993-13.41 -3.2779687499999994-13.72Q-2.9379687499999996-14.04 -2.17796875-14.32Q-1.41796875-14.6 -0.19796874999999936-15.01Q 1.0220312499999995-15.42  2.7820312499999993-16.27L 2.7820312499999993-16.27Q 4.49203125-17.11  5.972031250000001-18.15Q 7.462031249999999-19.2  8.58203125-20.54Q 9.69203125-21.89  10.322031249999998-23.58Q 10.962031249999999-25.27  10.962031249999999-27.35L 10.962031249999999-27.35Q 10.962031249999999-28.9  10.572031249999998-29.94Q 10.182031250000001-30.98  9.552031249999999-31.62Q 8.92203125-32.25  8.12203125-32.52Q 7.322031249999998-32.79  6.482031249999999-32.79L 6.482031249999999-32.79Q 5.56203125-32.79  4.372031249999999-32.34Q 3.17203125-31.9  1.8620312499999994-30.76Q 0.5520312500000006-29.63 -0.8079687500000006-27.68Q-2.16796875-25.73 -3.40796875-22.76L-3.40796875-22.76L-12.92796875 0L-15.94796875 0L-6.43796875-22.76Q-5.35796875-25.34 -3.877968750000001-27.36Q-2.3979687500000004-29.39 -0.6579687500000002-30.79Q 1.0920312499999998-32.18  3.0320312499999993-32.92Q 4.982031249999999-33.66  6.952031250000001-33.66L 6.952031250000001-33.66Q 8.19203125-33.66  9.462031249999999-33.26Q 10.72203125-32.86  11.752031250000002-32.04Q 12.78203125-31.22  13.432031250000001-29.99Q 14.072031249999998-28.76  14.072031249999998-27.07Z" />
  <path text="R" fill="#f5f0f0" space="preserve" text-anchor="middle" offset="0.5" font-scale="contain" font-size="48" font-family="Dynalight" transform="matrix(3.2253355979919434, -1.2826368808746338, 1.2098604440689087, 3.0423309803009033, 187.6512657678897, 248.31418385871)" font-weight="400" font-style="normal" data-fl-textpath="" d="M 14.072031249999998-27.07L 14.072031249999998-27.07Q 14.072031249999998-24.66  13.12203125-22.82Q 12.17203125-20.98  10.62203125-19.56Q 9.06203125-18.14  7.06203125-17.07Q 5.072031249999998-16.01  2.962031250000001-15.16L 2.962031250000001-15.16Q 1.7220312500000006-14.65  0.9520312499999992-14.36Q 0.17203124999999986-14.06 -0.25796874999999986-13.89Q-0.6879687499999996-13.71 -0.8479687499999997-13.62Q-0.9979687500000001-13.52 -0.9979687500000001-13.38L-0.9979687500000001-13.38Q-0.9979687500000001-13.34 -0.9479687499999994-13.15L-0.9479687499999994-13.15Q 0.24203125000000014-9.52  1.8420312499999998-5.74L 1.8420312499999998-5.74Q 2.5220312499999995-4.13  3.3420312500000016-2.33Q 4.162031249999998-0.54  5.122031249999999 1.32Q 6.08203125 3.19  7.17203125 5.06Q 8.26203125 6.94  9.482031249999999 8.7L 9.482031249999999 8.7L 6.292031250000001 9.52Q 3.6920312499999994 5.37  1.2220312500000006-0.04Q-1.2579687499999999-5.44 -3.3879687500000006-11.67L-3.3879687500000006-11.67Q-3.4779687500000005-11.93 -3.547968750000001-12.2Q-3.6179687499999993-12.47 -3.6179687499999993-12.73L-3.6179687499999993-12.73Q-3.6179687499999993-13.41 -3.2779687499999994-13.72Q-2.9379687499999996-14.04 -2.17796875-14.32Q-1.41796875-14.6 -0.19796874999999936-15.01Q 1.0220312499999995-15.42  2.7820312499999993-16.27L 2.7820312499999993-16.27Q 4.49203125-17.11  5.972031250000001-18.15Q 7.462031249999999-19.2  8.58203125-20.54Q 9.69203125-21.89  10.322031249999998-23.58Q 10.962031249999999-25.27  10.962031249999999-27.35L 10.962031249999999-27.35Q 10.962031249999999-28.9  10.572031249999998-29.94Q 10.182031250000001-30.98  9.552031249999999-31.62Q 8.92203125-32.25  8.12203125-32.52Q 7.322031249999998-32.79  6.482031249999999-32.79L 6.482031249999999-32.79Q 5.56203125-32.79  4.372031249999999-32.34Q 3.17203125-31.9  1.8620312499999994-30.76Q 0.5520312500000006-29.63 -0.8079687500000006-27.68Q-2.16796875-25.73 -3.40796875-22.76L-3.40796875-22.76L-12.92796875 0L-15.94796875 0L-6.43796875-22.76Q-5.35796875-25.34 -3.877968750000001-27.36Q-2.3979687500000004-29.39 -0.6579687500000002-30.79Q 1.0920312499999998-32.18  3.0320312499999993-32.92Q 4.982031249999999-33.66  6.952031250000001-33.66L 6.952031250000001-33.66Q 8.19203125-33.66  9.462031249999999-33.26Q 10.72203125-32.86  11.752031250000002-32.04Q 12.78203125-31.22  13.432031250000001-29.99Q 14.072031249999998-28.76  14.072031249999998-27.07Z" />
</svg>