<svg class="thumb" width="1000" height="1000" viewBox="0,0,600,600" xmlns="http://www.w3.org/2000/svg" xmlns:inkscape="http://www.inkscape.org/namespaces/inkscape" xmlns:sodipodi="http://sodipodi.sourceforge.net/DTD/sodipodi-0.dtd" xmlns:xlink="http://www.w3.org/1999/xlink" xmlns:ns1="http://www.inkscape.org/namespaces/inkscape" xmlns:sketch="http://www.bohemiancoding.com/sketch/ns">
  <defs></defs>
  <g transform="matrix(0.5566,0,0,0.5566,-122.3596,169.4967)">
    <g transform="matrix(2.9556,0,0,2.9556,281.1293,0.746)">
      <svg width="316.1" height="181" style="overflow: visible;">
        <defs>
          <linearGradient x1="0" y1="0.5" x2="1" y2="0.5" id="linearGradientSkice3r62a">
            <stop offset="0%" stop-color="#0776ad"></stop>
            <stop offset="100%" stop-color="#0776ad"></stop>
          </linearGradient>
        </defs>
        <g transform="matrix(1,0,0,1,0,90.75)">
          <path d="M 1.0000000000000107-9.2L 0.1000000000000103-10.3Q-2.4999999999999893-13.5 -2.4999999999999893-16.05Q-2.4999999999999893-18.6  1.8000000000000105-22.8L 1.8000000000000105-22.8Q 4.300000000000011-25.2  7.10000000000001-25.2Q 9.900000000000011-25.2  14.90000000000001-20.2L 14.90000000000001-20.2Q 16.30000000000001-18.5  18.90000000000001-16.95Q 21.50000000000001-15.4  23.70000000000001-15.4L 23.70000000000001-15.4Q 33.000000000000014-15.4  33.000000000000014-23L 33.000000000000014-23Q 33.000000000000014-25.3  30.450000000000014-26.85Q 27.90000000000001-28.4  24.100000000000012-29.1Q 20.30000000000001-29.8  15.90000000000001-31.35Q 11.50000000000001-32.9  7.70000000000001-35Q 3.900000000000011-37.1  1.3500000000000103-41.65Q-1.1999999999999895-46.2 -1.1999999999999895-52.6L-1.1999999999999895-52.6Q-1.1999999999999895-61.4  5.35000000000001-67.95Q 11.90000000000001-74.5  23.20000000000001-74.5L 23.20000000000001-74.5Q 29.200000000000014-74.5  34.150000000000006-72.95Q 39.10000000000001-71.4  41.000000000000014-69.8L 41.000000000000014-69.8L 43.500000000000014-67.9Q 46.60000000000001-65  46.60000000000001-63Q 46.60000000000001-61  44.20000000000002-57.5L 44.20000000000002-57.5Q 40.80000000000001-52.5  37.20000000000002-52.5L 37.20000000000002-52.5Q 35.10000000000001-52.5  32.000000000000014-54.5L 32.000000000000014-54.5Q 31.700000000000014-54.7  30.850000000000012-55.5Q 30.00000000000001-56.3  29.300000000000008-56.8L 29.300000000000008-56.8Q 27.200000000000014-58.1  23.95000000000001-58.1Q 20.70000000000001-58.1  18.55000000000001-56.55Q 16.40000000000001-55  16.40000000000001-52.25Q 16.40000000000001-49.5  18.95000000000001-47.8Q 21.50000000000001-46.1  25.30000000000001-45.5Q 29.100000000000012-44.9  33.60000000000001-43.65Q 38.10000000000001-42.4  41.900000000000006-40.6Q 45.70000000000002-38.8  48.250000000000014-34.35Q 50.80000000000001-29.9  50.80000000000001-23.4Q 50.80000000000001-16.9  48.20000000000002-11.95Q 45.60000000000001-7  41.400000000000006-4.3L 41.400000000000006-4.3Q 33.30000000000001 1  24.100000000000012 1L 24.100000000000012 1Q 19.40000000000001 1  15.20000000000001-0.15Q 11.00000000000001-1.3  8.400000000000011-3L 8.400000000000011-3Q 3.1000000000000103-6.2  1.0000000000000107-9.2L 1.0000000000000107-9.2ZM 59.300000000000026-8.8L 59.300000000000026-43.9Q 59.300000000000026-46.2  59.450000000000024-47.35Q 59.60000000000002-48.5  60.300000000000026-50L 60.300000000000026-50Q 61.700000000000024-52.6  68.10000000000002-52.6L 68.10000000000002-52.6Q 72.90000000000003-52.6  74.90000000000003-50.9L 74.90000000000003-50.9Q 76.60000000000002-49.5  76.70000000000002-46.6L 76.70000000000002-46.6Q 76.80000000000003-45.6  76.80000000000003-43.7L 76.80000000000003-43.7L 76.80000000000003-8.7Q 76.80000000000003-6.4  76.65000000000003-5.25Q 76.50000000000003-4.1  75.70000000000002-2.6L 75.70000000000002-2.6Q 74.40000000000003 0  68.00000000000003 0L 68.00000000000003 0Q 61.700000000000024 0  60.300000000000026-2.7L 60.300000000000026-2.7Q 59.60000000000002-4.2  59.450000000000024-5.3Q 59.300000000000026-6.4  59.300000000000026-8.8L 59.300000000000026-8.8ZM 75.75000000000003-62.45Q 75.00000000000003-61  73.10000000000002-60.4Q 71.20000000000003-59.8  68.05000000000003-59.8Q 64.90000000000002-59.8  63.00000000000003-60.4Q 61.10000000000002-61  60.35000000000002-62.5Q 59.60000000000002-64  59.450000000000024-65.15Q 59.300000000000026-66.3  59.300000000000026-68.6Q 59.300000000000026-70.9  59.450000000000024-72.05Q 59.60000000000002-73.2  60.300000000000026-74.6L 60.300000000000026-74.6Q 61.700000000000024-77.3  68.10000000000002-77.3L 68.10000000000002-77.3Q 74.40000000000003-77.3  75.70000000000002-74.6L 75.70000000000002-74.6Q 76.50000000000003-73.1  76.65000000000003-71.95Q 76.80000000000003-70.8  76.80000000000003-68.5Q 76.80000000000003-66.2  76.65000000000003-65.05Q 76.50000000000003-63.9  75.75000000000003-62.45ZM 104.00000000000004-45.7L 104.00000000000004-45.7Q 108.70000000000005-52.8  115.30000000000004-52.8L 115.30000000000004-52.8Q 125.50000000000004-52.8  130.50000000000006-44.1L 130.50000000000006-44.1Q 131.60000000000002-45.6  133.15000000000003-47.25Q 134.70000000000005-48.9  138.10000000000002-50.85Q 141.50000000000006-52.8  145.10000000000002-52.8L 145.10000000000002-52.8Q 153.10000000000002-52.8  158.50000000000006-46.65Q 163.90000000000003-40.5  163.90000000000003-26.3L 163.90000000000003-26.3L 163.90000000000003-8.8Q 163.90000000000003-6.5  163.75000000000006-5.35Q 163.60000000000002-4.2  162.80000000000004-2.7L 162.80000000000004-2.7Q 161.50000000000006 0  155.10000000000002 0L 155.10000000000002 0Q 148.80000000000004 0  147.40000000000003-2.8L 147.40000000000003-2.8Q 146.70000000000005-4.3  146.55000000000004-5.45Q 146.40000000000003-6.6  146.40000000000003-8.9L 146.40000000000003-8.9L 146.40000000000003-26.4Q 146.40000000000003-35.1  140.20000000000005-35.1L 140.20000000000005-35.1Q 136.70000000000005-35.1  135.45000000000005-32.8Q 134.20000000000005-30.5  134.20000000000005-26.3L 134.20000000000005-26.3L 134.20000000000005-8.8Q 134.20000000000005-6.4  134.05000000000004-5.3Q 133.90000000000003-4.2  133.10000000000002-2.7L 133.10000000000002-2.7Q 131.70000000000005 0  125.30000000000004 0L 125.30000000000004 0Q 119.00000000000004 0  117.60000000000004-2.8L 117.60000000000004-2.8Q 116.90000000000003-4.3  116.75000000000004-5.45Q 116.60000000000004-6.6  116.60000000000004-8.9L 116.60000000000004-8.9L 116.60000000000004-26.4Q 116.60000000000004-35.1  110.40000000000003-35.1L 110.40000000000003-35.1Q 104.40000000000003-35.1  104.40000000000003-26.4L 104.40000000000003-26.4L 104.40000000000003-8.7Q 104.40000000000003-6.4  104.25000000000004-5.25Q 104.10000000000004-4.1  103.30000000000004-2.6L 103.30000000000004-2.6Q 101.80000000000004 0  95.50000000000004 0L 95.50000000000004 0Q 89.20000000000005 0  87.80000000000004-2.7L 87.80000000000004-2.7Q 87.10000000000004-4.2  86.95000000000005-5.3Q 86.80000000000004-6.4  86.80000000000004-8.8L 86.80000000000004-8.8L 86.80000000000004-44Q 86.80000000000004-46.3  86.95000000000005-47.45Q 87.10000000000004-48.6  87.90000000000003-50L 87.90000000000003-50Q 89.40000000000003-52.7  95.00000000000004-52.7Q 100.60000000000004-52.7  102.30000000000004-50.9Q 104.00000000000004-49.1  104.00000000000004-45.7ZM 173.9000000000001 14.3L 173.9000000000001 14.3L 173.9000000000001-44.1Q 173.9000000000001-46.4  174.0500000000001-47.5Q 174.2000000000001-48.6  174.9000000000001-50L 174.9000000000001-50Q 176.3000000000001-52.7  181.60000000000008-52.7Q 186.9000000000001-52.7  188.75000000000009-51.35Q 190.60000000000008-50  190.9000000000001-47.4L 190.9000000000001-47.4Q 194.7000000000001-52.6  202.85000000000008-52.6Q 211.00000000000009-52.6  218.3000000000001-44.9Q 225.60000000000008-37.2  225.60000000000008-27Q 225.60000000000008-16.8  218.35000000000008-9.1Q 211.10000000000008-1.4  202.9000000000001-1.4Q 194.7000000000001-1.4  191.00000000000009-6L 191.00000000000009-6L 191.00000000000009 14.2Q 191.00000000000009 16.5  190.85000000000008 17.6Q 190.7000000000001 18.7  189.9500000000001 20.15Q 189.2000000000001 21.6  187.4000000000001 22.2Q 185.60000000000008 22.8  182.50000000000009 22.8Q 179.4000000000001 22.8  177.5500000000001 22.2Q 175.7000000000001 21.6  174.9500000000001 20.2Q 174.2000000000001 18.8  174.0500000000001 17.7Q 173.9000000000001 16.6  173.9000000000001 14.3ZM 193.7000000000001-32.8Q 191.4000000000001-30.1  191.4000000000001-26.9Q 191.4000000000001-23.7  193.75000000000009-21.05Q 196.10000000000008-18.4  199.75000000000009-18.4Q 203.4000000000001-18.4  205.9500000000001-21Q 208.50000000000009-23.6  208.50000000000009-26.9Q 208.50000000000009-30.2  206.10000000000008-32.85Q 203.7000000000001-35.5  199.85000000000008-35.5Q 196.00000000000009-35.5  193.7000000000001-32.8ZM 234.1000000000001-21.1L 234.1000000000001-68.7Q 234.1000000000001-71  234.2500000000001-72.15Q 234.40000000000012-73.3  235.1000000000001-74.8L 235.1000000000001-74.8Q 236.5000000000001-77.5  242.90000000000012-77.5L 242.90000000000012-77.5Q 249.0000000000001-77.5  250.5000000000001-74.8L 250.5000000000001-74.8Q 251.3000000000001-73.3  251.4500000000001-72.1Q 251.6000000000001-70.9  251.6000000000001-68.6L 251.6000000000001-68.6L 251.6000000000001-22.3Q 251.6000000000001-18.7  252.2000000000001-17.75Q 252.8000000000001-16.8  254.8500000000001-16.8Q 256.9000000000001-16.8  257.60000000000014-16.65Q 258.3000000000001-16.5  259.3000000000001-15.8L 259.3000000000001-15.8Q 261.3000000000001-14.5  261.3000000000001-8.7L 261.3000000000001-8.7Q 261.3000000000001-2.4  259.3000000000001-1L 259.3000000000001-1Q 256.7000000000001 0.8  246.90000000000012-0.4L 246.90000000000012-0.4Q 239.2000000000001-1.4  236.90000000000012-5.5L 236.90000000000012-5.5Q 234.1000000000001-10.4  234.1000000000001-21.1L 234.1000000000001-21.1ZM 318.6000000000001-32.65Q 318.6000000000001-26.5  315.55000000000007-23.55Q 312.50000000000006-20.6  308.80000000000007-20.6L 308.80000000000007-20.6L 285.1000000000001-20.6Q 285.1000000000001-17.8  288.4000000000001-15.9Q 291.70000000000005-14  295.00000000000006-14L 295.00000000000006-14Q 300.80000000000007-14  304.1000000000001-15.2L 304.1000000000001-15.2L 305.20000000000005-15.6Q 307.6000000000001-16.7  309.20000000000005-16.7L 309.20000000000005-16.7Q 312.4000000000001-16.7  314.70000000000005-12.2L 314.70000000000005-12.2Q 316.00000000000006-9.5  316.00000000000006-7.6L 316.00000000000006-7.6Q 316.00000000000006 1.3  294.70000000000005 1.3L 294.70000000000005 1.3Q 287.30000000000007 1.3  281.55000000000007-1.25Q 275.80000000000007-3.8  272.6000000000001-8L 272.6000000000001-8Q 266.30000000000007-16.1  266.30000000000007-26.1L 266.30000000000007-26.1Q 266.30000000000007-38.7  274.45000000000005-46.25Q 282.6000000000001-53.8  294.80000000000007-53.8L 294.80000000000007-53.8Q 308.70000000000005-53.8  315.20000000000005-44L 315.20000000000005-44Q 318.6000000000001-38.8  318.6000000000001-32.65ZM 284.9000000000001-29.7L 297.50000000000006-29.7Q 301.30000000000007-29.7  301.30000000000007-32.9L 301.30000000000007-32.9Q 301.30000000000007-35.2  299.55000000000007-36.6Q 297.80000000000007-38  294.55000000000007-38Q 291.30000000000007-38  288.1000000000001-35.35Q 284.9000000000001-32.7  284.9000000000001-29.7L 284.9000000000001-29.7Z" data-textpath="Simple" data-text-anchor="middle" data-font-size="100" data-letterspacing="2" data-side="left" data-offset="0.5" data-dx="0" data-dy="0" data-xmlspace="preserve" data-href="" data-font="Fredoka One" data-font-src="/Content/clientfonts/fredokaone.woff" data-font-scale="contain" transform="translate(0,0)" data-x="0" data-y="0" fill="url('#linearGradientSkice3r62a')"></path>
        </g>
      </svg>
    </g>
    <g transform="matrix(1.9166,0,0,1.9166,868.4818,285.291)">
      <svg width="199.9" height="160" style="overflow: visible;">
        <defs>
          <linearGradient x1="0" y1="0.5" x2="1" y2="0.5" id="linearGradientSkice3r62d">
            <stop offset="0%" stop-color="#d45d08"></stop>
            <stop offset="100%" stop-color="#d45d08"></stop>
          </linearGradient>
        </defs>
        <g transform="matrix(1,0,0,1,0,75)">
          <path d="M 61.4 0L 61.4 0L 10.5 0Q 8.6 0  7.75-0.85Q 6.9-1.7  6.9-3.6L 6.9-3.6L 6.9-68.4Q 6.9-70.3  7.75-71.15Q 8.6-72  10.5-72L 10.5-72L 26-72Q 27.9-72  28.75-71.15Q 29.6-70.3  29.6-68.4L 29.6-68.4L 29.6-18.9L 43.3-18.9L 43.3-35.1Q 43.3-37  44.15-37.85Q 45-38.7  46.9-38.7L 46.9-38.7L 61.4-38.7Q 63.3-38.7  64.15-37.85Q 65-37  65-35.1L 65-35.1L 65-3.6Q 65-1.7  64.15-0.85Q 63.3 0  61.4 0ZM 126.39999999999998 0L 126.39999999999998 0L 79.99999999999999 0Q 78.09999999999998 0  77.24999999999999-0.85Q 76.39999999999999-1.7  76.39999999999999-3.6L 76.39999999999999-3.6L 76.39999999999999-68.4Q 76.39999999999999-70.3  77.24999999999999-71.15Q 78.09999999999998-72  79.99999999999999-72L 79.99999999999999-72L 126.39999999999998-72Q 128.29999999999998-72  129.14999999999998-71.15Q 130-70.3  130-68.4L 130-68.4L 130-56.7Q 130-54.8  129.14999999999998-53.95Q 128.29999999999998-53.1  126.39999999999998-53.1L 126.39999999999998-53.1L 98.79999999999998-53.1L 98.79999999999998-45.4L 118.29999999999998-45.4Q 120.19999999999999-45.4  121.04999999999998-44.55Q 121.89999999999998-43.7  121.89999999999998-41.8L 121.89999999999998-41.8L 121.89999999999998-31.1Q 121.89999999999998-29.2  121.04999999999998-28.35Q 120.19999999999999-27.5  118.29999999999998-27.5L 118.29999999999998-27.5L 98.79999999999998-27.5L 98.79999999999998-18.9L 126.39999999999998-18.9Q 128.29999999999998-18.9  129.14999999999998-18.05Q 130-17.2  130-15.3L 130-15.3L 130-3.6Q 130-1.7  129.14999999999998-0.85Q 128.29999999999998 0  126.39999999999998 0ZM 175.2 0L 175.2 0L 143.6 0Q 141.70000000000002 0  140.85-0.85Q 140-1.7  140-3.6L 140-3.6L 140-15.3Q 140-17.2  140.85-18.05Q 141.70000000000002-18.9  143.6-18.9L 143.6-18.9L 170.5-18.9Q 171.8-18.9  172.45-19.75Q 173.10000000000002-20.6  173.10000000000002-21.8L 173.10000000000002-21.8Q 173.10000000000002-23.5  172.45-24.3Q 171.8-25.1  170.5-25.2L 170.5-25.2L 155.5-27.3Q 148.5-28.3  144.25-31.9Q 140-35.5  140-43.9L 140-43.9L 140-54.4Q 140-62.9  145.5-67.45Q 151-72  160.70000000000002-72L 160.70000000000002-72L 188.7-72Q 190.60000000000002-72  191.45-71.15Q 192.3-70.3  192.3-68.4L 192.3-68.4L 192.3-56.5Q 192.3-54.6  191.45-53.75Q 190.60000000000002-52.9  188.7-52.9L 188.7-52.9L 165.4-52.9Q 164.1-52.9  163.4-52.05Q 162.70000000000002-51.2  162.70000000000002-49.9L 162.70000000000002-49.9Q 162.70000000000002-48.6  163.4-47.7Q 164.1-46.8  165.4-46.7L 165.4-46.7L 180.3-44.7Q 187.3-43.7  191.60000000000002-40.1Q 195.9-36.5  195.9-28.1L 195.9-28.1L 195.9-17.6Q 195.9-9.1  190.35000000000002-4.55Q 184.8 0  175.2 0Z" data-textpath="lES" data-text-anchor="middle" data-font-size="100" data-letterspacing="0" data-side="left" data-offset="0.5" data-dx="0" data-dy="0" data-xmlspace="preserve" data-href="" data-font="Bungee" data-font-src="/Content/clientfonts/bungee.woff" data-font-scale="contain" transform="translate(0,0)" data-x="0" data-y="0" fill="url('#linearGradientSkice3r62d')"></path>
        </g>
      </svg>
    </g>
  </g>
</svg>