<?xml version="1.0" encoding="UTF-8"?>
<!DOCTYPE svg PUBLIC "-//W3C//DTD SVG 1.1//EN" "http://www.w3.org/Graphics/SVG/1.1/DTD/svg11.dtd">
<!-- Creator: CorelDRAW 2019 (64-Bit) -->
<svg xmlns="http://www.w3.org/2000/svg" xml:space="preserve" width="0.717894in" height="0.684382in" version="1.1" shape-rendering="geometricPrecision" text-rendering="geometricPrecision" image-rendering="optimizeQuality" fill-rule="evenodd" clip-rule="evenodd"
viewBox="0 0 749.74 714.74"
 xmlns:xlink="http://www.w3.org/1999/xlink">
 <g id="Layer_x0020_1">
  <metadata id="CorelCorpID_0Corel-Layer"/>
  <path fill="#F85C04" d="M161.37 0.01c-0.49,0.06 -0.98,0.14 -1.46,0.25 -33.21,1.38 -59.94,28.7 -59.94,62.23l0 437.34 -99.91 0 0 12.5 -0.06 0 0 49.98c0,33.6 26.84,60.97 60.14,62.23 0.79,0.14 1.57,0.23 2.36,0.24l337.31 0.01 0 89.17 64.04 -37.48 60.96 38.26 0 -89.96 62.48 0c33.44,0 60.69,-26.61 62.18,-59.69 0.2,-0.9 0.29,-1.8 0.29,-2.7 0,-0.03 0,-0.07 0,-0.09l0 -199.91 0 -237.42 99.97 0 0 -24.99 0 -37.48c0,-33.44 -26.62,-60.69 -59.71,-62.19 -0.88,-0.2 -1.78,-0.29 -2.68,-0.29 -0.02,0 -0.07,0 -0.09,0l-524.61 0c-0.02,0 -0.06,0 -0.09,0 -0.03,0 -0.07,0 -0.09,0 -0.18,-0.01 -0.36,-0.01 -0.54,-0.01 -0.18,0 -0.36,0 -0.54,0.01l-0.01 0zm1.07 24.95l0 0.05c0.05,0 0.08,0 0.11,0 0.03,0 0.07,0 0.09,0 20.87,0 37.28,16.57 37.28,37.49l0 49.98 0.15 0 0 12.5 424.69 0 0 236.54c0,0.13 0,0.28 0,0.43 0,0.15 0,0.29 0.01,0.44l-0.01 199.93c0,20.99 -16.5,37.49 -37.48,37.49l-62.48 0 0 -58.18c2.91,0 6.52,0.01 10.45,0.25 4.26,0 8.69,0.25 12.74,0 2.02,0 3.93,-0.3 6.1,-0.73 2.18,-0.43 4.82,-0.35 8.83,-4.4 4.02,-4.06 3.93,-6.76 4.35,-8.93 0.42,-2.17 0.5,-4.08 0.59,-6.1 0.16,-4.05 0.05,-8.38 -0.09,-12.64 -0.16,-4.27 -0.35,-8.45 -0.35,-11.43 0,-0.25 0,-0.26 0,-0.48 0.18,0 0.21,-0.25 0.39,-0.25 2.56,-1.53 6.26,-3.49 10,-5.52 3.74,-2.05 7.58,-4.14 10.99,-6.34 1.7,-1.1 3.26,-2.2 4.93,-3.67 1.66,-1.47 3.96,-2.72 5.41,-8.24 1.44,-5.52 0.05,-7.76 -0.68,-9.86 -0.73,-2.1 -1.6,-3.86 -2.54,-5.66 -1.89,-3.59 -4.18,-7.27 -6.44,-10.89 -2.27,-3.61 -4.47,-7.13 -5.95,-9.71 -0.11,-0.24 -0.11,-0.23 -0.2,-0.39 0.11,-0.25 0.09,-0.29 0.2,-0.49 1.45,-2.6 3.63,-6.12 5.85,-9.76 2.22,-3.64 4.45,-7.33 6.29,-10.94 0.93,-1.8 1.78,-3.61 2.49,-5.71 0.71,-2.1 2.1,-4.35 0.59,-9.85 -1.51,-5.51 -3.84,-6.76 -5.52,-8.21 -1.68,-1.44 -3.31,-2.52 -5.02,-3.61 -3.43,-2.15 -7.26,-4.2 -11.03,-6.2 -3.77,-2 -7.48,-3.93 -10.06,-5.42 -0.19,0 -0.21,-0.29 -0.39,-0.29 -0.01,-0.25 0,-0.23 0,-0.44 -0.04,-2.99 0.09,-7.16 0.2,-11.43 0.11,-4.26 0.15,-8.59 -0.05,-12.64 -0.1,-2.02 -0.25,-3.93 -0.69,-6.1 -0.43,-2.17 -0.34,-4.83 -4.39,-8.83 -4.06,-4.01 -6.71,-3.94 -8.88,-4.35 -2.18,-0.42 -4.13,-0.58 -6.16,-0.69 -4.04,-0.25 -8.38,0.01 -12.64,0.24 -4.26,0.25 -8.45,0.34 -11.42,0.34 -0.25,0 -0.3,0.01 -0.54,0 -0.12,-0.25 -0.12,-0.23 -0.25,-0.44 -1.52,-2.56 -3.43,-6.26 -5.47,-10.01 -2.04,-3.74 -4.14,-7.53 -6.34,-10.93 -1.11,-1.7 -2.2,-3.31 -3.67,-4.98 -1.47,-1.65 -2.76,-3.94 -8.3,-5.37 -5.52,-1.45 -7.76,0 -9.85,0.64 -2.1,0.72 -3.82,1.57 -5.62,2.53 -3.59,1.88 -7.32,4.18 -10.93,6.44 -3.62,2.28 -7.08,4.48 -9.66,5.96 -0.21,0 -0.25,0.25 -0.44,0.25 -0.19,0 -0.23,-0.25 -0.43,-0.25 -2.6,-1.46 -6.13,-3.59 -9.77,-5.81 -3.63,-2.23 -7.38,-4.51 -10.98,-6.35 -1.81,-0.93 -3.56,-1.74 -5.66,-2.43 -2.1,-0.7 -4.37,-2.06 -9.86,-0.59 -5.51,1.49 -6.75,3.79 -8.2,5.46 -1.44,1.68 -2.53,3.27 -3.62,4.99 -2.16,3.42 -4.19,7.31 -6.2,11.08 -1.99,3.76 -3.92,7.42 -5.41,10 -0.12,0.25 -0.13,0.24 -0.25,0.44 -0.23,0.01 -0.29,0 -0.54,0 -2.99,0 -7.06,0.02 -11.32,-0.23 -4.26,0 -8.69,-0.25 -12.74,0 -2.02,0 -3.93,0.3 -6.1,0.72 -2.17,0.46 -4.82,0.38 -8.83,4.44 -4.01,4.06 -3.93,6.71 -4.35,8.89 -0.42,2.17 -0.51,4.13 -0.58,6.15 -0.16,4.05 -0.06,8.39 0.09,12.64 0.16,4.27 0.35,8.4 0.34,11.38 0,0.25 0.01,0.31 0,0.53 -0.17,0 -0.2,0.25 -0.39,0.25 -2.56,1.53 -6.27,3.47 -10,5.51 -3.75,2.05 -7.54,4.15 -10.94,6.35 -1.7,1.09 -3.32,2.2 -4.98,3.66 -1.66,1.48 -3.97,2.73 -5.41,8.25 -1.46,5.51 -0.05,7.77 0.68,9.86 0.73,2.1 1.6,3.86 2.54,5.66 1.88,3.59 4.17,7.22 6.44,10.83 2.26,3.62 4.47,7.19 5.95,9.77 0.11,0.25 0.09,0.24 0.2,0.44 -0.09,0.25 -0.09,0.29 -0.2,0.44 -1.46,2.6 -3.64,6.17 -5.85,9.81 -2.22,3.63 -4.45,7.32 -6.3,10.93 -0.91,1.8 -1.77,3.56 -2.48,5.67 -0.71,2.1 -2.1,4.35 -0.58,9.85 1.51,5.51 3.83,6.76 5.51,8.21 1.67,1.45 3.32,2.48 5.02,3.56 3.43,2.18 7.27,4.25 11.04,6.25 3.77,2 7.48,3.93 10.05,5.42 0.2,0 0.22,0.25 0.39,0.25 0,0.25 0,0.31 0,0.54 0.04,2.98 -0.08,7.1 -0.2,11.37 -0.1,4.26 -0.16,8.59 0.05,12.64 0.1,2.02 0.24,3.98 0.69,6.15 0.44,2.17 0.33,4.83 4.4,8.84l0.05 0c4.06,4 6.66,3.93 8.83,4.35 2.18,0.4 4.13,0.56 6.15,0.63 4.05,0.25 8.44,-0.01 12.7,-0.25 3.46,-0.25 6.49,-0.32 9.23,-0.34l0 57.44 -287.74 0c7.97,-10.48 12.89,-23.36 12.89,-37.49l0 -499.81c0,-20.99 16.5,-37.49 37.48,-37.49zm49.64 0.05l475.17 0c20.98,0 37.49,16.5 37.49,37.49l0 37.48 -85.52 0c-0.71,-0.14 -1.43,-0.23 -2.15,-0.24 -0.61,0.05 -1.24,0.13 -1.84,0.25l-410.31 -0.01 0 -37.48c0,-14.1 -4.9,-27.01 -12.84,-37.49zm-37.15 149.95l0 24.99 399.86 0 0 -24.99 -399.86 0zm0 74.97l0 24.99 399.86 0 0 -24.99 -399.86 0zm0 74.98l0 24.99 149.94 0 0 -24.99 -149.94 0zm316.1 2.83l0 0.09c1.12,1.93 2.14,3.67 3.42,6.01 1.97,3.64 4.06,7.43 6.05,10.79 0.99,1.67 1.97,3.27 3.12,4.83 1.15,1.55 1.83,3.12 5.76,5.37l0.05 0c3.93,2.22 5.64,1.94 7.57,2.14 1.93,0.25 3.71,0.28 5.67,0.3 3.89,0 8.21,-0.27 12.35,-0.39l6.93 0c0.01,2.22 0.07,4.31 0,6.98 -0.1,4.14 -0.25,8.41 -0.2,12.3 0.03,1.94 0.07,3.79 0.29,5.72 0.22,1.92 0.01,3.66 2.29,7.57 2.29,3.9 3.89,4.63 5.47,5.75 1.57,1.12 3.15,2.05 4.83,3.03 3.37,1.95 7.24,3.97 10.89,5.9 2.35,1.25 4.12,2.28 6.05,3.37 -1.1,1.92 -2.13,3.73 -3.51,6 -2.16,3.53 -4.39,7.2 -6.3,10.6 -0.95,1.7 -1.86,3.3 -2.64,5.07 -0.78,1.78 -1.83,3.19 -1.81,7.72 0.02,4.52 1.11,5.94 1.9,7.71 0.79,1.78 1.72,3.33 2.68,5.03 1.94,3.38 4.2,7.04 6.39,10.55 1.43,2.27 2.45,4.03 3.57,5.95 -1.92,1.12 -3.67,2.2 -6.01,3.47 -3.64,1.97 -7.43,4.01 -10.79,6.01 -1.67,0.99 -3.22,1.92 -4.78,3.07 -1.57,1.15 -3.18,1.82 -5.42,5.76 -2.24,3.93 -2,5.73 -2.2,7.66 -0.19,1.93 -0.24,3.77 -0.24,5.72 -0.01,3.9 0.19,8.16 0.34,12.3 0.09,2.67 0.09,4.75 0.09,6.98 -2.22,0.01 -4.27,0.01 -6.93,0 -4.14,0 -8.45,-0.32 -12.35,-0.29 -1.94,0 -3.74,0.01 -5.67,0.34 -1.92,0.25 -3.66,0.02 -7.57,2.25l-0.05 0c-3.89,2.27 -4.58,3.84 -5.71,5.41 -1.13,1.58 -2.11,3.2 -3.08,4.88 -1.95,3.37 -3.97,7.17 -5.9,10.83 -1.25,2.35 -2.22,4.13 -3.32,6.06 -1.93,-1.09 -3.77,-2.05 -6.04,-3.47 -3.54,-2.15 -7.15,-4.44 -10.55,-6.34 -1.7,-0.95 -3.35,-1.85 -5.12,-2.63 -1.77,-0.79 -3.19,-1.83 -7.71,-1.82 -4.53,0 -5.94,1.13 -7.71,1.91 -1.77,0.8 -3.39,1.67 -5.08,2.63 -3.37,1.95 -6.93,4.3 -10.45,6.49 -2.26,1.43 -4.08,2.4 -5.99,3.51 -1.13,-1.92 -2.15,-3.66 -3.42,-6 -1.98,-3.64 -4.06,-7.38 -6.05,-10.74 -1,-1.68 -1.98,-3.28 -3.12,-4.84 -1.15,-1.55 -1.83,-3.17 -5.76,-5.41 -3.94,-2.26 -5.64,-2 -7.57,-2.2 -1.94,-0.25 -3.76,-0.25 -5.72,-0.25 -3.9,-0.01 -8.21,0.25 -12.34,0.29l-6.93 0c-0.01,-2.22 -0.07,-4.23 0,-6.87 0.1,-4.15 0.24,-8.41 0.2,-12.31 -0.03,-1.95 -0.08,-3.83 -0.29,-5.75 -0.22,-1.93 -0.01,-3.67 -2.3,-7.57 -2.29,-3.91 -3.95,-4.58 -5.51,-5.72 -1.58,-1.13 -3.1,-2.1 -4.79,-3.08 -3.37,-1.94 -7.22,-3.91 -10.88,-5.85 -2.35,-1.25 -4.12,-2.3 -6.06,-3.41 1.11,-1.92 2.13,-3.73 3.52,-6.01 2.16,-3.53 4.39,-7.14 6.3,-10.54 0.95,-1.7 1.86,-3.35 2.64,-5.13 0.77,-1.78 1.83,-3.19 1.81,-7.71 -0.02,-4.53 -1.11,-5.9 -1.9,-7.67 -0.79,-1.78 -1.72,-3.38 -2.69,-5.07 -1.94,-3.38 -4.19,-6.99 -6.39,-10.5 -1.41,-2.24 -2.48,-4.04 -3.61,-5.96 1.92,-1.13 3.71,-2.19 6.05,-3.47 3.63,-1.97 7.43,-4 10.78,-6 1.67,-1 3.22,-1.97 4.78,-3.12 1.56,-1.16 3.18,-1.87 5.42,-5.81 2.24,-3.93 2,-5.64 2.19,-7.57 0.2,-1.93 0.25,-3.76 0.25,-5.71 0.01,-3.9 -0.19,-8.17 -0.34,-12.31 -0.09,-2.66 -0.08,-4.75 -0.09,-6.98 2.22,-0.01 4.27,-0.01 6.94,0 4.14,0 8.45,0.28 12.34,0.25 1.94,-0.02 3.74,0.01 5.66,-0.29 1.93,-0.25 3.72,0.01 7.62,-2.29 3.88,-2.27 4.57,-3.84 5.71,-5.42 1.13,-1.57 2.1,-3.2 3.08,-4.88 1.96,-3.38 3.97,-7.18 5.9,-10.83 1.25,-2.35 2.22,-4.13 3.32,-6.06 1.93,1.1 3.77,2.07 6.05,3.47 3.53,2.15 7.14,4.44 10.54,6.35 1.71,0.95 3.35,1.77 5.13,2.53 1.78,0.77 3.19,1.88 7.72,1.86 4.52,-0.03 5.94,-1.13 7.71,-1.91 1.76,-0.8 3.39,-1.67 5.07,-2.64 3.38,-1.94 6.94,-4.3 10.45,-6.49 2.27,-1.43 4.09,-2.4 6.01,-3.52zm-29 51.5c-6.77,0 -9.2,3.42 -10.83,5.22 -1.64,1.8 -2.64,3.38 -3.61,5.02 -1.96,3.29 -3.65,6.82 -5.27,10.34 -1.63,3.52 -3.15,6.98 -4.35,9.43 -0.07,0.24 -0.12,0.26 -0.2,0.34 -0.15,0.03 -0.13,0 -0.29,0 -2.66,0.43 -6.39,0.94 -10.2,1.46 -3.81,0.52 -7.69,1.08 -11.37,2 -1.84,0.44 -3.63,0.9 -5.81,1.95 -2.18,1.06 -6.04,2.41 -8.1,8.93 -2.05,6.53 0.33,9.93 1.51,12.06 1.19,2.12 2.37,3.57 3.62,5.02 2.48,2.9 5.3,5.59 8.1,8.25 2.8,2.66 5.58,5.21 7.51,7.13 0.12,0 0.14,0.29 0.25,0.29 -0.02,0.25 -0.02,0.24 -0.05,0.34 -0.42,2.7 -1.12,6.42 -1.81,10.25 -0.68,3.83 -1.33,7.73 -1.61,11.57 -0.14,1.92 -0.25,3.77 0.05,6.2 0.3,2.43 0.4,6.59 5.9,10.59 5.51,4 9.4,2.74 11.76,2.25 2.37,-0.47 4.12,-1.2 5.85,-1.96 3.49,-1.49 6.89,-3.33 10.26,-5.22 3.36,-1.87 6.63,-3.81 9.03,-5.07 0.14,0 0.16,0.01 0.3,-0.25 0.13,0 0.15,-0.01 0.29,0.25 2.4,1.23 5.69,3.09 9.07,4.93 3.38,1.83 6.84,3.68 10.34,5.13 1.76,0.72 3.49,1.4 5.85,1.85 2.38,0.45 6.31,1.68 11.77,-2.39 5.45,-4.07 5.48,-8.22 5.76,-10.65 0.27,-2.42 0.16,-4.29 0,-6.2 -0.33,-3.83 -1.03,-7.7 -1.76,-11.52 -0.73,-3.82 -1.5,-7.54 -1.96,-10.25 -0.03,-0.25 -0.03,-0.29 -0.05,-0.39 0.1,0 0.13,-0.25 0.24,-0.25 1.9,-1.94 4.64,-4.54 7.42,-7.23 2.78,-2.69 5.55,-5.46 8.01,-8.4 1.22,-1.47 2.4,-2.88 3.56,-5.02 1.15,-2.14 3.49,-5.59 1.36,-12.11 -2.13,-6.51 -6.06,-7.76 -8.25,-8.78 -2.19,-1.02 -3.96,-1.5 -5.81,-1.95 -3.69,-0.88 -7.56,-1.33 -11.37,-1.81 -3.82,-0.47 -7.52,-0.92 -10.2,-1.31l-0.34 0c-0.07,-0.25 -0.08,-0.25 -0.15,-0.29 -1.23,-2.43 -2.82,-5.92 -4.49,-9.43 -1.67,-3.49 -3.42,-7.03 -5.42,-10.3 -0.99,-1.62 -2,-3.15 -3.66,-4.93 -1.66,-1.78 -4.12,-5.11 -10.89,-5.07l0 -0.05zm-287.1 20.65l0 24.98 124.95 0 0 -24.98 -124.95 0zm287.35 16.15c0.71,1.47 1.4,3 2.1,4.39 0.79,1.55 1.57,3.01 2.5,4.5 0.93,1.47 1.28,2.93 4.78,5.46 3.49,2.54 5.01,2.48 6.69,2.88 1.69,0.41 3.32,0.68 5.04,0.93 1.52,0.25 3.16,0.44 4.78,0.64 -1.17,1.13 -2.43,2.27 -3.51,3.36 -1.22,1.25 -2.35,2.48 -3.47,3.81 -1.11,1.35 -2.31,2.15 -3.61,6.3 -1.3,4.15 -0.77,5.58 -0.63,7.32 0.13,1.75 0.34,3.4 0.63,5.13 0.25,1.55 0.61,3.17 0.93,4.78 -1.43,-0.77 -2.87,-1.6 -4.25,-2.29 -1.54,-0.8 -3.02,-1.49 -4.63,-2.14 -1.61,-0.65 -2.78,-1.59 -7.08,-1.57 -4.3,0.03 -5.48,0.97 -7.08,1.62 -1.6,0.67 -3.05,1.45 -4.59,2.25 -1.36,0.72 -2.78,1.54 -4.19,2.34 0.28,-1.62 0.58,-3.3 0.82,-4.84 0.27,-1.73 0.47,-3.37 0.58,-5.13 0.12,-1.75 0.67,-3.14 -0.68,-7.27 -1.35,-4.13 -2.63,-4.96 -3.76,-6.29 -1.12,-1.32 -2.27,-2.48 -3.51,-3.71 -1.1,-1.09 -2.32,-2.22 -3.52,-3.36 1.62,-0.25 3.26,-0.44 4.78,-0.69 1.72,-0.28 3.31,-0.55 4.99,-0.97 1.67,-0.42 3.17,-0.4 6.63,-2.97 3.47,-2.59 3.88,-4.03 4.79,-5.52 0.9,-1.5 1.62,-2.96 2.39,-4.54 0.68,-1.4 1.42,-2.91 2.1,-4.39zm-437.29 108.8l74.98 0 0 37.48c0,20.99 -16.51,37.49 -37.49,37.49 -20.99,0 -37.49,-16.5 -37.49,-37.49l0 -37.48zm149.95 0l0 24.99 149.94 0 0 -24.99 -149.94 0zm299.89 40.36c3.12,1.9 6.29,3.84 9.38,5.42 1.81,0.93 3.55,1.74 5.66,2.44 2.11,0.7 4.4,2.12 9.91,0.58l0.05 0 0 95.92 -35.53 -22.31 -39.49 23.14 0 -97.14c0.66,0.25 0.88,0.58 1.71,0.79 5.53,1.44 7.78,0 9.86,-0.64 2.1,-0.72 3.82,-1.6 5.62,-2.53 2.58,-1.35 5.23,-3.06 7.86,-4.68l0 46.12 24.98 0 0 -47.1z" color="#000"/>
 </g>
</svg>
