<?xml version="1.0" encoding="UTF-8"?>
<!DOCTYPE svg PUBLIC "-//W3C//DTD SVG 1.1//EN" "http://www.w3.org/Graphics/SVG/1.1/DTD/svg11.dtd">
<!-- Creator: CorelDRAW 2019 (64-Bit) -->
<svg xmlns="http://www.w3.org/2000/svg" xml:space="preserve" width="0.515602in" height="0.657173in" version="1.1" shape-rendering="geometricPrecision" text-rendering="geometricPrecision" image-rendering="optimizeQuality" fill-rule="evenodd" clip-rule="evenodd"
viewBox="0 0 500.81 638.32"
 xmlns:xlink="http://www.w3.org/1999/xlink">
 <g id="Layer_x0020_1">
  <metadata id="CorelCorpID_0Corel-Layer"/>
  <path fill="#F85C04" d="M338.01 638.31l-309.7 0c-7.64,0 -14.8,-3.17 -20,-8.36 -5.19,-5.19 -8.31,-12.1 -8.31,-20l0 -581.64c0,-7.84 3.17,-14.8 8.31,-20 5.14,-5.2 12.16,-8.31 20,-8.31 144.3,0 300.09,0 443.67,0 7.9,0 14.8,3.17 20,8.31 5.19,5.14 8.36,12.1 8.36,20l0 445.02c0.21,1.09 0.47,2.03 0.47,3.17 0,3.84 -1.77,7.22 -4.31,9.66l-146.38 148.05c-2.44,2.44 -8.16,4.21 -12.1,4.1l0 0zm-194.8 -163.47c11.43,0 21.77,4.62 29.3,12.16 7.48,7.48 12.16,17.87 12.16,29.3 0,11.43 -4.62,21.77 -12.16,29.3 -7.48,7.48 -17.87,12.1 -29.3,12.1 -11.43,0 -21.77,-4.62 -29.3,-12.1 -7.48,-7.48 -12.16,-17.87 -12.16,-29.3 0,-11.43 4.62,-21.82 12.16,-29.3 7.53,-7.53 17.87,-12.16 29.3,-12.16l0 0zm18.65 22.8c-4.78,-4.78 -11.38,-7.69 -18.65,-7.69 -7.27,0 -13.87,2.96 -18.65,7.69 -4.78,4.73 -7.69,11.38 -7.69,18.65 0,7.27 2.96,13.87 7.69,18.65 4.73,4.78 11.38,7.69 18.65,7.69 7.27,0 13.87,-2.96 18.65,-7.69 4.78,-4.73 7.69,-11.38 7.69,-18.65 0.05,-7.32 -2.91,-13.92 -7.69,-18.65l0 0zm-18.65 -57.09c20.88,0 39.79,8.47 53.5,22.18 13.72,13.71 22.18,32.62 22.18,53.5 0,20.88 -8.47,39.79 -22.18,53.45 -13.71,13.72 -32.62,22.18 -53.5,22.18 -20.88,0 -39.84,-8.47 -53.5,-22.18 -13.72,-13.71 -22.18,-32.62 -22.18,-53.5 0,-20.88 8.47,-39.84 22.18,-53.51l0.47 -0.36c13.66,-13.45 32.41,-21.76 53.04,-21.76l0 0zm42.91 32.83c-10.96,-10.96 -26.13,-17.71 -42.85,-17.71 -16.57,0 -31.58,6.65 -42.55,17.4l-0.36 0.36c-10.96,10.96 -17.76,26.13 -17.76,42.86 0,16.73 6.8,31.9 17.76,42.86 10.96,10.96 26.13,17.76 42.86,17.76 16.73,0 31.9,-6.8 42.86,-17.76 10.96,-10.96 17.76,-26.13 17.76,-42.86 0,-16.78 -6.75,-31.95 -17.71,-42.91l0 0zm-63.94 -241.13c-5.04,0 -9.09,-4.05 -9.09,-9.09 0,-5.04 4.05,-9.09 9.09,-9.09l182.43 0c5.04,0 9.09,4.05 9.09,9.09 0,5.04 -4.05,9.09 -9.09,9.09l-182.43 0 0 0zm0 135.73c-5.04,0 -9.09,-4.05 -9.09,-9.09 0,-5.04 4.05,-9.09 9.09,-9.09l251.52 0c5.04,0 9.09,4.05 9.09,9.09 0,5.04 -4.05,9.09 -9.09,9.09l-251.52 0 0 0zm0 -55.58c-5.04,0 -9.09,-4.05 -9.09,-9.09 0,-5.04 4.05,-9.09 9.09,-9.09l182.43 0c5.04,0 9.09,4.05 9.09,9.09 0,5.04 -4.05,9.09 -9.09,9.09l-182.43 0 0 0zm289.85 -43.79l-323.26 0 0 124.3 323.26 0 0 -124.3 0 0zm-323.26 -18.18l323.26 0 0 -55.22 -323.26 0 0 55.22 0 0zm-9.09 -73.4l341.44 0c5.04,0 9.09,4.05 9.09,9.09l0 73.4 0 142.54c0,5.04 -4.05,9.09 -9.09,9.09l-341.44 0c-5.04,0 -9.09,-4.1 -9.09,-9.09l0 -142.54 0 -73.4c0,-4.99 4.05,-9.09 9.09,-9.09l0 0zm247.57 435.83l0 -110.8c0,-10.6 4.31,-20.26 11.27,-27.22 6.96,-6.96 16.62,-11.27 27.22,-11.27l108.77 0 0 -435.3c0,-0.68 -0.21,-1.56 -0.93,-2.03 -0.47,-0.47 -1.14,-0.93 -2.03,-0.93 -114.23,0 -332.29,0 -443.4,0 -0.68,0 -1.61,0.21 -2.03,0.93 -0.57,0.47 -1.04,1.35 -1.04,2.03l0 581.69c0,0.93 0.21,1.56 0.93,2.03 0.47,0.47 1.14,0.93 2.03,0.93l298.89 0 0.31 -0.05 0 0 0 0zm25.4 -110.8l0 92.83 104.51 -105.87 -91.47 0c-3.58,0 -6.75,1.61 -9.19,3.84 -2.29,2.23 -3.85,5.61 -3.85,9.19l0 0 0 0z"/>
  <path fill="#F85C04" fill-rule="nonzero" d="M142.95 113.96c2.92,0.89 5.22,2.52 6.91,4.9 1.68,2.37 2.52,5.15 2.52,8.31 0,4.6 -1.63,8.37 -4.9,11.28 -3.37,2.92 -7.84,4.38 -13.44,4.38l-26.65 0 0 -52.86 26.5 0c4.95,0 8.94,1.21 11.95,3.64 3.02,2.42 4.53,5.64 4.53,9.65 0,5.45 -2.48,9.01 -7.43,10.69zm-11.21 -13.07l-10.47 0 0 9.35 10.24 0c3.76,0 5.64,-1.58 5.64,-4.75 0,-1.39 -0.47,-2.5 -1.41,-3.34 -0.94,-0.84 -2.28,-1.26 -4.01,-1.26zm-10.47 30.66l10.99 0c2.23,0 3.93,-0.52 5.12,-1.56 1.19,-1.04 1.78,-2.45 1.78,-4.23 0,-1.78 -0.57,-3.18 -1.71,-4.19 -1.14,-1.01 -2.75,-1.52 -4.83,-1.52l-11.36 0 0 11.51z"/>
  <polygon id="1" fill="#F85C04" fill-rule="nonzero" points="174.13,142.84 160.25,142.84 160.25,89.98 174.13,89.98 "/>
  <polygon id="2" fill="#F85C04" fill-rule="nonzero" points="197.3,89.98 197.3,130.82 221.95,130.82 221.95,142.84 183.41,142.84 183.41,89.98 "/>
  <polygon id="3" fill="#F85C04" fill-rule="nonzero" points="241.4,89.98 241.4,130.82 266.05,130.82 266.05,142.84 227.51,142.84 227.51,89.98 "/>
  <polygon id="4" fill="#F85C04" fill-rule="nonzero" points="285.5,142.84 271.62,142.84 271.62,89.98 285.5,89.98 "/>
  <polygon id="5" fill="#F85C04" fill-rule="nonzero" points="327.08,120.72 327.08,89.98 340.74,89.98 340.74,142.84 326.86,142.84 308.52,112.25 308.52,142.84 294.78,142.84 294.78,89.98 308.52,89.98 "/>
  <path id="6" fill="#F85C04" fill-rule="nonzero" d="M376.24 113.96l22.27 0 0 28.88 -9.13 0 -1.19 -5.57c-1.44,2.13 -3.48,3.84 -6.13,5.12 -2.65,1.28 -5.71,1.93 -9.17,1.93 -7.03,0 -12.87,-2.55 -17.52,-7.65 -4.65,-5 -6.98,-11.71 -6.98,-20.12 0,-8.47 2.37,-15.22 7.13,-20.27 4.75,-5 10.89,-7.5 18.41,-7.5 6.29,0 11.5,1.56 15.63,4.68 4.13,3.12 6.74,7.4 7.83,12.84l-13.37 0.89c-0.64,-2.28 -1.8,-4.02 -3.49,-5.24 -1.68,-1.21 -3.76,-1.82 -6.24,-1.82 -3.81,0 -6.77,1.43 -8.87,4.31 -2.11,2.87 -3.16,6.88 -3.16,12.03 0,5.4 1.08,9.53 3.23,12.4 2.15,2.87 5.28,4.31 9.39,4.31 2.87,0 5.27,-0.74 7.2,-2.23 1.93,-1.48 3.19,-3.69 3.79,-6.61l-9.65 0 0 -10.39z"/>
 </g>
</svg>
