<svg width="15" height="15" viewBox="0 0 15 15" fill="none" xmlns="http://www.w3.org/2000/svg">
<path d="M9.78104 1.25C10.0464 1.24938 10.2562 1.45552 10.2568 1.73039L10.2574 2.1989C11.9791 2.33384 13.1164 3.507 13.1182 5.3061L13.125 10.5722C13.1275 12.5337 11.8952 13.7406 9.91988 13.7437L5.09493 13.75C3.132 13.7525 1.88426 12.5169 1.8818 10.5497L1.875 5.34545C1.87254 3.53448 2.96971 2.36444 4.69136 2.2064L4.69074 1.73788C4.69013 1.46302 4.89376 1.25625 5.16528 1.25625C5.43679 1.25563 5.64043 1.46177 5.64105 1.73663L5.64166 2.17392L9.30712 2.16892L9.3065 1.73164C9.30588 1.45677 9.50952 1.25063 9.78104 1.25ZM10.0328 10.1199H10.0266C9.74278 10.1268 9.51508 10.3648 9.52125 10.6522C9.52186 10.9395 9.7508 11.1763 10.0347 11.1825C10.3241 11.1819 10.5586 10.9439 10.5579 10.6503C10.5579 10.3567 10.3228 10.1199 10.0328 10.1199ZM4.94807 10.1206C4.66421 10.1331 4.44206 10.3711 4.44268 10.6584C4.45564 10.9458 4.69013 11.1707 4.97398 11.1575C5.25229 11.145 5.47382 10.907 5.46086 10.6197C5.45469 10.3386 5.22575 10.1199 4.94807 10.1206ZM7.49044 10.1174C7.20658 10.1306 6.98505 10.3679 6.98505 10.6553C6.99801 10.9426 7.2325 11.1669 7.51635 11.1544C7.79404 11.1413 8.01619 10.9039 8.00323 10.6159C7.99706 10.3355 7.76812 10.1168 7.49044 10.1174ZM4.94498 7.87169C4.66112 7.88418 4.43959 8.12219 4.44021 8.40954C4.45255 8.6969 4.68766 8.92179 4.97152 8.90867C5.2492 8.89617 5.47073 8.65817 5.45777 8.37081C5.4516 8.0897 5.22328 7.87106 4.94498 7.87169ZM7.48797 7.84982C7.20411 7.86232 6.98196 8.10032 6.98258 8.38768C6.99492 8.67503 7.23003 8.8993 7.51389 8.8868C7.79157 8.87368 8.0131 8.6363 8.00076 8.34895C7.99397 8.06784 7.76565 7.8492 7.48797 7.84982ZM10.0303 7.85294C9.74648 7.85919 9.52433 8.09033 9.52495 8.37768V8.38455C9.53112 8.67191 9.76561 8.88993 10.0501 8.88368C10.3278 8.87681 10.5493 8.6388 10.5431 8.35145C10.5302 8.07658 10.3074 7.85232 10.0303 7.85294ZM9.30835 3.13094L5.6429 3.13593L5.64352 3.64131C5.64352 3.91055 5.4405 4.12294 5.16898 4.12294C4.89747 4.12356 4.69321 3.91179 4.69321 3.64255L4.6926 3.16155C3.48929 3.28211 2.82346 3.98926 2.82531 5.3442L2.82593 5.53848L12.1685 5.52599V5.30735C12.142 3.96427 11.4681 3.25962 10.2587 3.15467L10.2593 3.63568C10.2593 3.9043 10.0501 4.11732 9.78474 4.11732C9.51322 4.11794 9.30897 3.90555 9.30897 3.63693L9.30835 3.13094Z" fill="#6F6F6F"/>
</svg>
