<svg width="18" height="17" viewBox="0 0 18 17" fill="none" xmlns="http://www.w3.org/2000/svg">
<path fill-rule="evenodd" clip-rule="evenodd" d="M4.6875 9.20768C7.73925 9.20768 7.875 10.1852 7.875 12.2181C7.875 13.2367 7.875 13.9613 7.422 14.4918C6.90075 15.1031 5.952 15.2285 4.6875 15.2285C3.423 15.2285 2.47425 15.1031 1.953 14.4918C1.5 13.9613 1.5 13.2374 1.5 12.2358L2.0625 12.2181H1.5C1.5 10.1852 1.63575 9.20768 4.6875 9.20768ZM12.9375 9.20768C15.9893 9.20768 16.125 10.1852 16.125 12.2181C16.125 13.2367 16.125 13.9613 15.672 14.4918C15.1508 15.1031 14.202 15.2285 12.9375 15.2285C11.673 15.2285 10.7242 15.1031 10.203 14.4918C9.75 13.9613 9.75 13.2374 9.75 12.2358L10.3125 12.2181H9.75C9.75 10.1852 9.88575 9.20768 12.9375 9.20768ZM4.84212 10.2705L4.6875 10.2702C2.73077 10.2702 2.63042 10.4028 2.62528 11.9539L2.62559 12.5582C2.62915 13.1752 2.65404 13.6208 2.82825 13.826C3.027 14.0583 3.61725 14.166 4.6875 14.166C5.75775 14.166 6.348 14.0576 6.54675 13.8253C6.75 13.5866 6.75 13.0199 6.75 12.2351C6.75 10.4641 6.75 10.2788 4.84212 10.2705ZM13.0921 10.2705L12.9375 10.2702C10.9808 10.2702 10.8804 10.4028 10.8753 11.9539L10.8756 12.5582C10.8791 13.1752 10.904 13.6208 11.0782 13.826C11.277 14.0583 11.8673 14.166 12.9375 14.166C14.0077 14.166 14.598 14.0576 14.7968 13.8253C15 13.5866 15 13.0199 15 12.2351C15 10.4641 15 10.2788 13.0921 10.2705ZM4.6875 1.41602C7.73925 1.41602 7.875 2.39352 7.875 4.42643C7.875 5.44502 7.875 6.16964 7.422 6.70018C6.90075 7.31147 5.952 7.43685 4.6875 7.43685C3.423 7.43685 2.47425 7.31147 1.953 6.70018C1.5 6.16964 1.5 5.44572 1.5 4.44414L2.0625 4.42643H1.5C1.5 2.39352 1.63575 1.41602 4.6875 1.41602ZM12.9375 1.41602C15.9893 1.41602 16.125 2.39352 16.125 4.42643C16.125 5.44502 16.125 6.16964 15.672 6.70018C15.1508 7.31147 14.202 7.43685 12.9375 7.43685C11.673 7.43685 10.7242 7.31147 10.203 6.70018C9.75 6.16964 9.75 5.44572 9.75 4.44414L10.3125 4.42643H9.75C9.75 2.39352 9.88575 1.41602 12.9375 1.41602ZM4.84212 2.47883L4.6875 2.47852C2.73077 2.47852 2.63042 2.61113 2.62528 4.16226L2.62559 4.76656C2.62915 5.38349 2.65404 5.82913 2.82825 6.03435C3.027 6.26668 3.61725 6.37435 4.6875 6.37435C5.75775 6.37435 6.348 6.26597 6.54675 6.03364C6.75 5.79493 6.75 5.22827 6.75 4.44343C6.75 2.67245 6.75 2.48717 4.84212 2.47883ZM13.0921 2.47883L12.9375 2.47852C10.9808 2.47852 10.8804 2.61113 10.8753 4.16226L10.8756 4.76656C10.8791 5.38349 10.904 5.82913 11.0782 6.03435C11.277 6.26668 11.8673 6.37435 12.9375 6.37435C14.0077 6.37435 14.598 6.26597 14.7968 6.03364C15 5.79493 15 5.22827 15 4.44343C15 2.67245 15 2.48717 13.0921 2.47883Z" fill="#2B89DF"/>
</svg>
