<?xml version="1.0" encoding="UTF-8"?>
<!DOCTYPE svg PUBLIC "-//W3C//DTD SVG 1.1//EN" "http://www.w3.org/Graphics/SVG/1.1/DTD/svg11.dtd">
<!-- Creator: CorelDRAW 2019 (64-Bit) -->
<svg xmlns="http://www.w3.org/2000/svg" xml:space="preserve" width="0.692165in" height="0.698067in" version="1.1" shape-rendering="geometricPrecision" text-rendering="geometricPrecision" image-rendering="optimizeQuality" fill-rule="evenodd" clip-rule="evenodd"
viewBox="0 0 3505.69 3535.58"
 xmlns:xlink="http://www.w3.org/1999/xlink">
 <g id="Layer_x0020_1">
  <metadata id="CorelCorpID_0Corel-Layer"/>
  <rect fill="none" stroke="#F85C04" stroke-width="140.7" stroke-miterlimit="2.61313" x="1145.1" y="70.35" width="2290.23" height="3311.16" rx="26.49" ry="26.49"/>
  <rect fill="none" stroke="#F85C04" stroke-width="70.35" stroke-miterlimit="2.61313" x="1476.24" y="392.26" width="1618.79" height="505.87" rx="26.49" ry="26.49"/>
  <rect fill="none" stroke="#F85C04" stroke-width="70.35" stroke-miterlimit="2.61313" x="2736.31" y="1151.07" width="372.51" height="321.93" rx="26.49" ry="26.49"/>
  <rect fill="none" stroke="#F85C04" stroke-width="70.35" stroke-miterlimit="2.61313" x="2120.07" y="1160.27" width="358.71" height="317.33" rx="26.49" ry="26.49"/>
  <rect fill="none" stroke="#F85C04" stroke-width="70.35" stroke-miterlimit="2.61313" x="1476.22" y="1155.67" width="363.31" height="344.91" rx="26.49" ry="26.49"/>
  <rect fill="none" stroke="#F85C04" stroke-width="70.35" stroke-miterlimit="2.61313" x="2120.07" y="1675.34" width="358.71" height="303.53" rx="26.49" ry="26.49"/>
  <rect fill="none" stroke="#F85C04" stroke-width="70.35" stroke-miterlimit="2.61313" x="2747.82" y="1675.34" width="358.71" height="303.53" rx="26.49" ry="26.49"/>
  <rect fill="none" stroke="#F85C04" stroke-width="70.35" stroke-miterlimit="2.61313" x="2120.07" y="2197.31" width="358.71" height="303.53" rx="26.49" ry="26.49"/>
  <rect fill="none" stroke="#F85C04" stroke-width="70.35" stroke-miterlimit="2.61313" x="2120.07" y="2723.87" width="358.71" height="303.53" rx="26.49" ry="26.49"/>
  <rect fill="none" stroke="#F85C04" stroke-width="70.35" stroke-miterlimit="2.61313" x="2747.82" y="2199.6" width="358.71" height="841.6" rx="26.49" ry="73.45"/>
  <circle fill="white" cx="1129.02" cy="2406.55" r="1129.02"/>
  <g id="_2776423030000">
   <circle fill="white" stroke="#F85C04" stroke-width="140.7" stroke-miterlimit="2.61313" cx="1129.02" cy="2406.56" r="931.26"/>
   <circle fill="none" stroke="#F85C04" stroke-width="140.7" stroke-miterlimit="2.61313" cx="850.81" cy="2174.3" r="143.71"/>
   <circle fill="none" stroke="#F85C04" stroke-width="140.7" stroke-miterlimit="2.61313" cx="1352.08" cy="2675.57" r="143.71"/>
   <line fill="none" stroke="#F85C04" stroke-width="140.7" stroke-miterlimit="2.61313" x1="1639.51" y1="1902.96" x2="613.96" y2= "2905.51" />
  </g>
 </g>
</svg>
