<svg width="22" height="22" viewBox="0 0 22 22" fill="none" xmlns="http://www.w3.org/2000/svg">
<path d="M19.9931 11.747C20.0591 11.7841 20.0723 11.8628 20.0749 11.8928L20.0756 11.9048L20.0022 16.6389C20.0022 18.5274 18.539 20.0674 16.6966 20.1618L16.5172 20.1663H5.47497C3.60919 20.1663 2.0877 18.6854 1.99443 16.8206L1.9899 16.6389L1.9257 11.9048C1.9257 11.9048 1.9257 11.7934 2.00824 11.747C2.08161 11.7006 2.17332 11.7563 2.18249 11.7655C4.03508 13.0094 6.2637 13.8356 8.60237 14.179C8.93253 14.2254 9.2627 14.0119 9.35441 13.6778C9.54357 12.9642 10.1277 12.479 10.8423 12.4211L10.9869 12.4153H11.0144C11.794 12.4153 12.4451 12.9166 12.6469 13.6778C12.7386 14.0119 13.0688 14.2254 13.3989 14.179C15.7376 13.8356 17.9662 13.0094 19.8188 11.7655C19.8188 11.7655 19.8372 11.7563 19.8555 11.747C19.8922 11.7284 19.9472 11.7191 19.9931 11.747ZM10.9961 13.7427C10.6514 13.7427 10.3606 14.0079 10.3146 14.3453L10.3082 14.4389V15.6364C10.3082 16.0263 10.62 16.3326 10.9961 16.3326C11.3492 16.3326 11.6329 16.0752 11.6777 15.732L11.6839 15.6364V14.4389C11.6839 14.0584 11.3813 13.7427 10.9961 13.7427ZM12.1792 1.83301C13.5548 1.83301 14.6829 2.88195 14.8572 4.22793H16.6731C18.599 4.22793 20.1673 5.81527 20.1673 7.76462C20.1673 7.76462 20.1123 8.58985 20.0939 9.73904C20.0921 9.83001 20.0481 9.91913 19.9756 9.97297C19.5345 10.2988 19.131 10.568 19.0943 10.5865C17.5719 11.6076 15.8027 12.3261 13.918 12.6835C13.7951 12.7076 13.6741 12.6436 13.6117 12.5341C13.0834 11.6188 12.0966 11.0228 10.9961 11.0228C9.90285 11.0228 8.90685 11.6123 8.363 12.5285C8.29972 12.6362 8.18049 12.6984 8.05851 12.6751C6.18941 12.3168 4.42028 11.5993 2.90702 10.5958L2.02658 9.98318C1.95321 9.93676 1.90735 9.85322 1.90735 9.76039C1.87984 9.28698 1.83398 7.76462 1.83398 7.76462C1.83398 5.81527 3.40227 4.22793 5.32823 4.22793H7.13497C7.30922 2.88195 8.43729 1.83301 9.81297 1.83301H12.1792ZM12.1792 3.22541H9.81297C9.1985 3.22541 8.67574 3.65241 8.529 4.22793H13.4631C13.3164 3.65241 12.7936 3.22541 12.1792 3.22541Z" fill="#18B49C"/>
</svg>
