<svg width="20" height="20" viewBox="0 0 20 20" fill="none" xmlns="http://www.w3.org/2000/svg">
<path d="M15.7826 7.24696C15.9487 7.24696 16.0994 7.31946 16.2186 7.44196C16.3296 7.57279 16.3855 7.73529 16.3693 7.90695C16.3693 7.96362 15.9252 13.5802 15.6715 15.9444C15.5127 17.3952 14.5774 18.276 13.1745 18.3002C12.0958 18.3244 11.0414 18.3327 10.0032 18.3327C8.90093 18.3327 7.82302 18.3244 6.77672 18.3002C5.42082 18.2677 4.48474 17.371 4.33399 15.9444C4.07302 13.5719 3.63699 7.96362 3.62889 7.90695C3.62079 7.73529 3.6759 7.57279 3.78774 7.44196C3.89796 7.31946 4.05681 7.24696 4.22377 7.24696H15.7826ZM11.7206 1.66602C12.4573 1.66602 13.1154 2.18018 13.3059 2.9135L13.442 3.52183C13.5522 4.01766 13.9818 4.36849 14.4762 4.36849H16.9059C17.2301 4.36849 17.5 4.63765 17.5 4.98015V5.29681C17.5 5.63098 17.2301 5.90847 16.9059 5.90847H3.09488C2.76988 5.90847 2.5 5.63098 2.5 5.29681V4.98015C2.5 4.63765 2.76988 4.36849 3.09488 4.36849H5.52464C6.01821 4.36849 6.44775 4.01766 6.55879 3.52266L6.68603 2.95434C6.88378 2.18018 7.53458 1.66602 8.27939 1.66602H11.7206Z" fill="#18B49C"/>
</svg>
