<svg width="22" height="21" viewBox="0 0 22 21" fill="none" xmlns="http://www.w3.org/2000/svg">
<path d="M17.7541 16.1839C18.2285 16.1839 18.6144 16.5748 18.6144 17.0554C18.6144 17.5369 18.2285 17.9269 17.7541 17.9269H12.8912C12.4168 17.9269 12.0309 17.5369 12.0309 17.0554C12.0309 16.5748 12.4168 16.1839 12.8912 16.1839H17.7541ZM14.3817 3.193L15.6379 4.19086C16.153 4.59367 16.4964 5.12465 16.6139 5.68309C16.7494 6.29737 16.6048 6.90067 16.1982 7.42249L8.71546 17.0991C8.37205 17.5385 7.86598 17.7857 7.32375 17.7948L4.34151 17.8314C4.17884 17.8314 4.04328 17.7216 4.00714 17.566L3.32935 14.6273C3.21187 14.0871 3.32935 13.5287 3.67276 13.0984L8.97754 6.23237C9.06791 6.12252 9.23058 6.10512 9.33902 6.1866L11.5712 7.96262C11.7158 8.08163 11.9146 8.14572 12.1224 8.11825C12.5653 8.06332 12.8635 7.66051 12.8183 7.23024C12.7912 7.01053 12.6827 6.82743 12.5382 6.69011C12.493 6.65349 10.3693 4.95071 10.3693 4.95071C10.2337 4.84085 10.2066 4.63945 10.315 4.50304L11.1555 3.41271C11.9327 2.41484 13.2882 2.3233 14.3817 3.193Z" fill="#E86124"/>
</svg>
