<svg width="45" height="43" viewBox="0 0 45 43" fill="none" xmlns="http://www.w3.org/2000/svg">
<path d="M0 37.5377V4.18C0 3.52593 0.153494 2.88098 0.448138 2.29702C1.15888 0.8884 2.60222 0 4.18 0H12.6776C14.8517 0 16.9378 0.858563 18.4821 2.38889C20.0264 3.91922 22.1126 4.77778 24.2867 4.77778H36.8065C38.9667 4.77778 41.0394 5.63082 42.5738 7.1513C44.1265 8.68997 45 10.7853 45 12.9712V37.5377C45 38.995 44.4177 40.3919 43.3825 41.4176C42.3596 42.4313 40.9778 43 39.5377 43H5.46231C4.02222 43 2.6404 42.4313 1.61748 41.4176C0.582333 40.3919 0 38.995 0 37.5377Z" fill="#078DEE"/>
</svg>
