<svg width="17" height="17" viewBox="0 0 17 17" fill="none" xmlns="http://www.w3.org/2000/svg">
<path d="M11.5691 1.41602C13.9699 1.41602 15.5827 3.10051 15.5827 5.60703V11.3917C15.5827 13.8982 13.9699 15.5827 11.5684 15.5827H5.42956C3.02882 15.5827 1.41602 13.8982 1.41602 11.3917V5.60703C1.41602 3.10051 3.02882 1.41602 5.42956 1.41602H11.5691ZM12.3503 8.88897C11.591 8.41529 11.0048 9.08049 10.8466 9.29321C10.6942 9.49862 10.5631 9.72523 10.425 9.95183C10.0873 10.511 9.70057 11.1558 9.03103 11.5308C8.05805 12.0695 7.31941 11.5732 6.78805 11.2121C6.58861 11.0776 6.39487 10.9504 6.20184 10.8656C5.72603 10.6602 5.29795 10.8941 4.66259 11.7011C4.32924 12.1229 3.99874 12.541 3.66397 12.9577C3.46382 13.207 3.51154 13.5915 3.7815 13.7581C4.21243 14.0235 4.73809 14.166 5.33214 14.166H11.3018C11.6387 14.166 11.9763 14.12 12.2983 14.0147C13.0234 13.7779 13.5989 13.2355 13.8995 12.5191C14.1531 11.9167 14.2763 11.1858 14.0391 10.5776C13.96 10.3758 13.8418 10.1879 13.6758 10.0227C13.2406 9.59072 12.8339 9.18721 12.3503 8.88897ZM6.01937 4.24935C5.04283 4.24935 4.24935 5.04391 4.24935 6.02018C4.24935 6.99646 5.04283 7.79102 6.01937 7.79102C6.9952 7.79102 7.7894 6.99646 7.7894 6.02018C7.7894 5.04391 6.9952 4.24935 6.01937 4.24935Z" fill="#717171"/>
</svg>
