<svg width="22" height="22" viewBox="0 0 22 22" fill="none" xmlns="http://www.w3.org/2000/svg">
<path d="M11.6568 1.83301C12.35 1.83301 12.9777 2.21801 13.3243 2.78634C13.4929 3.06134 13.6053 3.40051 13.5772 3.75801C13.5585 4.03301 13.6428 4.30801 13.7927 4.56467C14.2705 5.34384 15.329 5.63717 16.1534 5.19717C17.0808 4.66551 18.2518 4.98634 18.7858 5.89384L19.4135 6.97551C19.9568 7.88301 19.657 9.04717 18.7202 9.56967C17.924 10.0372 17.6429 11.073 18.1207 11.8613C18.2706 12.1088 18.4392 12.3197 18.7015 12.448C19.0294 12.6222 19.2823 12.8972 19.4603 13.1722C19.8069 13.7405 19.7788 14.4372 19.4416 15.0513L18.7858 16.1513C18.4392 16.738 17.7928 17.1047 17.1277 17.1047C16.7998 17.1047 16.4345 17.013 16.1347 16.8297C15.8911 16.6738 15.6101 16.6188 15.3103 16.6188C14.3829 16.6188 13.6053 17.3797 13.5772 18.2872C13.5772 19.3413 12.7154 20.1663 11.6381 20.1663H10.364C9.27735 20.1663 8.4155 19.3413 8.4155 18.2872C8.39676 17.3797 7.61922 16.6188 6.6918 16.6188C6.38265 16.6188 6.10162 16.6738 5.86742 16.8297C5.56764 17.013 5.19293 17.1047 4.87442 17.1047C4.19992 17.1047 3.55354 16.738 3.20692 16.1513L2.56053 15.0513C2.21392 14.4555 2.19518 13.7405 2.5418 13.1722C2.69168 12.8972 2.97272 12.6222 3.29123 12.448C3.55354 12.3197 3.72216 12.1088 3.88141 11.8613C4.34981 11.073 4.06877 10.0372 3.2725 9.56967C2.34507 9.04717 2.0453 7.88301 2.57927 6.97551L3.20692 5.89384C3.75026 4.98634 4.91189 4.66551 5.84868 5.19717C6.66369 5.63717 7.72227 5.34384 8.20004 4.56467C8.34992 4.30801 8.43423 4.03301 8.4155 3.75801C8.39676 3.40051 8.49981 3.06134 8.6778 2.78634C9.02441 2.21801 9.65207 1.85134 10.3359 1.83301H11.6568ZM11.0104 8.41467C9.53965 8.41467 8.34992 9.56967 8.34992 11.0088C8.34992 12.448 9.53965 13.5938 11.0104 13.5938C12.4812 13.5938 13.6428 12.448 13.6428 11.0088C13.6428 9.56967 12.4812 8.41467 11.0104 8.41467Z" fill="#18B49C"/>
</svg>
