<?xml version="1.0" encoding="UTF-8"?>
<!DOCTYPE svg PUBLIC "-//W3C//DTD SVG 1.1//EN" "http://www.w3.org/Graphics/SVG/1.1/DTD/svg11.dtd">
<!-- Creator: CorelDRAW 2019 (64-Bit) -->
<svg xmlns="http://www.w3.org/2000/svg" xml:space="preserve" width="0.557886in" height="0.559543in" version="1.1" shape-rendering="geometricPrecision" text-rendering="geometricPrecision" image-rendering="optimizeQuality" fill-rule="evenodd" clip-rule="evenodd"
viewBox="0 0 15874.32 15921.48"
 xmlns:xlink="http://www.w3.org/1999/xlink">
 <g id="Layer_x0020_1">
  <metadata id="CorelCorpID_0Corel-Layer"/>
  <g id="_2776423245984">
   <path fill="none" stroke="#F85C04" stroke-width="395.23" stroke-miterlimit="2.61313" d="M1252.33 11156.6c-270.65,-157.84 -750.01,-513.08 -953,-735.89 -202.99,-222.71 -129.73,-312.89 470.84,-1144.67 600.57,-831.79 1728.44,-2405.07 2275.35,-3239.66 547.02,-834.48 513.19,-930.37 484.96,-1051.69 -28.12,-121.21 -50.75,-267.85 39.54,-439.7 90.18,-172.07 293.17,-369.46 473.53,-634.51 180.47,-264.94 338.43,-597.77 383.57,-921.97 45.03,-324.31 -22.63,-640 -166.36,-907.85 -143.84,-267.85 -363.75,-487.76 -668.34,-679.43 -304.37,-191.79 -693.55,-355.34 -1130.56,-423.01 -437.01,-67.66 -921.97,-39.43 -1178.51,-64.86 -256.65,-25.43 -284.77,-104.3 -276.37,-169.16 8.51,-64.86 53.55,-115.61 208.7,-191.79 155.04,-76.07 420.09,-177.56 806.36,-253.74 386.26,-76.07 893.74,-126.81 1398.41,-87.38 504.79,39.43 1006.66,169.16 1587.4,380.66 580.85,211.5 1240.57,504.67 1683.18,758.41 442.72,253.74 668.34,468.04 820.59,688.06 152.24,219.91 231.22,445.41 363.75,648.4 132.53,202.99 318.6,383.46 586.45,507.47 267.85,124.12 617.48,191.79 803.45,276.37 186.19,84.58 208.7,186.07 205.9,284.77 -2.8,98.69 -31.03,194.59 -267.85,527.3 -236.82,332.6 -682.35,902.14 -941.68,1175.71 -259.34,273.45 -332.72,250.94 -425.81,180.47 -92.98,-70.58 -205.79,-188.99 -338.32,-290.48 -132.41,-101.49 -284.77,-186.07 -548.36,-234.02 -263.71,-47.95 -638.66,-59.37 -1005.2,177.56 -366.55,236.82 -724.58,721.78 -1388.55,1677.69 -663.97,955.8 -1634,2382.55 -2169.71,3172 -535.7,789.44 -637.09,941.68 -718.87,1037.47 -81.78,95.89 -143.84,135.44 -414.49,-22.52z"/>
   <rect fill="#F85C04" x="4844.39" y="9120.89" width="4872.08" height="2740.56" rx="194.88" ry="194.88"/>
   <rect fill="#F85C04" x="10934.45" y="9137.88" width="4939.83" height="2723.61" rx="194.88" ry="194.88"/>
   <rect fill="#F85C04" x="1782.42" y="13164.1" width="4652.18" height="2757.44" rx="194.88" ry="194.88"/>
   <rect fill="#F85C04" x="7517.28" y="13045.67" width="5007.42" height="2825.19" rx="194.88" ry="194.88"/>
   <rect fill="none" stroke="#F85C04" stroke-width="395.23" stroke-miterlimit="2.61313" transform="matrix(0.480424 0.34549 -0.34549 0.480424 10127.2 3882.97)" width="1333.77" height="5211.75" rx="284.54" ry="284.54"/>
  </g>
 </g>
</svg>
