<?xml version="1.0" encoding="UTF-8"?>
<!DOCTYPE svg PUBLIC "-//W3C//DTD SVG 1.1//EN" "http://www.w3.org/Graphics/SVG/1.1/DTD/svg11.dtd">
<!-- Creator: CorelDRAW 2019 (64-Bit) -->
<svg xmlns="http://www.w3.org/2000/svg" xml:space="preserve" width="0.920067in" height="0.58722in" version="1.1" shape-rendering="geometricPrecision" text-rendering="geometricPrecision" image-rendering="optimizeQuality" fill-rule="evenodd" clip-rule="evenodd"
viewBox="0 0 892.74 569.78"
 xmlns:xlink="http://www.w3.org/1999/xlink">
 <g id="Layer_x0020_1">
  <metadata id="CorelCorpID_0Corel-Layer"/>
  <g id="_2776419855872">
   <path fill="#F85C04" d="M21.24 379.4c-1.4,-3.85 -4.21,-8.24 -5.87,-13.68 -1.67,-5.43 -2.19,-11.92 -1.41,-18.41 0.79,-6.49 2.89,-12.98 5.17,-17.01 2.28,-4.03 4.74,-5.61 53.49,-6.4 48.75,-0.79 143.8,-0.79 192.03,-0.44 48.22,0.35 49.63,1.05 51.47,3.24 1.84,2.19 4.12,5.88 5.79,10.17 1.67,4.3 2.72,9.21 2.72,14.91 0,5.7 -1.05,12.19 -2.54,16.84 -1.49,4.65 -3.42,7.45 -4.65,9.82 -1.23,2.37 -1.76,4.3 -3.33,27.27 -1.58,22.97 -4.21,66.99 -5.61,91.63 -1.4,24.64 -1.58,29.9 -2.28,34.28 -0.7,4.39 -1.93,7.9 -3.68,11.57 -1.75,3.69 -4.03,7.54 -7.45,11.05 -3.42,3.51 -7.98,6.66 -12.01,8.42 -4.03,1.75 -7.54,2.1 -34.02,2.46 -26.48,0.35 -75.94,0.7 -110.13,1.05 -34.2,0.35 -53.14,0.7 -64.36,0.35 -11.22,-0.35 -14.73,-1.4 -19.02,-3.59 -4.3,-2.19 -9.39,-5.52 -13.42,-9.21 -4.03,-3.68 -7.01,-7.72 -8.85,-13.42 -1.84,-5.7 -2.54,-13.06 -3.95,-35.51 -1.4,-22.45 -3.51,-59.98 -4.73,-81.64 -1.23,-21.66 -1.58,-27.44 -1.75,-32 -0.18,-4.56 -0.18,-7.89 -1.58,-11.75z"/>
   <path fill="white" d="M51.84 377.39c-1.14,-3.95 -3.59,-7.28 -5,-10.52 -1.41,-3.24 -1.76,-6.4 -1.49,-9.56 0.26,-3.16 1.14,-6.31 2.46,-8.94 1.31,-2.63 3.07,-4.74 4.91,-5.88 1.84,-1.14 3.77,-1.31 14.12,-1.4 10.35,-0.09 29.11,-0.09 38.67,0 9.55,0.09 9.91,0.26 10.09,16.13 0.17,15.87 0.17,47.44 0.17,82.33 0,34.9 0,73.13 -0.08,92.34 -0.09,19.2 -0.27,19.38 -5.52,19.2 -5.26,-0.18 -15.61,-0.7 -22.54,-1.31 -6.93,-0.62 -10.43,-1.31 -13.68,-3.16 -3.25,-1.84 -6.23,-4.82 -8.77,-7.98 -2.54,-3.16 -4.65,-6.49 -5.7,-10.87 -1.05,-4.38 -1.05,-9.82 -2.02,-32.88 -0.96,-23.06 -2.89,-63.75 -3.77,-86.37 -0.88,-22.62 -0.7,-27.18 -1.84,-31.13z"/>
   <path fill="#F85C04" d="M8.22 352.66c-1.89,0.7 -5.31,-0.35 -6.93,-1.62 -1.62,-1.27 -1.45,-2.76 -0.92,-9.21 0.53,-6.44 1.41,-17.84 3.51,-29.72 2.1,-11.88 5.44,-24.25 9.6,-35.65 4.16,-11.4 9.16,-21.83 15.3,-31.83 6.14,-10 13.42,-19.56 21.57,-28.23 8.16,-8.68 17.19,-16.48 27.05,-23.02 9.86,-6.53 20.56,-11.79 31.08,-15.78 10.52,-3.99 20.87,-6.7 30.43,-8.37 9.56,-1.67 18.32,-2.28 26.43,-2.54 8.11,-0.26 15.57,-0.18 23.68,0.66 8.11,0.83 16.88,2.41 26.18,5.13 9.29,2.72 19.11,6.57 27.79,10.78 8.68,4.21 16.22,8.77 23.85,14.64 7.63,5.88 15.35,13.06 22.23,20.43 6.88,7.36 12.93,14.91 18.63,24.55 5.7,9.65 11.05,21.4 15.3,33.23 4.25,11.84 7.41,23.76 9.38,33.1 1.97,9.34 2.76,16.09 3.2,22.27 0.44,6.18 0.52,11.8 0.66,15.39 0.13,3.6 0.31,5.18 -0.26,5.96 -0.57,0.79 -1.89,0.79 -3.42,0.74 -1.54,-0.04 -3.29,-0.13 -4.16,-0.39 -0.88,-0.26 -0.88,-0.7 -1.45,-6.57 -0.57,-5.88 -1.71,-17.19 -4.69,-29.15 -2.98,-11.97 -7.8,-24.6 -12.98,-34.94 -5.17,-10.35 -10.7,-18.41 -18.2,-27 -7.5,-8.6 -16.96,-17.72 -24.28,-24.03 -7.32,-6.31 -12.5,-9.82 -18.94,-13.42 -6.44,-3.59 -14.16,-7.28 -22.18,-10.35 -8.03,-3.07 -16.36,-5.52 -25.25,-7.37 -8.9,-1.84 -18.37,-3.07 -27.79,-3.37 -9.43,-0.31 -18.81,0.31 -29.29,2.23 -10.48,1.93 -22.05,5.17 -30.47,8.11 -8.42,2.94 -13.68,5.57 -18.5,8.37 -4.82,2.8 -9.21,5.79 -14.91,9.87 -5.7,4.07 -12.72,9.25 -18.9,14.91 -6.18,5.65 -11.53,11.79 -16.04,17.54 -4.52,5.74 -8.2,11.09 -11.93,17.27 -3.73,6.18 -7.5,13.19 -10.22,19.68 -2.72,6.49 -4.38,12.45 -5.83,18.2 -1.45,5.74 -2.67,11.27 -3.59,16.88 -0.92,5.61 -1.54,11.31 -2.02,15.39 -0.48,4.08 -0.83,6.53 -2.72,7.24z"/>
  </g>
  <rect fill="none" stroke="#F85C04" stroke-width="20.22" stroke-miterlimit="2.61313" x="384.38" y="149.58" width="58.94" height="410.09" rx="136.56" ry="319.72"/>
  <rect fill="white" stroke="#F85C04" stroke-width="20.22" stroke-miterlimit="2.61313" x="367.78" y="342.17" width="96.71" height="37.56" rx="42.43" ry="42.43"/>
  <polyline fill="none" stroke="#F85C04" stroke-width="13.48" stroke-miterlimit="2.61313" points="504.13,59.51 794.68,59.51 794.68,97.69 "/>
  <line fill="none" stroke="#F85C04" stroke-width="13.48" stroke-miterlimit="2.61313" x1="607.07" y1="59.51" x2="607.07" y2= "155.8" />
  <line fill="none" stroke="#F85C04" stroke-width="13.48" stroke-miterlimit="2.61313" x1="537.34" y1="160.78" x2="832.87" y2= "160.78" />
  <line fill="none" stroke="#F85C04" stroke-width="13.48" stroke-miterlimit="2.61313" x1="862.76" y1="159.12" x2="891.81" y2= "159.12" />
  <line fill="none" stroke="#F85C04" stroke-width="13.48" stroke-miterlimit="2.61313" x1="700.05" y1="200.63" x2="700.05" y2= "160.78" />
  <line fill="none" stroke="#F85C04" stroke-width="13.48" stroke-miterlimit="2.61313" x1="586.32" y1="259.57" x2="662.69" y2= "259.57" />
  <line fill="none" stroke="#F85C04" stroke-width="13.48" stroke-miterlimit="2.61313" x1="609.56" y1="259.57" x2="609.56" y2= "350.89" />
  <line fill="none" stroke="#F85C04" stroke-width="13.48" stroke-miterlimit="2.61313" x1="578.85" y1="352.55" x2="888.49" y2= "352.55" />
  <line fill="none" stroke="#F85C04" stroke-width="13.48" stroke-miterlimit="2.61313" x1="739.07" y1="257.91" x2="861.93" y2= "257.91" />
  <line fill="none" stroke="#F85C04" stroke-width="13.48" stroke-miterlimit="2.61313" x1="791.37" y1="352.55" x2="791.37" y2= "257.91" />
  <line fill="none" stroke="#F85C04" stroke-width="13.48" stroke-miterlimit="2.61313" x1="685.11" y1="256.25" x2="714.99" y2= "256.25" />
  <line fill="none" stroke="#F85C04" stroke-width="13.48" stroke-miterlimit="2.61313" x1="489.19" y1="356.7" x2="546.47" y2= "356.7" />
  <line fill="none" stroke="#F85C04" stroke-width="13.48" stroke-miterlimit="2.61313" x1="516.59" y1="450.51" x2="516.59" y2= "356.7" />
  <polyline fill="none" stroke="#F85C04" stroke-width="13.48" stroke-miterlimit="2.61313" points="471.76,452.17 886,452.17 886,423.11 "/>
  <line fill="none" stroke="#F85C04" stroke-width="13.48" stroke-miterlimit="2.61313" x1="700.05" y1="352.55" x2="700.05" y2= "452.17" />
  <line fill="none" stroke="#F85C04" stroke-width="13.48" stroke-miterlimit="2.61313" x1="605.41" y1="452.17" x2="605.41" y2= "550.96" />
  <line fill="none" stroke="#F85C04" stroke-width="13.48" stroke-miterlimit="2.61313" x1="470.93" y1="551.78" x2="793.03" y2= "551.78" />
  <line fill="none" stroke="#F85C04" stroke-width="13.48" stroke-miterlimit="2.61313" x1="323.99" y1="453" x2="360.52" y2= "453" />
  <line fill="none" stroke="#F85C04" stroke-width="13.48" stroke-miterlimit="2.61313" x1="878.95" y1="258.33" x2="884.76" y2= "258.33" />
  <path fill="white" stroke="#F85C04" stroke-width="20.22" stroke-miterlimit="2.61313" d="M367.78 297.31c-17.92,4.31 -52.45,3.93 -73.02,-0.4 -20.58,-4.34 -27.23,-12.64 -29.16,-19 -1.94,-6.37 0.83,-10.79 23.24,-53.4 22.41,-42.62 64.48,-123.42 88,-166.17 23.52,-42.75 28.5,-47.46 34.45,-48.15 5.95,-0.7 12.87,2.63 39.01,47.73 26.15,45.1 71.53,132 93.81,178.21 22.27,46.21 21.45,51.74 18.82,56.03 -2.63,4.29 -7.06,7.33 -26.98,8.58 -19.93,1.25 -55.35,0.7 -73.75,-1.8 -18.4,-2.49 -19.79,-6.92 -23.8,-28.22 -4.01,-21.31 -10.65,-59.49 -15.63,-78.59 -4.98,-19.1 -8.3,-19.1 -13.76,-2.09 -5.46,17 -13.06,51 -17.52,72.49 -4.46,21.5 -5.78,30.48 -23.71,34.79z"/>
 </g>
</svg>
