<svg width="22" height="22" viewBox="0 0 22 22" fill="none" xmlns="http://www.w3.org/2000/svg">
<g clip-path="url(#clip0_3504_7834)">
<path d="M17.4154 7.33333H4.58203C3.06036 7.33333 1.83203 8.56167 1.83203 10.0833V15.5833H5.4987V19.25H16.4987V15.5833H20.1654V10.0833C20.1654 8.56167 18.937 7.33333 17.4154 7.33333ZM14.6654 17.4167H7.33203V12.8333H14.6654V17.4167ZM17.4154 11C16.9112 11 16.4987 10.5875 16.4987 10.0833C16.4987 9.57917 16.9112 9.16667 17.4154 9.16667C17.9195 9.16667 18.332 9.57917 18.332 10.0833C18.332 10.5875 17.9195 11 17.4154 11ZM16.4987 2.75H5.4987V6.41667H16.4987V2.75Z" fill="#18B49C"/>
</g>
<defs>
<clipPath id="clip0_3504_7834">
<rect width="22" height="22" fill="white"/>
</clipPath>
</defs>
</svg>
