<svg width="17" height="17" viewBox="0 0 17 17" fill="none" xmlns="http://www.w3.org/2000/svg">
<path fill-rule="evenodd" clip-rule="evenodd" d="M10.5514 2.01348C10.8446 2.01348 11.0826 2.25148 11.0826 2.54473C11.0826 2.83798 10.8446 3.07598 10.5514 3.07598H5.40322C3.62672 3.07598 2.47852 4.29715 2.47852 6.1884V11.9131C2.47852 13.8292 3.5991 15.0192 5.40322 15.0192H11.4977C13.2742 15.0192 14.4224 13.8001 14.4224 11.9131V6.92719C14.4224 6.63394 14.6604 6.39594 14.9537 6.39594C15.2469 6.39594 15.4849 6.63394 15.4849 6.92719V11.9131C15.4849 14.4065 13.8827 16.0817 11.4977 16.0817H5.40322C3.01827 16.0817 1.41602 14.4065 1.41602 11.9131V6.1884C1.41602 3.69152 3.01827 2.01348 5.40322 2.01348H10.5514ZM12.0498 6.85125C12.2821 7.03117 12.3246 7.3648 12.1447 7.59642L10.0693 10.2739C9.98288 10.3858 9.85538 10.4588 9.71513 10.4758C9.57347 10.4949 9.43322 10.4538 9.3213 10.3667L7.32522 8.79846L5.53242 11.1282C5.42759 11.2642 5.27034 11.3357 5.11097 11.3357C4.99763 11.3357 4.88359 11.2996 4.78726 11.2259C4.55492 11.0467 4.51101 10.7131 4.69022 10.4808L6.81026 7.72534C6.89667 7.61271 7.02488 7.53975 7.16513 7.52205C7.30822 7.50363 7.44847 7.5433 7.55967 7.63184L9.55717 9.2008L11.3046 6.94617C11.4845 6.71313 11.8175 6.66992 12.0498 6.85125ZM14.1429 1.41699C15.187 1.41699 16.0356 2.26558 16.0356 3.30966C16.0356 4.35374 15.187 5.20303 14.1429 5.20303C13.0995 5.20303 12.2503 4.35374 12.2503 3.30966C12.2503 2.26558 13.0995 1.41699 14.1429 1.41699ZM14.1429 2.47949C13.6853 2.47949 13.3128 2.85137 13.3128 3.30966C13.3128 3.76724 13.6853 4.14053 14.1429 4.14053C14.6005 4.14053 14.9731 3.76724 14.9731 3.30966C14.9731 2.85137 14.6005 2.47949 14.1429 2.47949Z" fill="#222B45" fill-opacity="0.7"/>
</svg>
