<svg width="21" height="21" viewBox="0 0 21 21" fill="none" xmlns="http://www.w3.org/2000/svg">
<g clip-path="url(#clip0_3489_5131)">
<path d="M14.875 2.625H4.375C3.40375 2.625 2.625 3.4125 2.625 4.375V16.625C2.625 17.5875 3.40375 18.375 4.375 18.375H16.625C17.5875 18.375 18.375 17.5875 18.375 16.625V6.125L14.875 2.625ZM10.5 16.625C9.0475 16.625 7.875 15.4525 7.875 14C7.875 12.5475 9.0475 11.375 10.5 11.375C11.9525 11.375 13.125 12.5475 13.125 14C13.125 15.4525 11.9525 16.625 10.5 16.625ZM13.125 7.875H4.375V4.375H13.125V7.875Z" fill="#E86124"/>
</g>
<defs>
<clipPath id="clip0_3489_5131">
<rect width="21" height="21" fill="white"/>
</clipPath>
</defs>
</svg>
