<svg width="25" height="25" viewBox="0 0 25 25" fill="none" xmlns="http://www.w3.org/2000/svg">
<g clip-path="url(#clip0_5325_2148)">
<path d="M17.7083 5.20833H15.625V3.125H17.7083V5.20833ZM15.625 21.875H17.7083V19.1771L20.4062 21.875L21.875 20.4062L19.1771 17.7083H21.875V15.625H15.625V21.875ZM19.7917 9.375H21.875V7.29167H19.7917V9.375ZM19.7917 13.5417H21.875V11.4583H19.7917V13.5417ZM11.4583 21.875H13.5417V19.7917H11.4583V21.875ZM7.29167 5.20833H9.375V3.125H7.29167V5.20833ZM3.125 17.7083H5.20833V15.625H3.125V17.7083ZM5.20833 21.875V19.7917H3.125C3.125 20.9375 4.0625 21.875 5.20833 21.875ZM19.7917 3.125V5.20833H21.875C21.875 4.0625 20.9375 3.125 19.7917 3.125ZM11.4583 5.20833H13.5417V3.125H11.4583V5.20833ZM3.125 9.375H5.20833V7.29167H3.125V9.375ZM7.29167 21.875H9.375V19.7917H7.29167V21.875ZM3.125 13.5417H5.20833V11.4583H3.125V13.5417ZM3.125 5.20833H5.20833V3.125C4.0625 3.125 3.125 4.0625 3.125 5.20833Z" fill="#F85C04"/>
</g>
<defs>
<clipPath id="clip0_5325_2148">
<rect width="25" height="25" fill="white"/>
</clipPath>
</defs>
</svg>
