<svg xmlns="http://www.w3.org/2000/svg" xmlns:xlink="http://www.w3.org/1999/xlink" viewBox="0 0 592 138" width="592" height="138"><path d="M 116.000,28.000 C 115.513,25.162 115.000,25.500 114.000,23.000" stroke-width="4.733" stroke="black" fill="none" stroke-linecap="round"></path><path d="M 114.000,23.000 C 111.957,19.613 112.013,20.162 109.000,18.000" stroke-width="4.644" stroke="black" fill="none" stroke-linecap="round"></path><path d="M 109.000,18.000 C 105.591,16.223 106.457,16.613 103.000,17.000" stroke-width="4.701" stroke="black" fill="none" stroke-linecap="round"></path><path d="M 103.000,17.000 C 100.240,18.519 100.591,17.723 99.000,21.000" stroke-width="4.354" stroke="black" fill="none" stroke-linecap="round"></path><path d="M 99.000,21.000 C 96.667,28.065 95.740,27.519 94.000,35.000" stroke-width="3.309" stroke="black" fill="none" stroke-linecap="round"></path><path d="M 94.000,35.000 C 90.984,40.829 91.667,41.065 89.000,47.000" stroke-width="3.223" stroke="black" fill="none" stroke-linecap="round"></path><path d="M 89.000,47.000 C 86.679,54.940 86.484,54.829 85.000,63.000" stroke-width="2.956" stroke="black" fill="none" stroke-linecap="round"></path><path d="M 85.000,63.000 C 81.531,68.677 84.179,66.940 84.000,71.000" stroke-width="3.510" stroke="black" fill="none" stroke-linecap="round"></path><path d="M 84.000,71.000 C 92.860,79.406 90.031,76.677 102.000,79.000" stroke-width="3.519" stroke="black" fill="none" stroke-linecap="round"></path><path d="M 102.000,79.000 C 115.806,74.717 115.360,78.406 129.000,69.000" stroke-width="2.306" stroke="black" fill="none" stroke-linecap="round"></path><path d="M 129.000,69.000 C 145.540,61.081 145.806,61.717 162.000,53.000" stroke-width="1.853" stroke="black" fill="none" stroke-linecap="round"></path><path d="M 162.000,53.000 C 173.431,48.098 173.040,47.581 184.000,42.000" stroke-width="2.144" stroke="black" fill="none" stroke-linecap="round"></path><path d="M 184.000,42.000 C 185.540,39.230 186.431,40.598 188.000,38.000" stroke-width="3.243" stroke="black" fill="none" stroke-linecap="round"></path><path d="M 188.000,38.000 C 192.851,35.483 192.540,35.730 198.000,35.000" stroke-width="4.356" stroke="black" fill="none" stroke-linecap="round"></path><path d="M 198.000,35.000 C 209.000,35.000 208.851,33.983 220.000,35.000" stroke-width="2.895" stroke="black" fill="none" stroke-linecap="round"></path><path d="M 220.000,35.000 C 239.561,34.059 239.500,35.000 259.000,35.000" stroke-width="1.947" stroke="black" fill="none" stroke-linecap="round"></path><path d="M 259.000,35.000 C 270.673,35.808 270.561,35.559 282.000,38.000" stroke-width="2.231" stroke="black" fill="none" stroke-linecap="round"></path><path d="M 282.000,38.000 C 289.577,38.251 286.173,38.808 290.000,41.000" stroke-width="3.073" stroke="black" fill="none" stroke-linecap="round"></path><path d="M 290.000,41.000 C 288.336,47.531 290.577,44.751 284.000,51.000" stroke-width="3.759" stroke="black" fill="none" stroke-linecap="round"></path><path d="M 284.000,51.000 C 277.202,54.599 278.336,55.531 270.000,57.000" stroke-width="3.167" stroke="black" fill="none" stroke-linecap="round"></path><path d="M 270.000,57.000 C 262.060,59.321 262.202,59.599 254.000,61.000" stroke-width="2.942" stroke="black" fill="none" stroke-linecap="round"></path><path d="M 254.000,61.000 C 246.309,64.472 250.060,61.821 246.000,62.000" stroke-width="3.503" stroke="black" fill="none" stroke-linecap="round"></path><path d="M 246.000,62.000 C 246.448,51.580 245.309,56.472 252.000,45.000" stroke-width="3.569" stroke="black" fill="none" stroke-linecap="round"></path><path d="M 252.000,45.000 C 261.637,35.961 259.948,35.580 273.000,30.000" stroke-width="2.516" stroke="black" fill="none" stroke-linecap="round"></path><path d="M 273.000,30.000 C 292.198,18.200 292.137,19.961 313.000,13.000" stroke-width="1.780" stroke="black" fill="none" stroke-linecap="round"></path><path d="M 313.000,13.000 C 332.995,10.286 332.198,8.200 353.000,10.000" stroke-width="1.705" stroke="black" fill="none" stroke-linecap="round"></path><path d="M 353.000,10.000 C 368.307,9.608 367.995,9.786 383.000,12.000" stroke-width="1.921" stroke="black" fill="none" stroke-linecap="round"></path><path d="M 383.000,12.000 C 392.200,12.883 389.807,13.108 396.000,17.000" stroke-width="2.571" stroke="black" fill="none" stroke-linecap="round"></path><path d="M 396.000,17.000 C 397.233,22.023 398.200,19.383 395.000,25.000" stroke-width="3.291" stroke="black" fill="none" stroke-linecap="round"></path><path d="M 395.000,25.000 C 390.143,30.290 391.233,30.023 384.000,33.000" stroke-width="3.173" stroke="black" fill="none" stroke-linecap="round"></path><path d="M 384.000,33.000 C 372.794,38.284 373.143,37.790 361.000,40.000" stroke-width="2.532" stroke="black" fill="none" stroke-linecap="round"></path><path d="M 361.000,40.000 C 344.795,42.410 345.294,42.284 329.000,41.000" stroke-width="2.095" stroke="black" fill="none" stroke-linecap="round"></path><path d="M 329.000,41.000 C 316.950,38.187 316.795,39.910 305.000,35.000" stroke-width="2.280" stroke="black" fill="none" stroke-linecap="round"></path><path d="M 305.000,35.000 C 294.229,32.742 294.450,32.187 284.000,29.000" stroke-width="2.404" stroke="black" fill="none" stroke-linecap="round"></path><path d="M 284.000,29.000 C 273.539,25.167 273.729,25.242 264.000,20.000" stroke-width="2.382" stroke="black" fill="none" stroke-linecap="round"></path><path d="M 264.000,20.000 C 262.557,15.884 261.539,18.667 260.000,16.000" stroke-width="3.919" stroke="black" fill="none" stroke-linecap="round"></path><path d="M 260.000,16.000 C 251.143,19.140 251.557,16.384 242.000,21.000" stroke-width="2.961" stroke="black" fill="none" stroke-linecap="round"></path><path d="M 242.000,21.000 C 221.379,23.924 221.643,25.140 201.000,28.000" stroke-width="1.821" stroke="black" fill="none" stroke-linecap="round"></path><path d="M 201.000,28.000 C 188.751,30.328 188.879,30.424 177.000,34.000" stroke-width="2.076" stroke="black" fill="none" stroke-linecap="round"></path><path d="M 177.000,34.000 C 170.757,35.071 172.751,35.328 169.000,38.000" stroke-width="2.954" stroke="black" fill="none" stroke-linecap="round"></path><path d="M 169.000,38.000 C 168.568,42.336 167.757,40.071 171.000,44.000" stroke-width="4.131" stroke="black" fill="none" stroke-linecap="round"></path><path d="M 171.000,44.000 C 179.168,48.608 178.068,48.836 188.000,51.000" stroke-width="3.015" stroke="black" fill="none" stroke-linecap="round"></path><path d="M 188.000,51.000 C 203.475,54.134 203.168,55.108 219.000,57.000" stroke-width="2.130" stroke="black" fill="none" stroke-linecap="round"></path><path d="M 219.000,57.000 C 236.156,59.325 235.975,60.134 253.000,63.000" stroke-width="1.873" stroke="black" fill="none" stroke-linecap="round"></path><path d="M 253.000,63.000 C 263.374,66.676 263.656,65.325 274.000,69.000" stroke-width="2.200" stroke="black" fill="none" stroke-linecap="round"></path><path d="M 274.000,69.000 C 285.233,68.835 279.374,70.176 285.000,70.000" stroke-width="2.884" stroke="black" fill="none" stroke-linecap="round"></path><path d="M 285.000,70.000 C 279.174,72.805 284.733,71.335 273.000,74.000" stroke-width="3.882" stroke="black" fill="none" stroke-linecap="round"></path><path d="M 273.000,74.000 C 263.457,76.567 263.674,75.805 254.000,76.000" stroke-width="2.855" stroke="black" fill="none" stroke-linecap="round"></path><path d="M 254.000,76.000 C 238.204,74.746 238.457,75.067 223.000,71.000" stroke-width="2.111" stroke="black" fill="none" stroke-linecap="round"></path><path d="M 223.000,71.000 C 204.175,64.344 203.704,66.246 185.000,59.000" stroke-width="1.845" stroke="black" fill="none" stroke-linecap="round"></path><path d="M 185.000,59.000 C 173.525,56.373 173.675,55.844 162.000,54.000" stroke-width="2.127" stroke="black" fill="none" stroke-linecap="round"></path><path d="M 162.000,54.000 C 149.264,52.521 156.525,52.873 151.000,52.000" stroke-width="2.879" stroke="black" fill="none" stroke-linecap="round"></path><path d="M 151.000,52.000 C 161.492,51.169 154.264,51.021 172.000,51.000" stroke-width="3.719" stroke="black" fill="none" stroke-linecap="round"></path><path d="M 172.000,51.000 C 192.521,51.683 192.492,50.669 213.000,51.000" stroke-width="1.908" stroke="black" fill="none" stroke-linecap="round"></path><path d="M 213.000,51.000 C 237.515,49.708 237.521,50.183 262.000,48.000" stroke-width="1.560" stroke="black" fill="none" stroke-linecap="round"></path><path d="M 262.000,48.000 C 280.508,46.594 280.515,46.708 299.000,45.000" stroke-width="1.699" stroke="black" fill="none" stroke-linecap="round"></path><path d="M 299.000,45.000 C 309.531,44.208 309.508,44.094 320.000,43.000" stroke-width="2.150" stroke="black" fill="none" stroke-linecap="round"></path><path d="M 320.000,43.000 C 323.851,43.608 322.531,42.708 325.000,42.000" stroke-width="3.621" stroke="black" fill="none" stroke-linecap="round"></path><path d="M 325.000,42.000 C 324.473,36.264 326.351,40.108 325.000,36.000" stroke-width="4.638" stroke="black" fill="none" stroke-linecap="round"></path><path d="M 325.000,36.000 C 326.765,38.417 325.473,35.764 327.000,41.000" stroke-width="5.166" stroke="black" fill="none" stroke-linecap="round"></path></svg>