<svg width="17" height="17" viewBox="0 0 17 17" fill="none" xmlns="http://www.w3.org/2000/svg">
<path fill-rule="evenodd" clip-rule="evenodd" d="M4.42643 9.20768C7.30864 9.20768 7.43685 10.1852 7.43685 12.2181C7.43685 13.2367 7.43685 13.9613 7.00902 14.4918C6.51672 15.1031 5.62068 15.2285 4.42643 15.2285C3.23218 15.2285 2.33614 15.1031 1.84385 14.4918C1.41602 13.9613 1.41602 13.2374 1.41602 12.2358L1.94727 12.2181H1.41602C1.41602 10.1852 1.54422 9.20768 4.42643 9.20768ZM12.2181 9.20768C15.1003 9.20768 15.2285 10.1852 15.2285 12.2181C15.2285 13.2367 15.2285 13.9613 14.8007 14.4918C14.3084 15.1031 13.4123 15.2285 12.2181 15.2285C11.0238 15.2285 10.1278 15.1031 9.63552 14.4918C9.20768 13.9613 9.20768 13.2374 9.20768 12.2358L9.73893 12.2181H9.20768C9.20768 10.1852 9.33589 9.20768 12.2181 9.20768ZM4.57246 10.2705L4.42643 10.2702C2.57841 10.2702 2.48364 10.4028 2.47878 11.9539L2.47908 12.5582C2.48243 13.1752 2.50594 13.6208 2.67047 13.826C2.85818 14.0583 3.41564 14.166 4.42643 14.166C5.43722 14.166 5.99468 14.0576 6.18239 13.8253C6.37435 13.5866 6.37435 13.0199 6.37435 12.2351C6.37435 10.4641 6.37435 10.2788 4.57246 10.2705ZM12.3641 10.2705L12.2181 10.2702C10.3701 10.2702 10.2753 10.4028 10.2704 11.9539L10.2707 12.5582C10.2741 13.1752 10.2976 13.6208 10.4621 13.826C10.6498 14.0583 11.2073 14.166 12.2181 14.166C13.2289 14.166 13.7863 14.0576 13.9741 13.8253C14.166 13.5866 14.166 13.0199 14.166 12.2351C14.166 10.4641 14.166 10.2788 12.3641 10.2705ZM4.42643 1.41602C7.30864 1.41602 7.43685 2.39352 7.43685 4.42643C7.43685 5.44502 7.43685 6.16964 7.00902 6.70018C6.51672 7.31147 5.62068 7.43685 4.42643 7.43685C3.23218 7.43685 2.33614 7.31147 1.84385 6.70018C1.41602 6.16964 1.41602 5.44572 1.41602 4.44414L1.94727 4.42643H1.41602C1.41602 2.39352 1.54422 1.41602 4.42643 1.41602ZM12.2181 1.41602C15.1003 1.41602 15.2285 2.39352 15.2285 4.42643C15.2285 5.44502 15.2285 6.16964 14.8007 6.70018C14.3084 7.31147 13.4123 7.43685 12.2181 7.43685C11.0238 7.43685 10.1278 7.31147 9.63552 6.70018C9.20768 6.16964 9.20768 5.44572 9.20768 4.44414L9.73893 4.42643H9.20768C9.20768 2.39352 9.33589 1.41602 12.2181 1.41602ZM4.57246 2.47883L4.42643 2.47852C2.57841 2.47852 2.48364 2.61113 2.47878 4.16226L2.47908 4.76656C2.48243 5.38349 2.50594 5.82913 2.67047 6.03435C2.85818 6.26668 3.41564 6.37435 4.42643 6.37435C5.43722 6.37435 5.99468 6.26597 6.18239 6.03364C6.37435 5.79493 6.37435 5.22827 6.37435 4.44343C6.37435 2.67245 6.37435 2.48717 4.57246 2.47883ZM12.3641 2.47883L12.2181 2.47852C10.3701 2.47852 10.2753 2.61113 10.2704 4.16226L10.2707 4.76656C10.2741 5.38349 10.2976 5.82913 10.4621 6.03435C10.6498 6.26668 11.2073 6.37435 12.2181 6.37435C13.2289 6.37435 13.7863 6.26597 13.9741 6.03364C14.166 5.79493 14.166 5.22827 14.166 4.44343C14.166 2.67245 14.166 2.48717 12.3641 2.47883Z" fill="#222B45" fill-opacity="0.7"/>
</svg>
