<?xml version="1.0" encoding="UTF-8"?>
<!DOCTYPE svg PUBLIC "-//W3C//DTD SVG 1.1//EN" "http://www.w3.org/Graphics/SVG/1.1/DTD/svg11.dtd">
<!-- Creator: CorelDRAW 2019 (64-Bit) -->
<svg xmlns="http://www.w3.org/2000/svg" xml:space="preserve" width="0.801941in" height="0.705311in" version="1.1" shape-rendering="geometricPrecision" text-rendering="geometricPrecision" image-rendering="optimizeQuality" fill-rule="evenodd" clip-rule="evenodd"
viewBox="0 0 696.28 612.38"
 xmlns:xlink="http://www.w3.org/1999/xlink">
 <g id="Layer_x0020_1">
  <metadata id="CorelCorpID_0Corel-Layer"/>
  <path fill="#F85C04" d="M463.73 0l0 84.32 -368.54 0 -42.16 0c-29.19,0 -53.03,23.84 -53.03,53.04l0 400.45c0.01,0.02 0.01,0.05 0.01,0.07 0,0.79 0.08,1.57 0.26,2.34 1.3,28.05 24.41,50.58 52.77,50.58l31.96 0 0 -84.28 368.54 0 42.15 0c29.2,0 53.04,-23.85 53.04,-53.03l0 -358.3 0 -42.16c0,-29.19 -23.84,-53.03 -53.04,-53.03l-31.96 0zm21.76 21.76l10.2 0c17.52,0 31.28,13.77 31.28,31.27l0 42.16 0 318.23c-8.97,-6.96 -19.1,-12.96 -31.28,-12.96l-10.2 0 0 -378.7zm94.52 83.63c-6.01,0 -10.88,4.87 -10.88,10.88l0 379.37c0,6.01 4.87,10.87 10.88,10.87l105.39 0.01c6.01,-0.01 10.88,-4.87 10.88,-10.89l0 -379.37c0,-6.01 -4.87,-10.88 -10.88,-10.88l-105.39 0zm-526.97 0.68l42.16 0 368.54 0 0 316.14 31.96 0c17.52,0 31.28,13.77 31.28,31.28 0,17.51 -13.76,31.27 -31.28,31.27l-42.15 0 -394.85 0 -5.65 0c-11.72,0 -22.48,3.93 -31.28,10.41l0 -357.83c0,-17.52 13.77,-31.28 31.28,-31.28zm537.86 21.08l83.64 0 0 357.61 -83.64 0 0 -20.39 41.82 0 0 -21.76 -41.82 0 0 -20.4 20.73 0 0 -21.75 -20.73 0 0 -20.4 41.82 0 0 -21.76 -41.82 0 0 -20.4 20.73 0 0 -21.76 -20.73 0 0 -20.4 41.82 0 0 -21.76 -41.82 0 0 -20.4 20.73 0 0 -21.76 -20.73 0 0 -20.35 41.82 0 0 -21.76 -41.82 0 0 -20.39 20.73 0 0 -21.76 -20.73 0 0 -20.4zm-495.7 20.4c-6.01,0 -10.87,4.87 -10.87,10.88l-0.01 273.98c0.01,6 4.87,10.87 10.89,10.87l316.17 0.01c6.01,-0.01 10.88,-4.88 10.88,-10.89l0 -273.97c0,-6.01 -4.87,-10.88 -10.88,-10.88l-221.33 0 0 21.76 41.82 0 0 62.9 21.76 0 0 -62.9 146.88 0 0 125.75 -62.56 0 0 -83.93 -21.76 0 0 83.93 -41.82 0 0 21.76 126.14 0 0 104.72 -20.4 0 0 -73.44c0,-6.02 -4.87,-10.89 -10.88,-10.89l-84.31 0.01c-6,-0.01 -10.87,4.86 -10.87,10.87l-0.01 73.45 -20.4 0 0 -146.16 -21.76 0 0 146.16 -125.79 0 0 -83.64 83.97 0 0 -21.76 -83.97 0 0 -146.83 41.82 0 0 -21.76 -52.7 0zm200.59 211.43l62.56 0 0 62.56 -62.56 0 0 -62.56zm-242.75 147.55l5.65 0 4.55 0 0 62.52 -10.2 0c-17.52,0 -31.28,-13.73 -31.28,-31.24 0,-17.51 13.77,-31.28 31.28,-31.28zm347.63 20.19l-179.17 0.63c-0.46,0.03 -0.93,0.1 -1.39,0.21 -0.26,0.08 -0.52,0.16 -0.77,0.26 -0.27,0.05 -0.56,0.13 -0.84,0.21 -0.05,0.01 -0.11,0.01 -0.17,0.01 -0.06,0 -0.12,0 -0.17,0 -0.13,0.06 -0.25,0.14 -0.39,0.22 -0.16,0.06 -0.33,0.14 -0.51,0.21 -0.19,0.08 -0.39,0.19 -0.59,0.29 -0.16,0.09 -0.34,0.17 -0.5,0.26l-62.66 31.5c-3.65,1.84 -5.96,5.6 -5.96,9.7 0,4.14 2.35,7.92 6.06,9.75l63.4 31.33c1.49,0.71 3.11,1.09 4.77,1.09 0.91,0 1.8,-0.12 2.67,-0.34l176.48 0.01c0.85,-0.01 1.7,-0.11 2.51,-0.3l18.96 0.01c19.64,0 36.58,-15.23 36.5,-34.68l-0.08 -15.77c-0.08,-19.53 -17.16,-34.43 -36.64,-34.38l-21.46 0c0,-0.01 -0.01,-0.01 -0.02,-0.01 -0.01,0 -0.02,0 -0.02,0l0 -0.21zm-10.79 21.71l0 0.05 0.04 10.45 -157.41 -0.39 -0.04 -9.51 157.41 -0.6zm21.75 0.05l10.54 0c8.62,0 14.85,6.04 14.88,12.71l0.08 15.77c0.02,6.76 -5.94,12.83 -14.74,12.83l-10.63 0 -0.04 -19.33 -0.09 -21.97zm-200.89 7.39l0.04 13.22 0.04 14.7 -28.04 -13.9 27.96 -14.02zm21.84 24.47l157.37 0.43 0.04 9.35 -157.37 0 -0.04 -9.74 0 -0.04z" color="#000"/>
 </g>
</svg>
