<?xml version="1.0" encoding="UTF-8"?>
<!DOCTYPE svg PUBLIC "-//W3C//DTD SVG 1.1//EN" "http://www.w3.org/Graphics/SVG/1.1/DTD/svg11.dtd">
<!-- Creator: CorelDRAW 2019 (64-Bit) -->
<svg xmlns="http://www.w3.org/2000/svg" xml:space="preserve" width="0.807165in" height="0.698665in" version="1.1" shape-rendering="geometricPrecision" text-rendering="geometricPrecision" image-rendering="optimizeQuality" fill-rule="evenodd" clip-rule="evenodd"
viewBox="0 0 827.08 715.9"
 xmlns:xlink="http://www.w3.org/1999/xlink">
 <g id="Layer_x0020_1">
  <metadata id="CorelCorpID_0Corel-Layer"/>
  <path fill="none" stroke="#F85C04" stroke-width="28.46" stroke-miterlimit="2.61313" d="M47.7 639.17l-30.82 0c-1.46,0 -2.65,-1.19 -2.65,-2.65l0 -619.65c0,-1.46 1.19,-2.65 2.65,-2.65l461.57 0c1.46,0 2.65,1.19 2.65,2.65l0 26.56"/>
  <path fill="none" stroke="#F85C04" stroke-width="28.46" stroke-miterlimit="2.61313" d="M558.3 566.44l0 132.58c0,1.46 -1.19,2.65 -2.65,2.65l-459.73 0c-1.46,0 -2.65,-1.19 -2.65,-2.65l0 -615.97c0,-1.46 1.19,-2.65 2.65,-2.65l459.73 0c1.46,0 2.65,1.2 2.65,2.65l0 281.47"/>
  <line fill="none" stroke="#F85C04" stroke-width="21.35" stroke-linecap="round" stroke-linejoin="round" stroke-miterlimit="2.61313" x1="194.36" y1="188.85" x2="450.77" y2= "188.85" />
  <line fill="none" stroke="#F85C04" stroke-width="7.12" stroke-linecap="round" stroke-linejoin="round" stroke-miterlimit="2.61313" x1="156.68" y1="277.08" x2="492.13" y2= "277.08" />
  <line fill="none" stroke="#F85C04" stroke-width="7.12" stroke-linecap="round" stroke-linejoin="round" stroke-miterlimit="2.61313" x1="157.6" y1="338.65" x2="491.21" y2= "338.65" />
  <line fill="none" stroke="#F85C04" stroke-width="7.12" stroke-linecap="round" stroke-linejoin="round" stroke-miterlimit="2.61313" x1="155.76" y1="400.23" x2="493.05" y2= "400.23" />
  <line fill="none" stroke="#F85C04" stroke-width="7.12" stroke-linecap="round" stroke-linejoin="round" stroke-miterlimit="2.61313" x1="156.68" y1="465.47" x2="453.43" y2= "465.47" />
  <g id="_2740274786864">
   <path fill="#F85C04" d="M576.91 414.09c10.49,8.5 29.49,27.65 38.83,37.53 9.35,9.88 9.04,10.49 -0.84,20.6 -9.88,10.11 -29.33,29.72 -48.41,47.48 -19.07,17.77 -37.76,33.7 -57.82,47.64 -20.07,13.94 -41.51,25.89 -55.76,32.63 -14.24,6.74 -21.29,8.27 -25.27,8.19 -3.98,-0.08 -4.9,-1.76 -4.29,-7.81 0.61,-6.05 2.76,-16.47 8.96,-30.41 6.2,-13.94 16.46,-31.4 25.58,-45.11 9.12,-13.71 17.08,-23.66 33.47,-41.36 16.39,-17.69 41.2,-43.12 54.45,-56.67 13.25,-13.55 14.93,-15.24 16.77,-17.15 1.84,-1.92 3.83,-4.06 14.32,4.44z"/>
   <path fill="#F85C04" d="M592.38 400.53c8.5,10.42 26.73,29.41 35.84,38.75 9.11,9.35 9.11,9.04 39.82,-21.52 30.71,-30.56 92.13,-91.37 123.46,-122.84 31.32,-31.48 32.55,-33.62 33.7,-38.14 1.15,-4.52 2.22,-11.41 1.76,-17.92 -0.46,-6.51 -2.45,-12.63 -6.28,-18 -3.83,-5.36 -9.5,-9.96 -15.7,-12.79 -6.2,-2.84 -12.94,-3.91 -19.3,-3.91 -6.36,0 -12.33,1.07 -18,4.29 -5.67,3.22 -11.03,8.58 -38.98,36.53 -27.96,27.95 -78.5,78.5 -105.38,105.08 -26.88,26.57 -30.1,29.18 -32.32,31.24 -2.22,2.07 -3.45,3.6 -4.67,5.28 -1.22,1.69 -2.45,3.53 6.05,13.94z"/>
  </g>
  <path fill="none" stroke="#F85C04" stroke-width="10.67" stroke-miterlimit="2.61313" d="M753.28 232.79c-9.54,-2.39 -19.09,-4.78 -30.22,-2.23 -11.13,2.55 -23.84,10.06 -37.09,20.4 -13.25,10.34 -27.04,23.51 -37.07,34.23 -10.03,10.72 -16.31,19 -21.98,27.04 -5.67,8.04 -10.72,15.85 -14.24,23.36 -3.52,7.5 -5.51,14.7 -7.5,21.9"/>
  <g>
   <path fill="#F85C04" fill-rule="nonzero" d="M226.51 634.07c-1.92,2.23 -5.3,2.48 -7.53,0.56 -2.23,-1.92 -2.48,-5.3 -0.56,-7.53l8.08 6.97zm54 -76.99l7.65 7.44 0 0 -1.4 1.45 -1.46 1.53 -1.51 1.6 -1.55 1.65 -1.6 1.72 -1.64 1.78 -1.68 1.84 -1.72 1.89 -1.76 1.94 -1.8 2 -1.84 2.04 -1.86 2.08 -1.9 2.13 -1.93 2.18 -1.96 2.21 -1.98 2.25 -2.01 2.28 -2.03 2.32 -2.06 2.35 -2.07 2.37 -2.09 2.4 -2.11 2.43 -2.12 2.44 -2.14 2.47 -2.15 2.49 -2.16 2.5 -2.17 2.52 -2.18 2.52 -2.19 2.54 -2.19 2.54 -2.19 2.55 -2.2 2.55 -8.08 -6.97 2.2 -2.55 2.19 -2.55 2.19 -2.54 2.19 -2.54 2.19 -2.53 2.17 -2.52 2.17 -2.51 2.15 -2.49 2.14 -2.48 2.13 -2.45 2.12 -2.43 2.1 -2.41 2.08 -2.39 2.06 -2.35 2.04 -2.33 2.02 -2.29 1.99 -2.26 1.96 -2.23 1.94 -2.19 1.9 -2.15 1.88 -2.11 1.85 -2.06 1.81 -2.01 1.78 -1.96 1.74 -1.91 1.71 -1.86 1.67 -1.8 1.63 -1.75 1.59 -1.69 1.54 -1.62 1.5 -1.57 1.45 -1.5 0 0zm29.26 -20.4l-0.73 10.65 0 0 0.02 0 0.01 0 -0.04 0 -0.08 0.01 -0.15 0.04 -0.19 0.05 -0.23 0.08 -0.28 0.1 -0.32 0.14 -0.38 0.18 -0.42 0.22 -0.46 0.25 -0.5 0.29 -0.55 0.34 -0.6 0.4 -0.64 0.44 -0.66 0.48 -0.71 0.54 -0.76 0.6 -0.81 0.65 -0.85 0.7 -0.88 0.75 -0.92 0.81 -0.98 0.88 -1.02 0.93 -1.07 0.99 -1.11 1.06 -1.17 1.12 -1.21 1.18 -1.25 1.25 -1.31 1.32 -1.36 1.38 -7.65 -7.44 1.4 -1.44 1.36 -1.36 1.31 -1.31 1.27 -1.24 1.22 -1.18 1.18 -1.11 1.15 -1.07 1.1 -1 1.06 -0.94 1.03 -0.9 1 -0.85 0.96 -0.79 0.92 -0.74 0.89 -0.69 0.87 -0.66 0.86 -0.62 0.81 -0.56 0.78 -0.52 0.77 -0.49 0.76 -0.46 0.74 -0.41 0.71 -0.37 0.71 -0.33 0.72 -0.31 0.71 -0.27 0.71 -0.23 0.7 -0.19 0.69 -0.16 0.71 -0.12 0.72 -0.08 0.74 -0.02 0.71 0.02 0 0zm3.08 22.39l-9.42 -5.02 0 0 0.46 -0.87 0.42 -0.84 0.39 -0.8 0.35 -0.75 0.31 -0.71 0.29 -0.68 0.25 -0.63 0.21 -0.57 0.19 -0.54 0.15 -0.48 0.13 -0.45 0.09 -0.38 0.07 -0.34 0.05 -0.3 0.02 -0.21 0.01 -0.17 0 -0.09 0 -0.02 0 0.04 0.03 0.13 0.06 0.19 0.08 0.17 0.16 0.28 0.21 0.29 0.22 0.24 0.27 0.23 0.3 0.2 0.3 0.15 0.25 0.1 0.13 0.03 0.15 0.03 0.08 0.01 0.73 -10.65 0.74 0.08 0.76 0.15 0.71 0.19 0.79 0.3 0.8 0.41 0.76 0.5 0.69 0.6 0.59 0.65 0.55 0.75 0.44 0.79 0.32 0.74 0.26 0.81 0.18 0.81 0.1 0.76 0.05 0.77 -0.01 0.75 -0.04 0.74 -0.09 0.75 -0.12 0.72 -0.15 0.75 -0.19 0.77 -0.21 0.76 -0.24 0.78 -0.27 0.8 -0.31 0.82 -0.33 0.84 -0.36 0.86 -0.4 0.9 -0.44 0.92 -0.46 0.94 -0.49 0.97 -0.53 1.01 0 0zm-18.15 30.95l-10.21 -3.11 0 0 0.28 -0.82 0.32 -0.83 0.36 -0.81 0.39 -0.83 0.44 -0.86 0.46 -0.88 0.5 -0.92 0.54 -0.96 0.56 -0.97 0.58 -1 0.62 -1.04 0.64 -1.06 0.66 -1.09 0.68 -1.1 0.69 -1.11 0.71 -1.13 0.71 -1.15 0.72 -1.15 0.71 -1.15 0.72 -1.16 0.73 -1.16 0.72 -1.15 0.71 -1.14 0.7 -1.14 0.68 -1.12 0.66 -1.1 0.65 -1.09 0.63 -1.06 0.6 -1.03 0.56 -0.99 0.53 -0.96 0.5 -0.92 9.42 5.02 -0.56 1.03 -0.58 1.05 -0.62 1.08 -0.64 1.1 -0.66 1.11 -0.67 1.12 -0.69 1.15 -0.71 1.16 -0.71 1.16 -0.72 1.17 -0.73 1.17 -0.73 1.16 -0.72 1.16 -0.73 1.16 -0.71 1.15 -0.71 1.13 -0.69 1.11 -0.68 1.1 -0.66 1.07 -0.63 1.04 -0.61 1.02 -0.58 0.97 -0.55 0.94 -0.52 0.9 -0.47 0.83 -0.43 0.79 -0.39 0.74 -0.33 0.65 -0.28 0.59 -0.22 0.5 -0.15 0.37 -0.08 0.25 0 0zm4.87 -9.73l5.18 9.33 0 -0 -0.54 0.31 -0.54 0.31 -0.56 0.33 -0.6 0.35 -0.6 0.35 -0.59 0.34 -0.6 0.35 -0.63 0.36 -0.62 0.35 -0.61 0.34 -0.62 0.34 -0.63 0.33 -0.63 0.33 -0.6 0.3 -0.62 0.3 -0.62 0.27 -0.61 0.26 -0.66 0.25 -0.65 0.21 -0.72 0.2 -0.78 0.15 -0.88 0.09 -1.07 -0.02 -1.23 -0.23 -1.44 -0.61 -1.39 -1.12 -0.98 -1.42 -0.52 -1.46 -0.16 -1.3 0.04 -1.11 0.16 -0.96 0.23 -0.88 10.21 3.11 -0.02 0.06 0.02 -0.14 0.01 -0.4 -0.09 -0.71 -0.35 -0.97 -0.73 -1.05 -1.04 -0.84 -1.01 -0.44 -0.71 -0.14 -0.48 -0.01 -0.22 0.02 -0.04 0.01 0.07 -0.02 0.2 -0.07 0.25 -0.09 0.33 -0.14 0.38 -0.17 0.41 -0.2 0.47 -0.23 0.48 -0.25 0.5 -0.27 0.53 -0.3 0.56 -0.31 0.56 -0.32 0.57 -0.33 0.59 -0.34 0.61 -0.36 0.59 -0.34 0.58 -0.34 0.61 -0.35 0.61 -0.35 0.59 -0.33 0 -0zm17.53 4.58l-10.67 -0.31 0 0 0 -0.04 -0 -0.01 0.02 0.12 0.06 0.24 0.09 0.27 0.16 0.34 0.24 0.38 0.33 0.39 0.44 0.39 0.43 0.28 0.42 0.2 0.43 0.14 0.31 0.06 0.2 0.02 0.13 0 0.1 -0.01 -0.04 0.01 -0.08 0.01 -0.1 0.03 -0.19 0.05 -0.24 0.08 -0.24 0.08 -0.3 0.12 -0.36 0.14 -0.35 0.15 -0.37 0.17 -0.42 0.2 -0.44 0.22 -0.46 0.24 -0.48 0.25 -0.48 0.25 -0.52 0.29 -5.18 -9.33 0.58 -0.32 0.61 -0.33 0.58 -0.3 0.56 -0.29 0.56 -0.27 0.55 -0.27 0.57 -0.26 0.56 -0.24 0.52 -0.21 0.54 -0.21 0.58 -0.2 0.54 -0.17 0.56 -0.16 0.61 -0.14 0.6 -0.11 0.61 -0.08 0.71 -0.05 0.71 0.01 0.73 0.07 0.81 0.16 0.89 0.28 0.84 0.4 0.81 0.52 0.78 0.69 0.63 0.75 0.5 0.78 0.38 0.8 0.27 0.78 0.19 0.81 0.1 0.75 0.04 0.69 0 0.71 0 0zm-4.52 10.94l-8.02 7.04 0.01 0.01 -1.01 -1.63 -0.37 -1.34 -0.08 -0.92 0.01 -0.71 0.06 -0.63 0.08 -0.56 0.1 -0.53 0.11 -0.52 0.12 -0.52 0.13 -0.53 0.15 -0.53 0.15 -0.54 0.16 -0.54 0.16 -0.56 0.17 -0.57 0.16 -0.55 0.17 -0.56 0.17 -0.58 0.17 -0.57 0.16 -0.56 0.15 -0.53 0.15 -0.55 0.15 -0.53 0.13 -0.5 0.12 -0.47 0.1 -0.46 0.1 -0.44 0.07 -0.38 0.06 -0.35 0.04 -0.27 0.02 -0.21 0.01 -0.15 10.67 0.31 -0.04 0.66 -0.06 0.65 -0.09 0.65 -0.1 0.62 -0.12 0.63 -0.13 0.6 -0.14 0.62 -0.16 0.63 -0.16 0.63 -0.17 0.61 -0.17 0.6 -0.18 0.63 -0.18 0.61 -0.18 0.59 -0.17 0.57 -0.17 0.57 -0.17 0.56 -0.16 0.53 -0.15 0.5 -0.14 0.49 -0.13 0.45 -0.11 0.42 -0.09 0.37 -0.08 0.33 -0.06 0.27 -0.04 0.19 -0.02 0.1 0 -0.05 0 -0.2 -0.05 -0.49 -0.28 -1.01 -0.87 -1.39 0.01 0.01zm4.32 -10.34l5.94 8.87 0 -0 -0.31 0.22 -0.33 0.24 -0.34 0.26 -0.36 0.29 -0.39 0.33 -0.39 0.33 -0.4 0.36 -0.41 0.38 -0.42 0.38 -0.42 0.39 -0.42 0.41 -0.42 0.41 -0.41 0.4 -0.42 0.41 -0.42 0.41 -0.42 0.41 -0.41 0.4 -0.4 0.38 -0.39 0.38 -0.4 0.38 -0.38 0.36 -0.39 0.36 -0.39 0.33 -0.42 0.35 -0.44 0.33 -0.44 0.31 -0.56 0.34 -0.74 0.37 -1 0.33 -1.49 0.17 -2.15 -0.46 -2.01 -1.46 8.02 -7.04 -1.81 -1.31 -1.9 -0.41 -1.19 0.13 -0.65 0.21 -0.34 0.17 -0.1 0.06 0.05 -0.03 0.1 -0.08 0.16 -0.13 0.23 -0.2 0.26 -0.23 0.29 -0.27 0.32 -0.3 0.34 -0.33 0.37 -0.36 0.38 -0.38 0.4 -0.39 0.42 -0.41 0.43 -0.42 0.45 -0.44 0.46 -0.44 0.46 -0.44 0.48 -0.46 0.49 -0.46 0.49 -0.45 0.5 -0.44 0.52 -0.45 0.52 -0.43 0.53 -0.43 0.54 -0.42 0.55 -0.4 0.56 -0.39 0 -0zm17.57 4.07l-9.63 4.6 -0 -0.01 -0.08 -0.16 -0.08 -0.15 -0.08 -0.15 -0.05 -0.07 -0.06 -0.08 -0.06 -0.07 -0.05 -0.06 -0 -0.01 0 0.01 -0.02 -0.02 0.02 0.02 0.04 0.02 0.01 0.01 0.06 0.02 0.05 0.02 0.02 0 0.04 0.01 0.06 0.01 0.04 0 -0.02 0 -0.04 0 -0.03 0 -0.07 0.01 -0.1 0.02 -0.09 0.02 -0.12 0.04 -0.18 0.07 -0.22 0.1 -0.21 0.1 -0.21 0.12 -0.27 0.16 -0.28 0.18 -5.94 -8.87 0.57 -0.37 0.57 -0.35 0.61 -0.33 0.61 -0.3 0.58 -0.26 0.59 -0.24 0.65 -0.22 0.66 -0.19 0.64 -0.15 0.65 -0.12 0.67 -0.08 0.65 -0.04 0.65 0 0.7 0.04 0.69 0.1 0.67 0.14 0.62 0.17 0.65 0.22 0.64 0.27 0.56 0.29 0.58 0.34 0.55 0.38 0.48 0.38 0.5 0.44 0.46 0.46 0.41 0.45 0.38 0.46 0.37 0.49 0.36 0.54 0.3 0.49 0.29 0.52 0.27 0.54 -0 -0.01zm3.31 13.72l-10.09 3.5 0 -0 -0.15 -0.47 -0.13 -0.43 -0.12 -0.45 -0.11 -0.45 -0.1 -0.44 -0.09 -0.44 -0.09 -0.44 -0.08 -0.45 -0.08 -0.44 -0.08 -0.44 -0.08 -0.45 -0.07 -0.45 -0.08 -0.46 -0.07 -0.46 -0.07 -0.42 -0.08 -0.44 -0.08 -0.46 -0.07 -0.4 -0.08 -0.44 -0.08 -0.43 -0.07 -0.37 -0.09 -0.4 -0.09 -0.39 -0.09 -0.36 -0.1 -0.38 -0.09 -0.34 -0.09 -0.31 -0.09 -0.29 -0.1 -0.27 -0.09 -0.25 -0.09 -0.22 -0.09 -0.19 9.63 -4.6 0.24 0.53 0.22 0.54 0.21 0.53 0.19 0.54 0.17 0.54 0.16 0.54 0.14 0.52 0.13 0.5 0.13 0.52 0.11 0.51 0.11 0.51 0.11 0.55 0.09 0.49 0.09 0.48 0.09 0.52 0.08 0.46 0.08 0.48 0.08 0.49 0.07 0.44 0.07 0.43 0.07 0.42 0.07 0.41 0.07 0.4 0.07 0.39 0.06 0.34 0.06 0.33 0.06 0.3 0.06 0.28 0.05 0.23 0.06 0.2 0.05 0.19 0.03 0.1 0 -0zm-1.94 -2.02l5.16 9.34 0 -0 -0.3 0.17 -0.33 0.17 -0.32 0.17 -0.31 0.15 -0.33 0.16 -0.35 0.16 -0.33 0.14 -0.38 0.15 -0.38 0.14 -0.39 0.13 -0.46 0.13 -0.47 0.1 -0.43 0.07 -0.5 0.06 -0.52 0.03 -0.61 -0.01 -0.61 -0.06 -0.57 -0.1 -0.69 -0.19 -0.59 -0.23 -0.59 -0.28 -0.6 -0.36 -0.52 -0.38 -0.49 -0.43 -0.4 -0.42 -0.38 -0.46 -0.36 -0.51 -0.27 -0.46 -0.23 -0.43 -0.22 -0.46 -0.21 -0.5 -0.17 -0.46 10.09 -3.5 0.02 0.08 0 0 -0 -0.01 -0.01 -0.01 -0.04 -0.07 -0.12 -0.17 -0.13 -0.15 -0.14 -0.14 -0.21 -0.19 -0.23 -0.17 -0.31 -0.19 -0.28 -0.14 -0.27 -0.1 -0.36 -0.1 -0.23 -0.04 -0.27 -0.02 -0.25 -0.01 -0.16 0.01 -0.13 0.01 -0.04 0.01 -0.06 0.02 -0.05 0.01 0.03 -0.01 0.05 -0.02 0.06 -0.02 0.13 -0.06 0.12 -0.05 0.16 -0.08 0.18 -0.09 0.18 -0.09 0.19 -0.1 0.22 -0.12 0 -0zm22.86 -4.95l0.05 10.67 0 0 -1.18 0.01 -1.12 0.02 -1.06 0.04 -1 0.05 -0.96 0.06 -0.9 0.07 -0.85 0.08 -0.81 0.09 -0.75 0.1 -0.7 0.11 -0.67 0.11 -0.62 0.11 -0.58 0.12 -0.55 0.13 -0.5 0.13 -0.46 0.13 -0.43 0.13 -0.41 0.13 -0.39 0.13 -0.37 0.14 -0.33 0.13 -0.31 0.13 -0.29 0.13 -0.28 0.13 -0.28 0.14 -0.29 0.15 -0.26 0.14 -0.26 0.14 -0.25 0.14 -0.26 0.15 -0.31 0.18 -0.29 0.16 -5.16 -9.34 0.25 -0.14 0.24 -0.14 0.3 -0.17 0.35 -0.19 0.36 -0.2 0.38 -0.2 0.39 -0.2 0.43 -0.21 0.47 -0.23 0.5 -0.22 0.53 -0.23 0.54 -0.21 0.56 -0.21 0.61 -0.21 0.63 -0.21 0.67 -0.2 0.71 -0.2 0.73 -0.18 0.75 -0.17 0.8 -0.17 0.83 -0.15 0.85 -0.15 0.91 -0.13 0.94 -0.12 0.97 -0.11 1.03 -0.1 1.07 -0.08 1.1 -0.07 1.17 -0.06 1.21 -0.04 1.26 -0.03 1.31 -0.01 0 0zm60.84 5.05l-1.15 10.61 -2.19 -0.24 -2.18 -0.24 -2.18 -0.23 -2.17 -0.24 -2.17 -0.23 -2.15 -0.23 -2.15 -0.23 -2.13 -0.23 -2.12 -0.22 -2.1 -0.22 -2.09 -0.21 -2.05 -0.21 -2.04 -0.2 -2.01 -0.2 -1.98 -0.19 -1.96 -0.18 -1.93 -0.17 -1.9 -0.17 -1.86 -0.15 -1.83 -0.15 -1.8 -0.14 -1.75 -0.13 -1.71 -0.12 -1.67 -0.1 -1.62 -0.09 -1.57 -0.08 -1.53 -0.06 -1.48 -0.06 -1.41 -0.04 -1.37 -0.03 -1.31 -0.02 -1.24 0 -0.05 -10.67 1.37 0 1.41 0.02 1.45 0.03 1.52 0.05 1.55 0.06 1.59 0.07 1.64 0.08 1.69 0.09 1.72 0.11 1.76 0.12 1.8 0.13 1.83 0.14 1.87 0.15 1.9 0.16 1.93 0.17 1.96 0.17 1.98 0.19 2.01 0.19 2.04 0.2 2.06 0.2 2.08 0.21 2.09 0.21 2.11 0.22 2.13 0.22 2.14 0.23 2.15 0.23 2.16 0.24 2.17 0.23 2.17 0.24 2.18 0.23 2.19 0.24 2.19 0.24zm0 0c2.93,0.31 5.04,2.95 4.73,5.88 -0.31,2.93 -2.95,5.04 -5.88,4.73l1.15 -10.61z"/>
  </g>
 </g>
</svg>
