<svg width="18" height="18" viewBox="0 0 18 18" fill="none" xmlns="http://www.w3.org/2000/svg">
<path fill-rule="evenodd" clip-rule="evenodd" d="M5.526 6.5963C5.8365 6.5963 6.0885 6.8483 6.0885 7.1588C6.0885 7.4693 5.8365 7.7213 5.526 7.7213H4.82625C3.612 7.7213 2.625 8.7083 2.625 9.9218V13.578C2.625 14.7923 3.612 15.7793 4.82625 15.7793H13.1737C14.3872 15.7793 15.375 14.7923 15.375 13.578V9.91505C15.375 8.7053 14.391 7.7213 13.182 7.7213H12.4747C12.1642 7.7213 11.9122 7.4693 11.9122 7.1588C11.9122 6.8483 12.1642 6.5963 12.4747 6.5963H13.182C15.0112 6.5963 16.5 8.08505 16.5 9.91505V13.578C16.5 15.4125 15.0075 16.9043 13.1737 16.9043H4.82625C2.9925 16.9043 1.5 15.4125 1.5 13.578V9.9218C1.5 8.08805 2.9925 6.5963 4.82625 6.5963H5.526ZM9.39795 1.667L11.5849 3.863C11.8039 4.0835 11.8032 4.439 11.5834 4.658C11.3629 4.877 11.0074 4.877 10.7884 4.6565L9.56175 3.42556L9.5622 11.6565H8.4372L8.43675 3.42556L7.2117 4.6565C7.1022 4.7675 6.95745 4.82225 6.81345 4.82225C6.6702 4.82225 6.5262 4.7675 6.4167 4.658C6.19695 4.439 6.19545 4.0835 6.4152 3.863L8.60145 1.667C8.8122 1.45475 9.1872 1.45475 9.39795 1.667Z" fill="#404040"/>
</svg>
