<?xml version="1.0" encoding="UTF-8"?>
<!DOCTYPE svg PUBLIC "-//W3C//DTD SVG 1.1//EN" "http://www.w3.org/Graphics/SVG/1.1/DTD/svg11.dtd">
<!-- Creator: CorelDRAW 2019 (64-Bit) -->
<svg xmlns="http://www.w3.org/2000/svg" xml:space="preserve" width="0.628343in" height="0.669988in" version="1.1" shape-rendering="geometricPrecision" text-rendering="geometricPrecision" image-rendering="optimizeQuality" fill-rule="evenodd" clip-rule="evenodd"
viewBox="0 0 746.45 795.93"
 xmlns:xlink="http://www.w3.org/1999/xlink">
 <g id="Layer_x0020_1">
  <metadata id="CorelCorpID_0Corel-Layer"/>
  <g id="_2776419582496">
   <g id="Iconly_x002f_Light_x002f_Arrow---Down">
    <g id="Arrow---Down">
     <line id="Stroke-1" fill="none" stroke="#F85C04" stroke-width="16.5" stroke-linecap="round" stroke-linejoin="round" stroke-miterlimit="2.61313" x1="49.38" y1="513.45" x2="49.38" y2= "421.89" />
     <polyline id="Stroke-3" fill="none" stroke="#F85C04" stroke-width="16.5" stroke-linecap="round" stroke-linejoin="round" stroke-miterlimit="2.61313" points="86.15,476.52 49.38,513.45 12.6,476.52 "/>
    </g>
   </g>
  </g>
  <g>
   <path fill="white" d="M361.32 234.38c103.38,0 187.18,83.8 187.18,187.18 0,103.38 -83.8,187.18 -187.18,187.18 -103.38,0 -187.18,-83.8 -187.18,-187.18 0,-103.38 83.8,-187.18 187.18,-187.18z"/>
   <path id="1" fill="#F85C04" d="M361.32 234.38c103.38,0 187.18,83.8 187.18,187.18 0,103.38 -83.8,187.18 -187.18,187.18 -103.38,0 -187.18,-83.8 -187.18,-187.18 0,-103.38 83.8,-187.18 187.18,-187.18zm126.09 70.02c-33.79,-33.79 -80.48,-54.7 -132.04,-54.7 -51.42,0 -97.83,20.69 -131.28,54.15 -26.79,26.79 -43.37,63.54 -43.37,103.89 0,50.98 20.83,97.31 54.51,130.99 33.79,33.79 80.48,54.7 132.04,54.7 51.42,0 97.83,-20.7 131.28,-54.15 26.79,-26.79 43.37,-63.55 43.37,-103.9 0,-50.98 -20.83,-97.31 -54.51,-130.98z"/>
  </g>
  <g>
   <path fill="white" stroke="#F85C04" stroke-width="33" stroke-miterlimit="2.61313" d="M543.92 49.35c12.89,-7.91 31.87,-24.19 42.05,-30.29 10.17,-6.11 11.53,-2.04 32.1,19.89 20.57,21.93 60.36,61.72 79.58,82.97 19.21,21.25 17.86,23.96 -1.36,40.91 -19.22,16.95 -56.29,48.15 -78.67,66.91 -22.38,18.76 -30.07,25.09 -76.64,24.87 -46.57,-0.22 -132.02,-7.01 -182.66,-11.3 -50.64,-4.3 -66.46,-6.1 -79.12,-9.95 -12.66,-3.84 -22.15,-9.72 -25.99,-20.57 -3.84,-10.85 -2.04,-26.67 -3.85,-31.2 -1.81,-4.52 -7.23,2.26 -29.83,26 -22.61,23.74 -62.4,64.43 -88.17,89.52 -25.78,25.1 -37.53,34.59 -49.06,39.56 -11.53,4.98 -22.83,5.43 -32.78,1.81 -9.95,-3.62 -18.54,-11.3 -24.64,-20.35 -6.1,-9.04 -9.72,-19.44 -7.91,-28.7 1.81,-9.27 9.04,-17.41 44.08,-53.13 35.04,-35.72 97.89,-99.01 134.28,-134.73 36.4,-35.72 46.34,-43.86 56.07,-48.83 9.72,-4.97 19.21,-6.78 44.75,-6.78 25.55,0 67.14,1.81 102.41,3.84 35.27,2.03 64.21,4.29 82.97,5.43 18.76,1.13 27.35,1.13 35.04,1.36 7.68,0.22 14.47,0.68 27.36,-7.24z"/>
   <path fill="none" stroke="#F85C04" stroke-width="33" stroke-miterlimit="2.61313" d="M534.23 54.27c29.11,27.82 58.23,55.64 87.35,83.47"/>
   <path fill="none" stroke="#F85C04" stroke-width="33" stroke-miterlimit="2.61313" d="M248.58 180.5c3.96,-7.59 7.91,-15.17 13.11,-20.15 5.2,-4.98 11.64,-7.35 17.29,-8.93 5.65,-1.58 10.51,-2.37 41.43,-1.47 30.92,0.9 87.88,3.5 144.85,6.1"/>
  </g>
  <g>
   <path fill="white" stroke="#F85C04" stroke-width="33" stroke-miterlimit="2.61313" d="M202.53 746.58c-12.89,7.91 -31.87,24.19 -42.05,30.29 -10.17,6.11 -11.53,2.04 -32.1,-19.89 -20.57,-21.93 -60.36,-61.72 -79.58,-82.97 -19.21,-21.25 -17.86,-23.96 1.36,-40.91 19.21,-16.95 56.29,-48.15 78.67,-66.91 22.38,-18.76 30.06,-25.09 76.63,-24.87 46.57,0.22 132.02,7.01 182.66,11.3 50.64,4.29 66.46,6.1 79.12,9.94 12.66,3.84 22.16,9.72 26,20.57 3.84,10.85 2.04,26.67 3.85,31.2 1.81,4.52 7.23,-2.26 29.83,-26 22.61,-23.74 62.4,-64.43 88.17,-89.52 25.78,-25.09 37.53,-34.59 49.06,-39.56 11.53,-4.98 22.83,-5.43 32.78,-1.81 9.95,3.62 18.54,11.3 24.64,20.35 6.1,9.04 9.72,19.44 7.91,28.71 -1.81,9.27 -9.05,17.41 -44.09,53.13 -35.04,35.72 -97.88,99.01 -134.28,134.73 -36.4,35.72 -46.34,43.86 -56.07,48.83 -9.72,4.98 -19.21,6.78 -44.76,6.78 -25.55,0 -67.14,-1.81 -102.41,-3.84 -35.26,-2.03 -64.2,-4.29 -82.97,-5.43 -18.76,-1.13 -27.35,-1.13 -35.04,-1.36 -7.69,-0.22 -14.47,-0.68 -27.36,7.24z"/>
   <path fill="none" stroke="#F85C04" stroke-width="33" stroke-miterlimit="2.61313" d="M212.22 741.65c-29.11,-27.82 -58.23,-55.64 -87.35,-83.47"/>
   <path fill="none" stroke="#F85C04" stroke-width="33" stroke-miterlimit="2.61313" d="M497.87 615.42c-3.95,7.59 -7.9,15.17 -13.1,20.15 -5.2,4.98 -11.64,7.35 -17.3,8.93 -5.65,1.58 -10.51,2.37 -41.43,1.47 -30.91,-0.9 -87.88,-3.5 -144.85,-6.1"/>
  </g>
  <g>
   <g id="Iconly_x002f_Light_x002f_Home">
    <g id="Home">
     <path fill="none" stroke="#F85C04" stroke-width="24.75" stroke-linecap="round" stroke-linejoin="round" stroke-miterlimit="2.61313" d="M335.94 484.17l0 -29.95c0,-7.62 6.22,-13.81 13.91,-13.86l28.18 0c7.73,0 14,6.21 14,13.86l0 0 0 30.04c0,6.47 5.21,11.75 11.74,11.9l18.79 0c18.73,0 33.91,-15.03 33.91,-33.57l0 0 0 -85.2c-0.1,-7.3 -3.56,-14.15 -9.39,-18.61l-64.26 -51.25c-11.26,-8.93 -27.26,-8.93 -38.52,0l-63.98 51.34c-5.86,4.44 -9.33,11.3 -9.4,18.6l0 85.11c0,18.54 15.19,33.57 33.91,33.57l18.79 0c6.69,0 12.12,-5.37 12.12,-12l0 0"/>
    </g>
   </g>
  </g>
  <g>
   <g id="Iconly_x002f_Light_x002f_Arrow---Up">
    <g id="Arrow---Up">
     <line id="Stroke-1_0" fill="none" stroke="#F85C04" stroke-width="16.5" stroke-linecap="round" stroke-linejoin="round" stroke-miterlimit="2.61313" x1="666.54" y1="302.87" x2="666.54" y2= "388.32" />
     <polyline id="Stroke-3_1" fill="none" stroke="#F85C04" stroke-width="16.5" stroke-linecap="round" stroke-linejoin="round" stroke-miterlimit="2.61313" points="632.22,337.34 666.54,302.87 700.86,337.34 "/>
    </g>
   </g>
  </g>
 </g>
</svg>
