<svg width="18" height="18" viewBox="0 0 18 18" fill="none" xmlns="http://www.w3.org/2000/svg">
<path d="M9 3C10.5512 3 12.022 3.53818 13.3024 4.53455C14.5829 5.52364 15.6732 6.97091 16.4561 8.78182C16.5146 8.92 16.5146 9.08 16.4561 9.21091C14.8902 12.8327 12.1024 15 9 15H8.99268C5.89756 15 3.10976 12.8327 1.5439 9.21091C1.48537 9.08 1.48537 8.92 1.5439 8.78182C3.10976 5.16 5.89756 3 8.99268 3H9ZM9 6.09091C7.38293 6.09091 6.07317 7.39273 6.07317 9C6.07317 10.6 7.38293 11.9018 9 11.9018C10.6098 11.9018 11.9195 10.6 11.9195 9C11.9195 7.39273 10.6098 6.09091 9 6.09091ZM9.00088 7.18022C10.0033 7.18022 10.8228 7.99476 10.8228 8.9984C10.8228 9.99476 10.0033 10.8093 9.00088 10.8093C7.99112 10.8093 7.17161 9.99476 7.17161 8.9984C7.17161 8.87476 7.18624 8.7584 7.20819 8.64204H7.24478C8.05698 8.64204 8.71551 8.00204 8.74478 7.20204C8.82527 7.18749 8.91307 7.18022 9.00088 7.18022Z" fill="#F85C04"/>
</svg>
