<svg width="21" height="20" viewBox="0 0 21 20" fill="none" xmlns="http://www.w3.org/2000/svg">
<path d="M10.4779 3.33203C12.2014 3.33203 13.8356 3.93001 15.2584 5.03708C16.6811 6.13607 17.8925 7.74415 18.7624 9.75627C18.8275 9.90981 18.8275 10.0876 18.7624 10.233C17.0226 14.2573 13.925 16.6654 10.4779 16.6654H10.4697C7.03071 16.6654 3.93315 14.2573 2.19331 10.233C2.12827 10.0876 2.12827 9.90981 2.19331 9.75627C3.93315 5.73203 7.03071 3.33203 10.4697 3.33203H10.4779ZM10.4779 6.76637C8.68112 6.76637 7.22583 8.21284 7.22583 9.9987C7.22583 11.7765 8.68112 13.2229 10.4779 13.2229C12.2665 13.2229 13.7218 11.7765 13.7218 9.9987C13.7218 8.21284 12.2665 6.76637 10.4779 6.76637ZM10.4788 7.97672C11.5927 7.97672 12.5032 8.88177 12.5032 9.99692C12.5032 11.104 11.5927 12.009 10.4788 12.009C9.35689 12.009 8.44632 11.104 8.44632 9.99692C8.44632 9.85955 8.46258 9.73025 8.48697 9.60096H8.52762C9.43006 9.60096 10.1618 8.88985 10.1943 8.00096C10.2837 7.9848 10.3813 7.97672 10.4788 7.97672Z" fill="#E86124"/>
</svg>
