<svg width="25" height="25" viewBox="0 0 25 25" fill="none" xmlns="http://www.w3.org/2000/svg">
<path d="M3.64906 17.3725C2.49116 19.3725 3.93434 21.8757 6.24533 21.8757H18.7553C21.0663 21.8757 22.5095 19.3725 21.3516 17.3725L15.0966 6.56847C13.9411 4.57261 11.0595 4.57261 9.90405 6.56847L3.64906 17.3725ZM13.542 17.709C13.542 18.2843 13.0756 18.7507 12.5003 18.7507C11.925 18.7507 11.4587 18.2843 11.4587 17.709C11.4587 17.1337 11.925 16.6673 12.5003 16.6673C13.0756 16.6673 13.542 17.1337 13.542 17.709ZM13.542 13.5423C13.542 14.1176 13.0756 14.584 12.5003 14.584C11.925 14.584 11.4587 14.1176 11.4587 13.5423V11.459C11.4587 10.8837 11.925 10.4173 12.5003 10.4173C13.0756 10.4173 13.542 10.8837 13.542 11.459V13.5423Z" fill="#FCB901"/>
</svg>
