<svg width="25" height="24" viewBox="0 0 25 24" fill="none" xmlns="http://www.w3.org/2000/svg">
<path d="M19.7282 8.69713C19.9359 8.69713 20.1243 8.78413 20.2732 8.93113C20.412 9.08813 20.4819 9.28313 20.4617 9.48913C20.4617 9.55712 19.9065 16.2971 19.5894 19.134C19.3908 20.875 18.2217 21.932 16.4681 21.961C15.1197 21.99 13.8017 22 12.504 22C11.1262 22 9.77878 21.99 8.4709 21.961C6.77602 21.922 5.60592 20.846 5.41749 19.134C5.09128 16.2871 4.54624 9.55712 4.53611 9.48913C4.52598 9.28313 4.59487 9.08813 4.73468 8.93113C4.87245 8.78413 5.07102 8.69713 5.27971 8.69713H19.7282ZM14.6508 2C15.5716 2 16.3943 2.61699 16.6323 3.49699L16.8025 4.22698C16.9403 4.82197 17.4772 5.24297 18.0952 5.24297H21.1324C21.5376 5.24297 21.875 5.56596 21.875 5.97696V6.35696C21.875 6.75795 21.5376 7.09095 21.1324 7.09095H3.8686C3.46235 7.09095 3.125 6.75795 3.125 6.35696V5.97696C3.125 5.56596 3.46235 5.24297 3.8686 5.24297H6.9058C7.52276 5.24297 8.05969 4.82197 8.19848 4.22798L8.35753 3.54598C8.60472 2.61699 9.41822 2 10.3492 2H14.6508Z" fill="#C5C5C5"/>
</svg>
