<svg width="18" height="19" viewBox="0 0 18 19" fill="none" xmlns="http://www.w3.org/2000/svg">
<path d="M16.3574 10.2052C16.4115 10.2356 16.4223 10.3 16.4244 10.3245L16.425 10.3343L16.3649 14.2077C16.3649 15.7528 15.1678 17.0128 13.6603 17.09L13.5135 17.0938H4.47899C2.95245 17.0938 1.70758 15.8821 1.63127 14.3563L1.62756 14.2077L1.57504 10.3343C1.57504 10.3343 1.57504 10.2432 1.64257 10.2052C1.7026 10.1672 1.77764 10.2128 1.78514 10.2204C3.3009 11.2381 5.12431 11.914 7.03777 12.195C7.3079 12.233 7.57804 12.0583 7.65308 11.7849C7.80784 11.2011 8.28577 10.8041 8.87045 10.7568L8.98874 10.752H9.01126C9.64907 10.752 10.1818 11.1621 10.3469 11.7849C10.422 12.0583 10.6921 12.233 10.9622 12.195C12.8757 11.914 14.6991 11.2381 16.2149 10.2204C16.2149 10.2204 16.2299 10.2128 16.2449 10.2052C16.2749 10.19 16.3199 10.1824 16.3574 10.2052ZM8.99625 11.8381C8.71423 11.8381 8.47635 12.0551 8.43866 12.3311L8.43347 12.4077V13.3874C8.43347 13.7064 8.68859 13.9571 8.99625 13.9571C9.28514 13.9571 9.51729 13.7465 9.55398 13.4657L9.55903 13.3874V12.4077C9.55903 12.0963 9.31141 11.8381 8.99625 11.8381ZM9.96423 2.09375C11.0898 2.09375 12.0128 2.95197 12.1553 4.05323H13.6411C15.2169 4.05323 16.5 5.35196 16.5 6.94689C16.5 6.94689 16.455 7.62208 16.44 8.56232C16.4385 8.63675 16.4025 8.70967 16.3432 8.75372C15.9822 9.0203 15.6521 9.24055 15.6221 9.25574C14.3764 10.0912 12.929 10.679 11.3869 10.9714C11.2864 10.9912 11.1873 10.9388 11.1363 10.8491C10.7041 10.1003 9.8967 9.6127 8.99625 9.6127C8.1018 9.6127 7.28689 10.095 6.84192 10.8446C6.79015 10.9327 6.6926 10.9836 6.5928 10.9646C5.06353 10.6714 3.61606 10.0843 2.37794 9.26333L1.65758 8.76207C1.59755 8.7241 1.56003 8.65574 1.56003 8.57979C1.53752 8.19245 1.5 6.94689 1.5 6.94689C1.5 5.35196 2.78314 4.05323 4.35893 4.05323H5.83717C5.97974 2.95197 6.9027 2.09375 8.02826 2.09375H9.96423ZM9.96423 3.23298H8.02826C7.52551 3.23298 7.0978 3.58235 6.97774 4.05323H11.0148C10.8947 3.58235 10.467 3.23298 9.96423 3.23298Z" fill="#777777"/>
</svg>
