<?xml version="1.0" encoding="UTF-8"?>
<!DOCTYPE svg PUBLIC "-//W3C//DTD SVG 1.1//EN" "http://www.w3.org/Graphics/SVG/1.1/DTD/svg11.dtd">
<!-- Creator: CorelDRAW 2019 (64-Bit) -->
<svg xmlns="http://www.w3.org/2000/svg" xml:space="preserve" width="0.17187in" height="0.182425in" version="1.1" shape-rendering="geometricPrecision" text-rendering="geometricPrecision" image-rendering="optimizeQuality" fill-rule="evenodd" clip-rule="evenodd"
viewBox="0 0 141.16 149.83"
 xmlns:xlink="http://www.w3.org/1999/xlink">
 <g id="Layer_x0020_1">
  <metadata id="CorelCorpID_0Corel-Layer"/>
  <g id="_2740329258832">
   <g>
    <path fill="#F85C04" d="M109.27 17.02l0 9.42 14.86 0 0.01 0 0 0.03c4.69,0.01 8.95,1.91 12.02,5 3.05,3.06 4.95,7.29 4.96,11.97l0.03 0 0 0.03 0 89.34 0 0.01 -0.03 0c-0.01,4.68 -1.91,8.94 -5,12.02 -3.06,3.05 -7.29,4.95 -11.97,4.96l0 0.03 -0.02 0 -75.23 0 -0.01 0 0 -0.03c-4.68,-0.01 -8.95,-1.91 -12.02,-5 -3.05,-3.06 -4.95,-7.29 -4.96,-11.97l-0.02 0 0 -0.02 0 -20.01 -14.86 0 -0.01 0 0 -0.03c-4.68,-0.01 -8.95,-1.91 -12.02,-5 -3.05,-3.06 -4.95,-7.29 -4.96,-11.97l-0.03 0 0 -0.03 0 -78.75 0 -0.01 0.03 0c0.01,-4.7 1.92,-8.95 5,-12.02 3.06,-3.05 7.29,-4.95 11.97,-4.96l0 -0.02 0.02 0 75.23 0 0.01 0 0 0.02c4.7,0.01 8.95,1.91 12.02,5 3.05,3.06 4.95,7.29 4.96,11.97l0.02 0 0 0.03 0 0zm-12.9 9.42l0 -9.42 0 -0.03 0.02 0c0,-1.11 -0.48,-2.13 -1.23,-2.89 -0.74,-0.74 -1.78,-1.22 -2.89,-1.22l0 0.03 -0.01 0 -75.23 0 -0.03 0 0 -0.03c-1.11,0 -2.13,0.48 -2.89,1.23 -0.74,0.74 -1.22,1.78 -1.22,2.89l0.02 0 0 0.01 0 78.75 0 0.03 -0.02 0c0,1.11 0.48,2.13 1.23,2.89 0.74,0.74 1.78,1.22 2.89,1.22l0 -0.03 0.01 0 14.86 0 0 -56.42 0 -0.01 0.02 0c0.01,-4.7 1.93,-8.95 5,-12.02 3.06,-3.05 7.29,-4.95 11.97,-4.96l0 -0.03 0.03 0 47.46 0 0 0zm31.87 106.36l0 -89.34 0 -0.03 0.02 0c0,-1.11 -0.48,-2.13 -1.23,-2.89 -0.74,-0.74 -1.78,-1.22 -2.89,-1.22l0 0.03 -0.01 0 -75.23 0 -0.03 0 0 -0.03c-1.11,0 -2.13,0.48 -2.89,1.23 -0.74,0.74 -1.22,1.78 -1.22,2.89l0.02 0 0 0.01 0 89.34 0 0.03 -0.02 0c0,1.11 0.48,2.13 1.23,2.89 0.74,0.74 1.78,1.22 2.89,1.22l0 -0.03 0.01 0 75.23 0 0.02 0 0 0.03c1.11,0 2.13,-0.48 2.89,-1.23 0.74,-0.74 1.22,-1.78 1.22,-2.89l-0.02 0 0 -0.01 0 0z"/>
   </g>
  </g>
 </g>
</svg>
