<?xml version="1.0" encoding="UTF-8"?>
<!DOCTYPE svg PUBLIC "-//W3C//DTD SVG 1.1//EN" "http://www.w3.org/Graphics/SVG/1.1/DTD/svg11.dtd">
<!-- Creator: CorelDRAW 2019 (64-Bit) -->
<svg xmlns="http://www.w3.org/2000/svg" xml:space="preserve" width="0.184185in" height="0.193055in" version="1.1" shape-rendering="geometricPrecision" text-rendering="geometricPrecision" image-rendering="optimizeQuality" fill-rule="evenodd" clip-rule="evenodd"
viewBox="0 0 420.7 440.96"
 xmlns:xlink="http://www.w3.org/1999/xlink">
 <g id="Layer_x0020_1">
  <metadata id="CorelCorpID_0Corel-Layer"/>
  <g id="_2740334750432">
   <g id="Iconly_x002f_Light_x002f_Home">
    <g id="Home">
     <path fill="none" stroke="#F85C04" stroke-width="35.69" stroke-linecap="round" stroke-linejoin="round" stroke-miterlimit="2.61313" d="M152.75 398.22l0 -62.14c0,-15.81 12.89,-28.65 28.86,-28.76l58.48 0c16.03,0 29.04,12.87 29.04,28.76l0 0 0 62.33c0,13.43 10.82,24.39 24.37,24.7l38.99 0c38.86,0 70.37,-31.19 70.37,-69.67l0 0 0 -176.78c-0.21,-15.13 -7.38,-29.35 -19.49,-38.6l-133.34 -106.33c-23.35,-18.52 -56.56,-18.52 -79.93,0l-132.75 106.53c-12.16,9.21 -19.34,23.44 -19.5,38.6l0 176.59c0,38.48 31.51,69.67 70.37,69.67l38.99 0c13.88,0 25.15,-11.14 25.15,-24.89l0 0"/>
    </g>
   </g>
  </g>
 </g>
</svg>
