<?xml version="1.0" encoding="UTF-8"?>
<!DOCTYPE svg PUBLIC "-//W3C//DTD SVG 1.1//EN" "http://www.w3.org/Graphics/SVG/1.1/DTD/svg11.dtd">
<!-- Creator: CorelDRAW 2019 (64-Bit) -->
<svg xmlns="http://www.w3.org/2000/svg" xml:space="preserve" width="0.49528in" height="0.203193in" version="1.1" shape-rendering="geometricPrecision" text-rendering="geometricPrecision" image-rendering="optimizeQuality" fill-rule="evenodd" clip-rule="evenodd"
viewBox="0 0 64.41 26.42"
 xmlns:xlink="http://www.w3.org/1999/xlink">
 <g id="Layer_x0020_1">
  <metadata id="CorelCorpID_0Corel-Layer"/>
  <g id="_2740264134944">
   <g id="Iconly_x002f_Light_x002f_Setting">
    <g id="Setting">
     <path id="Path_33946" fill="none" stroke="#F85C04" stroke-width="1.35" stroke-linecap="round" stroke-linejoin="round" stroke-miterlimit="2.61313" d="M63.45 9.88l-0.68 -1.17c-0.57,-0.99 -1.84,-1.33 -2.83,-0.77l0 0c-0.47,0.28 -1.04,0.36 -1.57,0.22 -0.53,-0.14 -0.99,-0.48 -1.26,-0.96 -0.18,-0.3 -0.27,-0.64 -0.28,-0.99l0 0c0.02,-0.56 -0.2,-1.11 -0.59,-1.51 -0.39,-0.4 -0.93,-0.63 -1.49,-0.63l-1.36 0c-0.55,0 -1.08,0.22 -1.47,0.61 -0.39,0.39 -0.61,0.92 -0.6,1.47l0 0c-0.02,1.14 -0.94,2.05 -2.08,2.05 -0.35,-0 -0.69,-0.1 -0.99,-0.28l0 0c-0.99,-0.57 -2.26,-0.23 -2.83,0.77l-0.73 1.19c-0.57,0.99 -0.23,2.26 0.76,2.83l0 0c0.64,0.37 1.04,1.06 1.04,1.8 0,0.74 -0.4,1.43 -1.04,1.8l0 0c-0.99,0.57 -1.33,1.83 -0.76,2.82l0 0 0.69 1.18c0.27,0.48 0.72,0.84 1.25,0.99 0.53,0.15 1.1,0.08 1.58,-0.19l0 0c0.47,-0.28 1.04,-0.35 1.57,-0.21 0.53,0.14 0.98,0.49 1.25,0.97 0.18,0.3 0.27,0.64 0.28,0.99l0 0c0,1.15 0.93,2.08 2.08,2.08l1.36 0c1.14,0 2.07,-0.92 2.08,-2.07l0 0c-0,-0.55 0.22,-1.08 0.61,-1.47 0.39,-0.39 0.92,-0.61 1.47,-0.61 0.35,0.01 0.69,0.1 0.99,0.28l0 0c0.99,0.57 2.26,0.23 2.83,-0.76l0 0 0.72 -1.19c0.28,-0.48 0.35,-1.04 0.21,-1.57 -0.14,-0.53 -0.49,-0.99 -0.97,-1.26l0 0c-0.48,-0.27 -0.83,-0.73 -0.97,-1.26 -0.14,-0.53 -0.07,-1.1 0.21,-1.57 0.18,-0.31 0.44,-0.57 0.76,-0.76l0 0c0.98,-0.57 1.32,-1.83 0.76,-2.82l0 0 0 -0.01z"/>
     <circle id="Ellipse_737" fill="none" stroke="#F85C04" stroke-width="1.35" stroke-linecap="round" stroke-linejoin="round" stroke-miterlimit="2.61313" cx="54.08" cy="14.52" r="2.86"/>
    </g>
   </g>
  </g>
  <path fill="none" stroke="#F85C04" stroke-width="0.9" stroke-miterlimit="2.61313" d="M45.84 25.97l-29.87 0c-1.55,0 -2.83,-1.27 -2.83,-2.83l0 -19.86c0,-1.56 1.27,-2.83 2.83,-2.83l33.3 0c0.98,0 1.85,0.51 2.36,1.27"/>
  <path fill="#F85C04" d="M13.88 4.39l30.25 0c0.48,0 0.83,0.04 1.07,0.04 1.25,-0.01 -0.2,0.39 -0.6,0.65 -1.11,0.71 -2.91,2.56 -3.72,3.94 -0.36,0.62 -0.6,1.09 -0.74,1.07 -0.25,-0.02 -0.66,-0.04 -1.29,-0.04l-24.97 0c-0.51,0 -0.93,-0.42 -0.93,-0.93l0 -3.8c0,-0.51 0.42,-0.93 0.93,-0.93z"/>
  <g id="_2740264337184">
   <g id="Iconly_x002f_Light_x002f_Arrow---Up">
    <g id="Arrow---Up">
     <line id="Stroke-1" fill="none" stroke="#F85C04" stroke-width="0.9" stroke-linecap="round" stroke-linejoin="round" stroke-miterlimit="2.61313" x1="4.21" y1="7.7" x2="4.21" y2= "17.06" />
     <polyline id="Stroke-3" fill="none" stroke="#F85C04" stroke-width="0.9" stroke-linecap="round" stroke-linejoin="round" stroke-miterlimit="2.61313" points="0.45,11.48 4.21,7.7 7.97,11.48 "/>
    </g>
   </g>
  </g>
 </g>
</svg>
