<?xml version="1.0" encoding="UTF-8"?>
<!DOCTYPE svg PUBLIC "-//W3C//DTD SVG 1.1//EN" "http://www.w3.org/Graphics/SVG/1.1/DTD/svg11.dtd">
<!-- Creator: CorelDRAW 2019 (64-Bit) -->
<svg xmlns="http://www.w3.org/2000/svg" xml:space="preserve" width="0.397685in" height="0.203193in" version="1.1" shape-rendering="geometricPrecision" text-rendering="geometricPrecision" image-rendering="optimizeQuality" fill-rule="evenodd" clip-rule="evenodd"
viewBox="0 0 43.77 22.36"
 xmlns:xlink="http://www.w3.org/1999/xlink">
 <g id="Layer_x0020_1">
  <metadata id="CorelCorpID_0Corel-Layer"/>
  <g id="_2776424009568">
   <g id="Iconly_x002f_Light_x002f_Setting">
    <g id="Setting">
     <path id="Path_33946" fill="none" stroke="#F85C04" stroke-width="1.15" stroke-linecap="round" stroke-linejoin="round" stroke-miterlimit="2.61313" d="M42.96 8.36l-0.57 -0.99c-0.48,-0.84 -1.56,-1.13 -2.4,-0.65l0 0c-0.4,0.24 -0.88,0.3 -1.33,0.19 -0.45,-0.12 -0.83,-0.41 -1.07,-0.81 -0.15,-0.25 -0.23,-0.55 -0.24,-0.84l0 0c0.01,-0.47 -0.17,-0.94 -0.5,-1.28 -0.33,-0.34 -0.79,-0.53 -1.26,-0.53l-1.15 0c-0.47,0 -0.91,0.19 -1.24,0.52 -0.33,0.33 -0.51,0.78 -0.51,1.24l0 0c-0.01,0.96 -0.8,1.73 -1.76,1.73 -0.3,-0 -0.59,-0.08 -0.84,-0.24l0 0c-0.84,-0.48 -1.91,-0.19 -2.4,0.65l-0.61 1.01c-0.48,0.84 -0.2,1.91 0.64,2.4l0 0c0.54,0.31 0.88,0.89 0.88,1.52 0,0.63 -0.34,1.21 -0.88,1.52l0 0c-0.84,0.48 -1.12,1.55 -0.64,2.39l0 0 0.58 1c0.23,0.41 0.61,0.71 1.06,0.84 0.45,0.13 0.93,0.07 1.34,-0.16l0 0c0.4,-0.23 0.88,-0.3 1.33,-0.18 0.45,0.12 0.83,0.41 1.06,0.82 0.15,0.25 0.23,0.55 0.24,0.84l0 0c0,0.97 0.79,1.76 1.76,1.76l1.15 0c0.97,0 1.75,-0.78 1.76,-1.75l0 0c-0,-0.47 0.18,-0.92 0.51,-1.25 0.33,-0.33 0.78,-0.51 1.25,-0.51 0.3,0.01 0.58,0.09 0.84,0.24l0 0c0.84,0.48 1.91,0.2 2.4,-0.64l0 0 0.61 -1.01c0.23,-0.4 0.3,-0.88 0.18,-1.33 -0.12,-0.45 -0.42,-0.83 -0.82,-1.07l0 0c-0.4,-0.23 -0.7,-0.62 -0.82,-1.07 -0.12,-0.45 -0.06,-0.93 0.18,-1.33 0.15,-0.27 0.37,-0.49 0.64,-0.64l0 0c0.83,-0.49 1.12,-1.55 0.64,-2.39l0 0 0 -0.01z"/>
     <circle id="Ellipse_737" fill="none" stroke="#F85C04" stroke-width="1.15" stroke-linecap="round" stroke-linejoin="round" stroke-miterlimit="2.61313" cx="35.02" cy="12.29" r="2.42"/>
    </g>
   </g>
  </g>
  <path fill="none" stroke="#F85C04" stroke-width="0.76" stroke-miterlimit="2.61313" d="M28.06 21.98l-25.28 0c-1.32,0 -2.39,-1.08 -2.39,-2.39l0 -16.81c0,-1.32 1.08,-2.39 2.39,-2.39l28.18 0c0.83,0 1.57,0.43 2,1.08"/>
  <path fill="#F85C04" d="M1.01 3.71l25.6 0c0.41,0 0.7,0.04 0.91,0.03 1.06,-0.01 -0.17,0.33 -0.51,0.55 -0.94,0.6 -2.46,2.16 -3.14,3.33 -0.31,0.52 -0.5,0.92 -0.62,0.91 -0.21,-0.02 -0.55,-0.04 -1.1,-0.04l-21.14 0c-0.43,0 -0.79,-0.35 -0.79,-0.79l0 -3.21c0,-0.43 0.35,-0.79 0.79,-0.79z"/>
 </g>
</svg>
