<?xml version="1.0" encoding="UTF-8"?>
<!DOCTYPE svg PUBLIC "-//W3C//DTD SVG 1.1//EN" "http://www.w3.org/Graphics/SVG/1.1/DTD/svg11.dtd">
<!-- Creator: CorelDRAW 2019 (64-Bit) -->
<svg xmlns="http://www.w3.org/2000/svg" xml:space="preserve" width="0.853051in" height="0.572626in" version="1.1" shape-rendering="geometricPrecision" text-rendering="geometricPrecision" image-rendering="optimizeQuality" fill-rule="evenodd" clip-rule="evenodd"
viewBox="0 0 1146.66 769.72"
 xmlns:xlink="http://www.w3.org/1999/xlink">
 <g id="Layer_x0020_1">
  <metadata id="CorelCorpID_0Corel-Layer"/>
  <g id="_2740345871776">
   <polygon fill="white" points="149.87,265.73 256.28,653.58 1127.21,421.15 1022.19,19.29 "/>
   <g>
    <path fill="#F85C04" d="M365.66 410.56c2.68,9.98 -3.25,20.24 -13.23,22.92 -9.98,2.67 -20.24,-3.25 -22.91,-13.23 -2.67,-9.98 3.25,-20.24 13.23,-22.91 9.98,-2.68 20.24,3.25 22.91,13.22z"/>
    <path fill="#F85C04" d="M943.97 255.61c2.67,9.98 -3.25,20.24 -13.23,22.91 -9.98,2.68 -20.24,-3.25 -22.91,-13.23 -2.68,-9.98 3.25,-20.24 13.23,-22.91 9.98,-2.67 20.24,3.25 22.91,13.23z"/>
    <path fill="#F85C04" d="M598.52 193.21l-291.18 78.02c4.52,47.39 -21.76,92.88 -65.05,112.67l29.86 111.45c47.39,-4.52 92.88,21.76 112.67,65.05l291.18 -78.02 -77.49 -289.17zm-236.4 276.42c-29.89,8.01 -60.74,-9.8 -68.74,-39.69 -8.01,-29.89 9.8,-60.74 39.69,-68.74 29.89,-8.01 60.74,9.8 68.74,39.69 8.01,29.89 -9.8,60.73 -39.69,68.74z"/>
    <path fill="#F85C04" d="M126.82 242.12l116.22 433.74 903.62 -242.12 -116.22 -433.74 -903.62 242.12zm45.83 26.46l36.14 -9.68 9.68 36.14 -36.14 9.68 -9.68 -36.14zm133 351.76l-36.14 9.69 -9.68 -36.14 36.14 -9.68 9.68 36.14zm795.18 -213.06l-36.14 9.68 -9.68 -36.14 36.14 -9.68 9.68 36.14zm-29.05 -108.43c2.67,9.97 -3.26,20.24 -13.23,22.91 -39.87,10.68 -63.61,51.79 -52.92,91.66 2.67,9.97 -3.26,20.24 -13.23,22.91l-614.46 164.64c-9.97,2.67 -20.24,-3.25 -22.91,-13.23 -10.68,-39.86 -51.79,-63.6 -91.66,-52.92 -9.97,2.67 -20.24,-3.26 -22.91,-13.23l-38.74 -144.58c-2.67,-9.97 3.25,-20.24 13.22,-22.91 39.87,-10.68 63.61,-51.79 52.92,-91.66 -2.67,-9.97 3.26,-20.24 13.23,-22.91l614.46 -164.64c9.97,-2.67 20.24,3.25 22.91,13.22 10.68,39.87 51.79,63.61 91.66,52.92 9.97,-2.67 20.24,3.26 22.91,13.23l38.74 144.58zm-58.11 -216.87l-36.14 9.68 -9.68 -36.14 36.14 -9.68 9.68 36.14z"/>
    <path fill="#F85C04" d="M890.88 114.88l-295.48 79.17 77.48 289.16 295.48 -79.17c-4.36,-47.43 22.72,-93.14 67.01,-113.2l-29.86 -111.45c-48.39,4.79 -94.67,-21.26 -114.63,-64.51l-0.01 0zm92.62 130.14c8.01,29.89 -10.34,60.87 -40.89,69.06 -30.55,8.19 -61.93,-9.47 -69.95,-39.37 -8.01,-29.89 10.34,-60.87 40.89,-69.06 30.55,-8.19 61.93,9.47 69.94,39.37z"/>
   </g>
  </g>
  <rect fill="white" x="14.52" y="333.85" width="904.53" height="427.06" rx="13.44" ry="13.44"/>
  <g id="_2740345873024">
   <path fill="#F85C04" d="M187.1 545.2c0,10.33 -8.38,18.71 -18.71,18.71 -10.33,0 -18.71,-8.38 -18.71,-18.71 0,-10.33 8.38,-18.71 18.71,-18.71 10.33,0 18.71,8.38 18.71,18.71z"/>
   <path fill="#F85C04" d="M785.82 545.2c0,10.33 -8.38,18.71 -18.71,18.71 -10.33,0 -18.71,-8.38 -18.71,-18.71 0,-10.33 8.38,-18.71 18.71,-18.71 10.33,0 18.71,8.38 18.71,18.71z"/>
   <path fill="#F85C04" d="M468.28 395.52l-301.45 0c-7.89,46.94 -45.05,84.09 -91.99,92l0 115.38c46.94,7.89 84.08,45.05 91.99,91.99l301.45 0 0 -299.37zm-299.89 205.81c-30.95,0 -56.13,-25.18 -56.13,-56.13 0,-30.95 25.18,-56.13 56.13,-56.13 30.95,0 56.13,25.18 56.13,56.13 0,30.95 -25.18,56.13 -56.13,56.13z"/>
   <path fill="#F85C04" d="M-0 320.68l0 449.03 935.49 0 0 -449.03 -935.49 0zm37.42 37.42l37.42 0 0 37.41 -37.42 0 0 -37.41zm37.42 374.19l-37.42 0 0 -37.42 37.42 0 0 37.42zm823.23 0l-37.42 0 0 -37.42 37.42 0 0 37.42zm0 -112.26c0,10.32 -8.39,18.71 -18.71,18.71 -41.27,0 -74.84,33.57 -74.84,74.84 0,10.32 -8.39,18.71 -18.71,18.71l-636.13 0c-10.32,0 -18.71,-8.38 -18.71,-18.71 0,-41.27 -33.57,-74.84 -74.84,-74.84 -10.32,0 -18.71,-8.38 -18.71,-18.71l0 -149.68c0,-10.32 8.39,-18.71 18.71,-18.71 41.27,0 74.84,-33.57 74.84,-74.84 0,-10.32 8.39,-18.71 18.71,-18.71l636.13 0c10.32,0 18.71,8.38 18.71,18.71 0,41.27 33.57,74.84 74.84,74.84 10.32,0 18.71,8.38 18.71,18.71l0 149.68zm0 -224.52l-37.42 0 0 -37.41 37.42 0 0 37.41z"/>
   <path fill="#F85C04" d="M770.96 395.52l-305.91 0 0 299.36 305.91 0c8.07,-46.94 46.05,-84.09 94.03,-92l0 -115.38c-47.98,-7.89 -85.94,-45.04 -94.03,-91.98l0 -0.01zm55.78 149.68c0,30.95 -25.74,56.13 -57.37,56.13 -31.63,0 -57.37,-25.18 -57.37,-56.13 0,-30.95 25.74,-56.13 57.37,-56.13 31.63,0 57.37,25.18 57.37,56.13z"/>
  </g>
 </g>
</svg>
