<?xml version="1.0" encoding="UTF-8"?>
<!DOCTYPE svg PUBLIC "-//W3C//DTD SVG 1.1//EN" "http://www.w3.org/Graphics/SVG/1.1/DTD/svg11.dtd">
<!-- Creator: CorelDRAW 2019 (64-Bit) -->
<svg xmlns="http://www.w3.org/2000/svg" xml:space="preserve" width="0.17763in" height="0.206933in" version="1.1" shape-rendering="geometricPrecision" text-rendering="geometricPrecision" image-rendering="optimizeQuality" fill-rule="evenodd" clip-rule="evenodd"
viewBox="0 0 441.61 514.46"
 xmlns:xlink="http://www.w3.org/1999/xlink">
 <g id="Layer_x0020_1">
  <metadata id="CorelCorpID_0Corel-Layer"/>
  <g id="_2740329256752">
   <g id="Iconly_x002f_Light_x002f_Paper-Download">
    <g id="Paper-Download">
     <path id="Stroke-1" fill="none" stroke="#F85C04" stroke-width="38.85" stroke-linecap="round" stroke-linejoin="round" stroke-miterlimit="2.61313" d="M290.98 19.73l-172.27 0c-53.87,-0.21 -98,42.7 -99.29,96.58l0 278.05c-1.16,54.43 42.03,99.49 96.44,100.66 0.96,0 1.92,0.03 2.85,0l206.87 0c54.12,-1.92 96.9,-46.51 96.6,-100.66l0 -237.99 -131.2 -136.64z"/>
     <path id="Stroke-3" fill="none" stroke="#F85C04" stroke-width="38.85" stroke-linecap="round" stroke-linejoin="round" stroke-miterlimit="2.61313" d="M284.2 19.43l0 75.34c0,36.77 29.76,66.58 66.53,66.68l71.32 0"/>
     <line id="Stroke-5" fill="none" stroke="#F85C04" stroke-width="38.85" stroke-linecap="round" stroke-linejoin="round" stroke-miterlimit="2.61313" x1="210.84" y1="361.27" x2="210.84" y2= "204.82" />
     <polyline id="Stroke-7" fill="none" stroke="#F85C04" stroke-width="38.85" stroke-linecap="round" stroke-linejoin="round" stroke-miterlimit="2.61313" points="150.09,300.27 210.82,361.25 271.54,300.27 "/>
    </g>
   </g>
  </g>
 </g>
</svg>
