<?xml version="1.0" encoding="UTF-8"?>
<!DOCTYPE svg PUBLIC "-//W3C//DTD SVG 1.1//EN" "http://www.w3.org/Graphics/SVG/1.1/DTD/svg11.dtd">
<!-- Creator: CorelDRAW 2019 (64-Bit) -->
<svg xmlns="http://www.w3.org/2000/svg" xml:space="preserve" width="0.226799in" height="0.174906in" version="1.1" shape-rendering="geometricPrecision" text-rendering="geometricPrecision" image-rendering="optimizeQuality" fill-rule="evenodd" clip-rule="evenodd"
viewBox="0 0 259.63 200.23"
 xmlns:xlink="http://www.w3.org/1999/xlink">
 <g id="Layer_x0020_1">
  <metadata id="CorelCorpID_0Corel-Layer"/>
  <g id="_2776417740048">
   <g id="Iconly_x002f_Light_x002f_3-User">
    <g id="_3-User">
     <path id="Stroke-1" fill="none" stroke="#F85C04" stroke-width="17.89" stroke-linecap="round" stroke-linejoin="round" stroke-miterlimit="2.61313" d="M201.38 88.21c16.64,-2.34 29.44,-16.6 29.48,-33.88 0,-17.03 -12.41,-31.15 -28.69,-33.82"/>
     <path id="Stroke-3" fill="none" stroke="#F85C04" stroke-width="17.89" stroke-linecap="round" stroke-linejoin="round" stroke-miterlimit="2.61313" d="M223.33 128.19c16.11,2.41 27.36,8.05 27.36,19.68 0,8 -5.3,13.2 -13.86,16.46"/>
     <path id="Stroke-5" fill="none" stroke="#F85C04" stroke-width="17.89" stroke-linecap="round" stroke-linejoin="round" stroke-miterlimit="2.61313" d="M129.82 133.12c-38.32,0 -71.05,5.8 -71.05,29 0,23.18 32.53,29.16 71.05,29.16 38.33,0 71.05,-5.75 71.05,-28.95 0,-23.21 -32.52,-29.21 -71.05,-29.21z"/>
     <path id="Stroke-7" fill="none" stroke="#F85C04" stroke-width="17.89" stroke-linecap="round" stroke-linejoin="round" stroke-miterlimit="2.61313" d="M129.82 100.02c25.15,0 45.54,-20.38 45.54,-45.54 0,-25.15 -20.39,-45.54 -45.54,-45.54 -25.15,0 -45.53,20.39 -45.53,45.54 -0.09,25.07 20.14,45.46 45.2,45.54l0.33 0z"/>
     <path id="Stroke-9" fill="none" stroke="#F85C04" stroke-width="17.89" stroke-linecap="round" stroke-linejoin="round" stroke-miterlimit="2.61313" d="M58.25 88.21c-16.64,-2.34 -29.44,-16.6 -29.48,-33.88 0,-17.03 12.41,-31.15 28.69,-33.82"/>
     <path id="Stroke-11" fill="none" stroke="#F85C04" stroke-width="17.89" stroke-linecap="round" stroke-linejoin="round" stroke-miterlimit="2.61313" d="M36.3 128.19c-16.11,2.41 -27.35,8.05 -27.35,19.68 0,8 5.3,13.2 13.85,16.46"/>
    </g>
   </g>
  </g>
 </g>
</svg>
