<?xml version="1.0" encoding="UTF-8"?>
<!DOCTYPE svg PUBLIC "-//W3C//DTD SVG 1.1//EN" "http://www.w3.org/Graphics/SVG/1.1/DTD/svg11.dtd">
<!-- Creator: CorelDRAW 2019 (64-Bit) -->
<svg xmlns="http://www.w3.org/2000/svg" xml:space="preserve" width="0.208122in" height="0.198512in" version="1.1" shape-rendering="geometricPrecision" text-rendering="geometricPrecision" image-rendering="optimizeQuality" fill-rule="evenodd" clip-rule="evenodd"
viewBox="0 0 226.94 216.46"
 xmlns:xlink="http://www.w3.org/1999/xlink">
 <g id="Layer_x0020_1">
  <metadata id="CorelCorpID_0Corel-Layer"/>
  <g id="_2740272646400">
   <g id="Iconly_x002f_Light_x002f_2-User">
    <g id="_2-User">
     <path id="Stroke-1" fill="none" stroke="#F85C04" stroke-width="17.04" stroke-linecap="round" stroke-linejoin="round" stroke-miterlimit="2.61313" d="M86.24 144.33c41.89,0 77.71,6.35 77.71,31.71 0,25.36 -35.57,31.89 -77.71,31.89 -41.92,0 -77.72,-6.29 -77.72,-31.66 0,-25.38 35.56,-31.94 77.72,-31.94z"/>
     <path id="Stroke-3" fill="none" stroke="#F85C04" stroke-width="17.04" stroke-linecap="round" stroke-linejoin="round" stroke-miterlimit="2.61313" d="M86.24 108.14c-27.51,0 -49.82,-22.29 -49.82,-49.81 0,-27.51 22.31,-49.81 49.82,-49.81 27.49,0 49.8,22.3 49.8,49.81 0.1,27.41 -22.05,49.71 -49.45,49.81l-0.35 0z"/>
     <path id="Stroke-5" fill="none" stroke="#F85C04" stroke-width="17.04" stroke-linecap="round" stroke-linejoin="round" stroke-miterlimit="2.61313" d="M164.51 95.21c18.18,-2.55 32.19,-18.16 32.22,-37.05 0,-18.61 -13.57,-34.06 -31.37,-36.98"/>
     <path id="Stroke-7" fill="none" stroke="#F85C04" stroke-width="17.04" stroke-linecap="round" stroke-linejoin="round" stroke-miterlimit="2.61313" d="M188.5 138.94c17.62,2.62 29.92,8.8 29.92,21.52 0,8.76 -5.79,14.44 -15.15,17.99"/>
    </g>
   </g>
  </g>
 </g>
</svg>
